<svg xmlns="http://www.w3.org/2000/svg" viewBox="0 0 384 512"><!--! Font Awesome Free 7.3.0 by @fontawesome - https://fontawesome.com License - https://fontawesome.com/license/free (Icons: CC BY 4.0, Fonts: SIL OFL 1.1, Code: MIT License) Copyright 2026 Fonticons, Inc. --><path fill="currentColor" d="M64 512c-29.8 0-54.8-20.4-61.9-48l61.9 0 0 48zm104 0l-56 0 0-48 56 0 0 48zm104 0l-56 0 0-48 56 0 0 48zm109.9-48c-7.1 27.6-32.1 48-61.9 48l0-48 61.9 0zM48 416l-48 0 0-48 48 0 0 48zm336 0l-48 0 0-48 48 0 0 48zM213.5 0c17 0 33.2 6.8 45.2 18.8L365.3 125.2c12 12 18.7 28.3 18.7 45.2L384 320 0 320 0 64C0 28.7 28.7 0 64 0L213.5 0zM208 152c0 13.3 10.7 24 24 24l93.5 0-117.5-117.5 0 93.5z"/></svg>