<svg xmlns="http://www.w3.org/2000/svg" width="16" height="16" viewBox="0 0 16 16" id="praise-consumption-small" data-supported-dps="16x16">
  <defs>
    <mask id="reactions-praise-consumption-small-a" x="0" y="0" width="16" height="16" maskUnits="userSpaceOnUse">
      <path d="M8 1a7 7 0 017 7 7 7 0 01-7 7 7 7 0 01-7-7 7 7 0 017-7z" fill="#fff" fill-rule="evenodd"/>
    </mask>
  </defs>
  <g>
    <path d="M8 0a8 8 0 018 8 8 8 0 01-8 8 8 8 0 01-8-8 8 8 0 018-8z" fill="none"/>
    <g>
      <path d="M8 1a7 7 0 017 7 7 7 0 01-7 7 7 7 0 01-7-7 7 7 0 017-7z" fill="#d8d8d8"/>
    </g>
    <g mask="url(#reactions-praise-consumption-small-a)">
      <circle cx="8" cy="8" r="7" fill="#6dae4f"/>
      <path d="M8 1a7 7 0 11-7 7 7 7 0 017-7zm0-1a8 8 0 105.66 2.34A8 8 0 008 0z" fill="#fff"/>
      <path d="M12.13 9.22a9.19 9.19 0 00-.36-2.32A4.29 4.29 0 0110.44 5c-.16-.53-.27-.72-.74-.73a.74.74 0 00-.65.8c0 .24 0 .49.06.72a11.5 11.5 0 00.58 1.92l-4.5-3.38a.75.75 0 00-1.11.07.73.73 0 00.27 1L6.6 7.1l.59.56L3.62 5a.71.71 0 00-.75-.16.69.69 0 00-.46.61.71.71 0 00.36.67L5 7.77l1.35 1-2.9-2.19a.79.79 0 00-.57-.21.8.8 0 00-.54.28c-.31.4-.06.81.26 1.06L4.85 9.4l1.15.85-2.27-1.7a.74.74 0 00-1.09 0 .76.76 0 00.24 1.09l4.1 3c.6.45 2.07.84 2.72.27" fill="none" stroke="#165209" stroke-linecap="round" stroke-linejoin="round" stroke-width="1.5"/>
      <path d="M12.61 9.9l-.42-.37a6.69 6.69 0 00-.51-2.14A5.73 5.73 0 0110.47 5c-.16-.53-.27-.72-.74-.73a.74.74 0 00-.65.8c0 .24 0 .49.06.72a8.88 8.88 0 00.55 1.84l-.19-.1-4.31-3.31a.75.75 0 00-1.11.07.73.73 0 00-.1.59.71.71 0 00.37.47L6.55 7l.64.51-3.57-2.67a.74.74 0 00-.57-.21.77.77 0 00-.54.27.77.77 0 00-.1.59.74.74 0 00.36.51L5 7.66l1.35 1-2.9-2.18a.75.75 0 00-.57-.22.76.76 0 00-.54.28.73.73 0 00.26 1.06l2.25 1.69 1.15.85-2.27-1.69a.73.73 0 00-.54-.25.77.77 0 00-.55.25.74.74 0 00.24 1.08L7 12.64a2.68 2.68 0 002.08.51 1.15 1.15 0 001.41 0c.6-.46.41-.51.85-1.13a10.92 10.92 0 001.27-2.12z" fill="#dcf0cb" fill-rule="evenodd"/>
      <path d="M12.13 9.22a9.19 9.19 0 00-.36-2.32A4.29 4.29 0 0110.44 5c-.16-.53-.27-.72-.74-.73a.74.74 0 00-.65.8c0 .24 0 .49.06.72a11.5 11.5 0 00.58 1.92l-4.5-3.38a.75.75 0 00-1.11.07.73.73 0 00.27 1L6.6 7.1l.59.56L3.62 5a.71.71 0 00-.75-.16.69.69 0 00-.46.61.71.71 0 00.36.67L5 7.77l1.35 1-2.9-2.19a.79.79 0 00-.57-.21.8.8 0 00-.54.28c-.31.4-.06.81.26 1.06L4.85 9.4l1.15.85-2.27-1.7a.74.74 0 00-1.09 0 .76.76 0 00.24 1.09l4.1 3a4.48 4.48 0 002.72.62" fill="none" stroke="#165209" stroke-linecap="round" stroke-linejoin="round" stroke-width=".5"/>
      <path d="M14.77 11.39a2.23 2.23 0 01-.46-.75 3.65 3.65 0 00-.1-.65 2.39 2.39 0 00-.36-1.08 5.85 5.85 0 01-1.21-2.38c-.16-.53-.27-.72-.74-.73a.74.74 0 00-.5.26.73.73 0 00-.15.54 4.37 4.37 0 00.06.72c.18.92.37 1.68.39 1.73L7.41 5.84a.76.76 0 00-.57-.22.72.72 0 00-.54.29.73.73 0 00.26 1l2.25 1.7.68.56-3.6-2.71a.76.76 0 00-.57-.22A.71.71 0 005 7.58l2.25 1.7 1.35 1-2.89-2.19a.73.73 0 00-1.1.08c-.31.4-.07.81.26 1.06l2.25 1.68 1.12.85L6 10.06a.72.72 0 00-1 0 .7.7 0 00-.14.58.74.74 0 00.34.49l4 3a2.74 2.74 0 001.13.5l.58.09a2.48 2.48 0 01.87.29.83.83 0 00.6 0 3.87 3.87 0 001.77-1.29 3.8 3.8 0 00.7-2 1 1 0 000-.42z" fill="none" stroke="#165209" stroke-linecap="round" stroke-linejoin="round" stroke-width="1.5"/>
      <path d="M14.81 11.34l-.45-.34a6.57 6.57 0 00-.51-2.14 5.85 5.85 0 01-1.21-2.38c-.16-.53-.27-.72-.74-.73a.74.74 0 00-.5.26.73.73 0 00-.15.54 4.37 4.37 0 00.06.72c.18.93.37 1.69.39 1.73L7.41 5.79a.75.75 0 00-1.11.07c-.31.41-.06.81.26 1.06l2.25 1.69.68.56-3.6-2.76a.75.75 0 00-1.11.07c-.31.4-.06.81.26 1.06l2.25 1.69 1.35 1L5.71 8a.72.72 0 00-.57-.21.7.7 0 00-.53.28.72.72 0 00-.12.59.74.74 0 00.38.47l2.25 1.69 1.12.85L6 10a.7.7 0 00-1 0 .71.71 0 00-.16.6.72.72 0 00.36.51l4 3a4.23 4.23 0 002 .59 6.68 6.68 0 00.8.41 3.23 3.23 0 002-1.26 4.93 4.93 0 00.86-2.57z" fill="#ddf6d1" fill-rule="evenodd"/>
      <path d="M5.14 10.32c.57.43 4.43 3.43 4.89 3.59a2.18 2.18 0 001.47 0 1.6 1.6 0 00.5-.31" fill="none"/>
      <path d="M14.77 11.39a2.23 2.23 0 01-.46-.75 3.65 3.65 0 00-.1-.65 2.39 2.39 0 00-.36-1.08 5.85 5.85 0 01-1.21-2.38c-.16-.53-.27-.72-.74-.73a.74.74 0 00-.5.26.73.73 0 00-.15.54 4.37 4.37 0 00.06.72c.18.92.37 1.68.39 1.73L7.41 5.84a.76.76 0 00-.57-.22.72.72 0 00-.54.29.73.73 0 00.26 1l2.25 1.7.68.56-3.6-2.71a.76.76 0 00-.57-.22A.71.71 0 005 7.58l2.25 1.7 1.35 1-2.89-2.19a.73.73 0 00-1.1.08c-.31.4-.07.81.26 1.06l2.25 1.68 1.12.85L6 10.06a.72.72 0 00-1 0 .7.7 0 00-.14.58.74.74 0 00.34.49l4 3a2.74 2.74 0 001.13.5l.58.09a2.48 2.48 0 01.87.29.83.83 0 00.6 0 3.87 3.87 0 001.77-1.29 3.8 3.8 0 00.7-2 1 1 0 000-.42z" fill="none" stroke="#165209" stroke-linecap="round" stroke-linejoin="round" stroke-width=".5"/>
      <path d="M8.83 2.82l-.73.92" fill="none" stroke="#165209" stroke-linecap="round" stroke-linejoin="round"/>
      <path d="M5.49 1.62l.07 1.2" fill="none" stroke="#165209" stroke-linecap="round" stroke-linejoin="round"/>
      <path d="M7.54 1.63l-.65 1.56" fill="none" stroke="#165209" stroke-linecap="round" stroke-linejoin="round"/>
    </g>
  </g>
</svg>