<svg xmlns="http://www.w3.org/2000/svg" width="16" height="16" viewBox="0 0 16 16" id="empathy-consumption-small" data-supported-dps="16x16">
  <g>
    <path d="M8 0a8 8 0 018 8 8 8 0 01-8 8 8 8 0 01-8-8 8 8 0 018-8z" fill="none"/>
    <circle cx="8" cy="8" r="7" fill="#df704d"/>
    <path d="M7.71 5A2.64 2.64 0 004 8.75l4 4 4-4A2.64 2.64 0 0012 5a2.61 2.61 0 00-1.85-.77h0A2.57 2.57 0 008.3 5l-.3.3z" fill="#fff3f0" stroke="#77280c" fill-rule="evenodd"/>
    <path d="M11.43 5.18a2 2 0 01.53.63c.9 1.67-.6 2.72-1.54 3.67-.6.61-1.22 1.22-1.85 1.8M5.79 4.81a2.1 2.1 0 00-.79.11 1.8 1.8 0 00-1 .82A2.6 2.6 0 003.77 7v.09" fill="none"/>
    <path d="M7.71 5A2.6 2.6 0 004 5a2.66 2.66 0 000 3.7l4 4 4-4A2.66 2.66 0 0012 5a2.58 2.58 0 00-1.85-.78h0A2.58 2.58 0 008.3 5l-.3.25z" fill="none" stroke="#77280c" stroke-linecap="round" stroke-linejoin="round"/>
  </g>
</svg>
