<svg xmlns="http://www.w3.org/2000/svg" width="16" height="16" viewBox="0 0 16 16" id="interest-consumption-ring-small" data-supported-dps="16x16">
  <g>
    <circle cx="8" cy="8" r="7.5" fill="#f5bb5c"/>
    <path d="M8 1a7 7 0 11-7 7 7 7 0 017-7zm0-1a8 8 0 105.66 2.34A8 8 0 008 0z" fill="#fff"/>
    <path d="M8.82 13.4h-1.6a.54.54 0 01-.54-.54v-1.33h2.68v1.33a.54.54 0 01-.54.54z" fill="#ffe1b2" fill-rule="evenodd"/>
    <path d="M6.69 11.79v-.26a3.08 3.08 0 00-.16-1A3.46 3.46 0 006 9.75a3.24 3.24 0 01-1.19-2.49 3.21 3.21 0 016.42 0A3.38 3.38 0 0110 9.8c.07-.05-.08.06-.18.2a1.71 1.71 0 00-.23.47 3.37 3.37 0 00-.15 1v.26" fill="#fcf0de" fill-rule="evenodd"/>
    <path d="M7.46 4.78a2.21 2.21 0 00-1.22.65 2.43 2.43 0 00-.68 1.22" fill="none" stroke="#fff" stroke-linecap="round" stroke-linejoin="round" stroke-width="2"/>
    <path d="M8.82 13.4h-1.6a.54.54 0 01-.54-.54v-1.33h2.68v1.33a.54.54 0 01-.54.54z" fill="none" stroke="#5d3b01" stroke-linecap="round" stroke-linejoin="round"/>
    <path d="M6.68 11.79v-.26a3.37 3.37 0 00-.15-1 2 2 0 00-.26-.47 2.54 2.54 0 00-.37-.43 3.41 3.41 0 01-.37-.39 3.16 3.16 0 01-.72-2h0a3.21 3.21 0 016.42 0 3.25 3.25 0 01-.73 2 3.84 3.84 0 01-.57.57l-.2.21a1.68 1.68 0 00-.22.47 3.37 3.37 0 00-.15 1v.26M4.6 2.64l.61.79M11.42 2.63l-.61.8M8 1.5v1.26" fill="none" stroke="#5d3b01" stroke-linecap="round" stroke-linejoin="round"/>
  </g>
</svg>
