<?xml version="1.0" encoding="UTF-8"?>
<svg id="Layer_1" data-name="Layer 1" xmlns="http://www.w3.org/2000/svg" width="16" height="16" viewBox="0 0 16 16">
  <circle cx="8" cy="8" r="7.5" style="fill: #44bfd3; stroke: #fff;"/>
  <circle cx="8" cy="8" r="5" style="fill: #d5f9fe; stroke: #104e58;"/>
  <path d="M10.1,8.6H5.9c-.29,0-.5,.26-.41,.52,.33,.94,.98,2.18,2.51,2.18s2.18-1.24,2.51-2.18c.09-.26-.12-.52-.41-.52Z" style="fill: #2199ac;"/>
  <path d="M8,9.8c-.79,0-2,.5-1.5,1,.5,.5,.98,.49,1.5,.5,.45,.01,1,0,1.5-.5,.5-.5-.74-1-1.5-1Z" style="fill: #d5f9fe;"/>
  <path d="M10.12,8.3H5.88c-.47,0-.83,.47-.66,.93,.15,.4,.38,.96,.81,1.43,.44,.48,1.08,.84,1.97,.84s1.52-.36,1.97-.84c.43-.46,.66-1.02,.81-1.43,.17-.47-.18-.93-.66-.93Zm-2.12,2.7c-1.47,0-2.03-1.16-2.31-1.94-.05-.13,.05-.26,.19-.26h4.24c.14,0,.23,.13,.19,.26-.28,.77-.84,1.94-2.31,1.94Z" style="fill: #104e58;"/>
  <path d="M4.87,6.63l-.07,.1,.32,.37,.14-.08c.57-.32,1.24-.42,1.88-.28l.2-.44c-.78-.58-1.88-.43-2.47,.34Z" style="fill: #104e58;"/>
  <path d="M11.19,6.88h0l.2-.15-.07-.1c-.59-.77-1.69-.92-2.47-.34l.15,.2h0l-.15-.2,.2,.44c.64-.13,1.31-.03,1.88,.28l.14,.08,.32-.37-.2,.15Z" style="fill: #104e58;"/>
</svg>