<?xml version="1.0" encoding="utf-8"?>
<!-- Generator: Adobe Illustrator 27.0.0, SVG Export Plug-In . SVG Version: 6.00 Build 0)  -->
<svg version="1.1" id="Layer_1" xmlns="http://www.w3.org/2000/svg" xmlns:xlink="http://www.w3.org/1999/xlink" x="0px" y="0px"
	 viewBox="0 0 835.9 835.9" style="enable-background:new 0 0 835.9 835.9;" xml:space="preserve">
<style type="text/css">
	.st0{fill:#FFF;}
</style>
<g id="Layer_2">
</g>
<g transform="translate(0.000000,680.000000) scale(0.100000,-0.100000)">
	<path class="st0" d="M4657.9,6523c-80.8-129.9-121.8-387.6-111.5-693.7c13.3-377.6,59.4-712.9,119.7-858.9
		c13.3-35.2,21.5-67.5,16.4-72.5c-25.6-25.2-74.7-347.4-77.8-507.5c-4.1-281.9,33.8-460.1,138.1-643.4
		c101.3-174.2,177-232.6,621.1-474.2c729.6-395.7,967-456.1,1309.8-338.3c221,76.5,496.3,216.5,956.8,484.3
		c251.7,145,360.2,237.6,450.2,384.6c67.5,110.8,130,295,151.4,451.1c27.6,206.4,7.2,520.5-44,675.6c-9.2,31.2-11.3,63.4-2,72.5
		c42,41.3,114.6,366.5,147.4,664.5c54.2,480.3,20.5,813.5-95.2,957.5c-58.3,71.5-103.4,81.6-218,43.3
		c-205.7-67.5-358.2-181.2-716.3-531.6l-284.5-277.9l-124.8,42.3c-344.8,117.8-508.6,115.8-867.7-8.1
		c-169.9-58.4-174-58.4-196.5-24.2c-40.9,64.4-443.1,454.1-557.7,540.7c-180.1,136.9-371.5,228.6-467.6,224.5
		C4758.2,6629.8,4694.8,6583.5,4657.9,6523z"/>
	<path class="st0" d="M3566.6,6688.9c-191.4-13.1-486.1-220.5-861.6-606.1l-223.1-229.6l-43,20.1c-23.5,11.1-110.5,40.3-193.4,63.4
		c-266.1,76.5-484,61.4-780.8-51.4l-140.2-53.4l-105.4,113.8C1064.7,6112,815,6347.6,713.7,6423.1
		c-169.9,124.9-358.2,211.4-451.3,206.4c-140.2-7-244.6-246.7-259.9-600.1c-14.3-326.2,34.8-829.7,100.3-1018.9
		c30.7-88.6,31.7-109.7,6.1-209.4c-59.4-229.6-72.7-556.8-29.7-762.2c44-208.4,150.4-397.7,286.5-507.5
		c144.3-115.8,857.5-491.3,1108.2-583c266.1-98.7,417.5-100.7,672.3-11.1c211.8,73.5,760.3,361.5,1114.4,585
		c367.4,230.6,526,769.2,399.1,1349.2c-20.5,94.6-19.4,117.8,15.3,210.4c102.3,273.9,175,979.7,128.9,1252.5
		c-25.6,148-67.5,255.7-123.8,311.1C3638.2,6686.9,3623.9,6693,3566.6,6688.9z"/>
	<path class="st0" d="M4943.9-815.5c103.4-71.5,643.6-361.5,874.9-468.2c190.3-88.6,414.4-154.1,538.3-157.1
		c231.3-6,566.9,136.9,1266.8,541.7c321.3,185.3,457.4,333.3,544.4,592c73.7,221.5,90,584,35.8,834.7
		c-25.6,123.8-24.6,136.9,14.3,249.7c72.7,206.4,151.4,809.5,139.2,1067.3c-14.3,302.1-96.2,507.5-210.8,527.6
		c-167.8,28.2-531.1-218.5-922-627.3l-198.5-209.4l-115.6,41.3c-254.8,89.6-425.7,110.8-605.8,76.5
		c-101.3-19.1-401.1-114.8-420.6-133.9c-8.2-8.1-83.9,62.4-253.8,235.6c-267.1,268.8-398.1,377.6-564.9,469.2
		c-212.8,114.8-319.3,112.8-397-6c-93.1-142-131-350.4-123.8-693.7c6.1-380.6,65.5-805.5,125.9-905.2c11.3-17.1,13.3-43.3,5.1-57.4
		c-31.7-59.4-75.7-330.3-79.8-491.3c-7.2-274.9,39.9-480.3,152.5-669.6C4802.7-688.6,4873.3-766.2,4943.9-815.5z"/>
	<path class="st0" d="M3480.6-597.2c79.8,104.7,143.3,239.6,183.2,391.7c45,175.2,46,540.7,1,736c-18.4,78.5-26.6,149-19.4,156.1
		c40.9,46.3,109.5,355.4,144.3,649.4c69.6,604.1-8.2,1014.9-196.5,1037.1c-170.9,21.1-523.9-221.5-905.6-621.2L2484,1539.4
		l-125.9,43.3c-344.8,119.8-558.7,116.8-897.4-11.1c-77.8-28.2-144.3-47.3-148.4-41.3c-27.6,41.3-404.2,417.8-495.3,493.4
		c-209.8,174.2-401.1,279.9-529,289c-66.5,5-75.7,2-125.9-49.3C53.6,2154.6-5.7,1906.9,0.4,1576.6C6.6,1194,48.5,850.7,110.9,680.5
		c18.4-52.4,30.7-96.7,25.6-101.7c-18.4-18.1-70.6-315.1-78.8-452.1C43.4-137,96.6-406.9,200-579.1
		c99.3-166.1,221-255.7,677.4-497.4c514.7-272.9,759.3-364.5,976.2-364.5c222.1,1,684.6,206.4,1300.6,581
		C3343.5-744.2,3404.9-695.9,3480.6-597.2z"/>
</g>
</svg>
