<?xml version="1.0" encoding="UTF-8" standalone="no"?><!DOCTYPE svg PUBLIC "-//W3C//DTD SVG 1.1//EN" "http://www.w3.org/Graphics/SVG/1.1/DTD/svg11.dtd"><svg width="220" height="40" viewBox="0 0 466 168" version="1.1" xmlns="http://www.w3.org/2000/svg" xmlns:xlink="http://www.w3.org/1999/xlink" xml:space="preserve" style="fill-rule:evenodd;clip-rule:evenodd;stroke-linejoin:round;stroke-miterlimit:1.41421;"><g><path d="M75.718,96.982c-12.197,0 -22.121,-10.102 -22.121,-22.52c0,-12.42 9.924,-22.521 22.121,-22.521c12.197,0 22.122,10.102 22.122,22.521c0,12.419 -9.925,22.52 -22.122,22.52m0,-52.932c-16.47,0 -29.87,13.642 -29.87,30.412c0,16.768 13.4,30.409 29.87,30.409c16.47,0 29.868,-13.641 29.868,-30.409c0,-16.77 -13.399,-30.412 -29.868,-30.412" style="fill:#fff;fill-rule:nonzero;"/><path d="M133.39,96.476l-9.135,0l0,-44.07l9.135,0c12.153,0 22.038,9.883 22.038,22.035c0,12.151 -9.884,22.035 -22.038,22.035m0,-51.342l-16.233,0c-0.095,0 -0.171,0.079 -0.171,0.174l0,58.264c0,0.098 0.076,0.174 0.171,0.174l16.233,0c16.16,0 29.307,-13.146 29.307,-29.304c0,-16.16 -13.146,-29.308 -29.307,-29.308" style="fill:#fff;fill-rule:nonzero;"/><path d="M256.405,87.435c-0.076,-0.059 -0.182,-0.039 -0.234,0.037c-3.834,5.512 -9.765,8.877 -16.275,9.232c-5.719,0.314 -11.22,-1.723 -15.487,-5.732c-4.269,-4.012 -6.246,-9.506 -6.544,-15.476c-0.3,-5.976 1.114,-11.719 4.952,-16.166c3.84,-4.447 9.108,-7.069 14.838,-7.38c7.14,-0.391 13.971,2.938 18.28,8.897c0.029,0.037 0.066,0.061 0.112,0.068c0.043,0.007 0.088,-0.006 0.125,-0.034l5.386,-4.24c0.075,-0.06 0.09,-0.17 0.034,-0.247c-5.73,-7.921 -14.82,-12.342 -24.309,-11.829c-15.728,0.86 -27.854,14.909 -27.032,31.317c0.398,7.95 3.74,15.261 9.409,20.587c5.255,4.939 12.033,7.66 19.082,7.66c0.506,0 1.019,-0.014 1.525,-0.043c8.656,-0.471 16.544,-4.945 21.64,-12.273c0.026,-0.037 0.035,-0.084 0.03,-0.131c-0.008,-0.047 -0.032,-0.088 -0.068,-0.115l-5.464,-4.132Z" style="fill:#fff;fill-rule:nonzero;"/><path d="M210.58,45.177c-0.032,-0.056 -0.091,-0.093 -0.156,-0.093l-8.556,0c-0.054,0 -0.105,0.024 -0.138,0.071l-14.586,20.103l-14.594,-20.103c-0.036,-0.047 -0.086,-0.071 -0.142,-0.071l-8.555,0c-0.065,0 -0.126,0.037 -0.156,0.093c-0.028,0.058 -0.023,0.128 0.013,0.181l19.453,26.922l0,31.294c0,0.096 0.078,0.174 0.173,0.174l7.615,0c0.097,0 0.174,-0.078 0.174,-0.174l0,-31.294l19.44,-26.922c0.04,-0.053 0.044,-0.123 0.015,-0.181" style="fill:#fff;fill-rule:nonzero;"/><path d="M313.17,87.435c-0.078,-0.059 -0.184,-0.039 -0.236,0.037c-3.857,5.512 -9.824,8.877 -16.371,9.232c-5.767,0.312 -11.306,-1.725 -15.59,-5.727c-4.289,-4.006 -6.279,-9.504 -6.584,-15.482c-0.3,-5.976 1.125,-11.719 4.988,-16.166c3.863,-4.447 9.165,-7.069 14.927,-7.38c7.18,-0.391 14.058,2.938 18.392,8.897c0.058,0.076 0.163,0.094 0.241,0.034l5.418,-4.24c0.075,-0.06 0.089,-0.17 0.033,-0.247c-5.765,-7.921 -14.908,-12.342 -24.457,-11.829c-7.663,0.416 -14.715,3.901 -19.851,9.817c-5.138,5.915 -7.745,13.552 -7.343,21.5c0.4,7.95 3.761,15.261 9.465,20.587c5.287,4.939 12.104,7.66 19.195,7.66c0.511,0 1.026,-0.014 1.536,-0.043c8.71,-0.471 16.643,-4.945 21.77,-12.273c0.024,-0.037 0.037,-0.084 0.029,-0.131c-0.008,-0.047 -0.029,-0.088 -0.068,-0.115l-5.494,-4.131Z" style="fill:#fff;fill-rule:nonzero;"/><path d="M361.429,45.193l-32.329,0c-0.098,0 -0.176,0.078 -0.176,0.174l0,57.874c0,0.096 0.078,0.174 0.176,0.174l33.936,0c0.095,0 0.171,-0.078 0.171,-0.174l0,-6.924c0,-0.096 -0.076,-0.174 -0.171,-0.174l-26.838,0l0,-18.067l20.035,0c0.1,0 0.176,-0.076 0.176,-0.171l0,-6.925c0,-0.097 -0.076,-0.175 -0.176,-0.175l-20.035,0l0,-18.341l25.231,0c0.095,0 0.171,-0.079 0.171,-0.174l0,-6.924c-0.001,-0.095 -0.077,-0.173 -0.171,-0.173" style="fill:#fff;fill-rule:nonzero;"/><path d="M415.989,45.238l-6.927,0c-0.094,0 -0.173,0.08 -0.173,0.175l0,34.235c0,10.637 -5.086,16.495 -14.327,16.495c-9.236,0 -14.326,-5.857 -14.326,-16.495l0,-34.236c0,-0.095 -0.076,-0.175 -0.171,-0.175l-6.926,0c-0.095,0 -0.174,0.08 -0.174,0.175l0,34.235c0,7.702 2.13,13.741 6.324,17.948c3.792,3.805 9.076,5.818 15.272,5.818c6.201,0 11.481,-2.014 15.278,-5.818c4.192,-4.207 6.319,-10.246 6.319,-17.948l0,-34.235c0.002,-0.094 -0.074,-0.174 -0.169,-0.174" style="fill:#fff;fill-rule:nonzero;"/><path d="M447.719,69.745c-8.446,-2.922 -12.424,-4.795 -12.418,-9.325c0.008,-5.089 4.983,-9.229 11.093,-9.229c5.596,0 10.325,3.478 11.009,8.092c0.005,0.035 0.022,0.065 0.048,0.087c0.031,0.021 0.067,0.029 0.104,0.024l6.894,-0.957c0.032,-0.006 0.066,-0.022 0.087,-0.051c0.021,-0.026 0.032,-0.062 0.028,-0.095c-1.188,-8.048 -8.998,-14.114 -18.169,-14.114c-10.091,0 -18.233,7.281 -18.325,16.233c-0.107,10.451 9.09,13.707 17.223,15.942c8.479,2.331 13.39,4.924 13.39,10.665c0,4.449 -1.292,10.365 -12.445,10.365c-3.761,0 -7.05,-1.254 -9.27,-3.527c-2.323,-2.389 -3.42,-5.844 -3.18,-9.994c0.005,-0.071 -0.051,-0.134 -0.126,-0.138l-6.953,-0.383c-0.032,0 -0.071,0.01 -0.096,0.031c-0.025,0.023 -0.045,0.056 -0.047,0.089c-0.357,6.125 1.422,11.386 5.146,15.212c3.595,3.691 8.753,5.725 14.524,5.725c12.506,0 19.677,-6.334 19.677,-17.381c-0.001,-10.978 -10.087,-14.468 -18.194,-17.271" style="fill:#fff;fill-rule:nonzero;"/><path d="M122.969,134.026l-4.91,3.449l-27.166,-38.671l4.91,-3.449l27.166,38.671Z" style="fill:#fff;"/><path d="M57.919,89.326l-33.642,21.378l-3.218,-5.064l33.642,-21.378l3.218,5.064Z" style="fill:#fff;"/><path d="M44.497,40.017c7.633,0 13.823,-6.19 13.823,-13.822c0,-7.635 -6.189,-13.825 -13.823,-13.825c-7.634,0 -13.821,6.19 -13.821,13.825c0,7.632 6.188,13.822 13.821,13.822" style="fill:#fff;fill-rule:nonzero;"/><g><circle cx="44.497" cy="26.193" r="13.824" style="fill:#fff;"/><path d="M44.714,9.371l0.216,0.004l0.215,0.007l0.215,0.009l0.215,0.012l0.213,0.015l0.213,0.018l0.212,0.02l0.212,0.023l0.211,0.025l0.21,0.028l0.209,0.031l0.209,0.033l0.207,0.036l0.207,0.039l0.206,0.04l0.205,0.044l0.204,0.046l0.203,0.048l0.203,0.051l0.201,0.053l0.2,0.055l0.2,0.058l0.198,0.061l0.197,0.063l0.196,0.065l0.196,0.067l0.194,0.07l0.193,0.072l0.191,0.074l0.191,0.077l0.189,0.079l0.189,0.081l0.187,0.083l0.186,0.085l0.184,0.088l0.184,0.09l0.182,0.092l0.181,0.094l0.179,0.096l0.178,0.098l0.177,0.101l0.176,0.102l0.174,0.104l0.172,0.107l0.172,0.108l0.17,0.111l0.168,0.112l0.167,0.114l0.166,0.117l0.164,0.118l0.162,0.12l0.161,0.122l0.16,0.124l0.158,0.125l0.156,0.128l0.155,0.129l0.153,0.132l0.152,0.133l0.15,0.134l0.149,0.137l0.146,0.138l0.145,0.14l0.144,0.142l0.142,0.143l0.14,0.145l0.138,0.147l0.136,0.148l0.135,0.151l0.133,0.151l0.131,0.153l0.13,0.155l0.127,0.157l0.126,0.158l0.124,0.159l0.122,0.161l0.12,0.163l0.118,0.164l0.116,0.166l0.115,0.167l0.112,0.168l0.11,0.17l0.109,0.171l0.106,0.173l0.105,0.174l0.102,0.176l0.1,0.176l0.099,0.179l0.096,0.179l0.094,0.181l0.092,0.182l0.09,0.183l0.087,0.185l0.086,0.186l0.083,0.187l0.081,0.188l0.079,0.19l0.076,0.19l0.075,0.192l0.072,0.193l0.07,0.194l0.067,0.195l0.065,0.196l0.063,0.198l0.06,0.198l0.058,0.199l0.056,0.201l0.053,0.201l0.051,0.202l0.048,0.203l0.046,0.205l0.043,0.205l0.041,0.206l0.038,0.206l0.036,0.208l0.033,0.209l0.031,0.209l0.028,0.21l0.026,0.211l0.023,0.211l0.02,0.212l0.017,0.213l0.015,0.214l0.013,0.214l0.009,0.215l0.007,0.216l0.004,0.216l0.001,0.216l-0.001,0.217l-0.004,0.216l-0.007,0.215l-0.009,0.215l-0.013,0.215l-0.015,0.213l-0.017,0.213l-0.02,0.212l-0.023,0.212l-0.026,0.211l-0.028,0.21l-0.031,0.209l-0.033,0.209l-0.036,0.207l-0.038,0.207l-0.041,0.206l-0.043,0.205l-0.046,0.204l-0.048,0.203l-0.051,0.203l-0.053,0.201l-0.056,0.2l-0.058,0.2l-0.06,0.198l-0.063,0.197l-0.065,0.196l-0.067,0.196l-0.07,0.194l-0.072,0.193l-0.075,0.191l-0.076,0.191l-0.079,0.189l-0.081,0.189l-0.083,0.187l-0.086,0.186l-0.087,0.184l-0.09,0.184l-0.092,0.182l-0.094,0.181l-0.096,0.179l-0.099,0.178l-0.1,0.177l-0.102,0.176l-0.105,0.174l-0.106,0.172l-0.109,0.172l-0.11,0.17l-0.112,0.168l-0.115,0.167l-0.116,0.166l-0.118,0.164l-0.12,0.162l-0.122,0.161l-0.124,0.16l-0.126,0.158l-0.127,0.156l-0.13,0.155l-0.131,0.153l-0.133,0.152l-0.135,0.15l-0.136,0.149l-0.138,0.146l-0.14,0.145l-0.142,0.144l-0.144,0.142l-0.145,0.14l-0.146,0.138l-0.149,0.136l-0.15,0.135l-0.152,0.133l-0.153,0.131l-0.155,0.13l-0.156,0.127l-0.158,0.126l-0.16,0.124l-0.161,0.122l-0.162,0.12l-0.164,0.118l-0.166,0.116l-0.167,0.115l-0.168,0.112l-0.17,0.11l-0.172,0.109l-0.172,0.106l-0.174,0.105l-0.176,0.102l-0.177,0.1l-0.178,0.099l-0.179,0.096l-0.181,0.094l-0.182,0.092l-0.184,0.09l-0.184,0.087l-0.186,0.086l-0.187,0.083l-0.189,0.081l-0.189,0.079l-0.191,0.076l-0.191,0.075l-0.193,0.072l-0.194,0.07l-0.196,0.067l-0.196,0.065l-0.197,0.063l-0.198,0.06l-0.2,0.058l-0.2,0.056l-0.201,0.053l-0.203,0.051l-0.203,0.048l-0.204,0.046l-0.205,0.043l-0.206,0.041l-0.207,0.038l-0.207,0.036l-0.209,0.033l-0.209,0.031l-0.21,0.028l-0.211,0.026l-0.212,0.023l-0.212,0.02l-0.213,0.017l-0.213,0.015l-0.215,0.013l-0.215,0.009l-0.215,0.007l-0.216,0.004l-0.217,0.001l-0.216,-0.001l-0.216,-0.004l-0.216,-0.007l-0.215,-0.009l-0.214,-0.013l-0.214,-0.015l-0.213,-0.017l-0.212,-0.02l-0.211,-0.023l-0.211,-0.026l-0.21,-0.028l-0.209,-0.031l-0.209,-0.033l-0.208,-0.036l-0.206,-0.038l-0.206,-0.041l-0.205,-0.043l-0.205,-0.046l-0.203,-0.048l-0.202,-0.051l-0.201,-0.053l-0.201,-0.056l-0.199,-0.058l-0.198,-0.06l-0.198,-0.063l-0.196,-0.065l-0.195,-0.067l-0.194,-0.07l-0.193,-0.072l-0.192,-0.075l-0.19,-0.076l-0.19,-0.079l-0.188,-0.081l-0.187,-0.083l-0.186,-0.086l-0.185,-0.087l-0.183,-0.09l-0.182,-0.092l-0.181,-0.094l-0.179,-0.096l-0.179,-0.099l-0.176,-0.1l-0.176,-0.102l-0.174,-0.105l-0.173,-0.106l-0.171,-0.109l-0.17,-0.11l-0.168,-0.112l-0.167,-0.115l-0.166,-0.116l-0.164,-0.118l-0.163,-0.12l-0.161,-0.122l-0.159,-0.124l-0.158,-0.126l-0.157,-0.127l-0.155,-0.13l-0.153,-0.131l-0.151,-0.133l-0.151,-0.135l-0.148,-0.136l-0.147,-0.138l-0.145,-0.14l-0.143,-0.142l-0.142,-0.144l-0.14,-0.145l-0.138,-0.146l-0.137,-0.149l-0.134,-0.15l-0.133,-0.152l-0.132,-0.153l-0.129,-0.155l-0.128,-0.156l-0.125,-0.158l-0.124,-0.16l-0.122,-0.161l-0.12,-0.162l-0.118,-0.164l-0.117,-0.166l-0.114,-0.167l-0.112,-0.168l-0.111,-0.17l-0.108,-0.172l-0.107,-0.172l-0.104,-0.174l-0.102,-0.176l-0.101,-0.177l-0.098,-0.178l-0.096,-0.179l-0.094,-0.181l-0.092,-0.182l-0.09,-0.184l-0.088,-0.184l-0.085,-0.186l-0.083,-0.187l-0.081,-0.189l-0.079,-0.189l-0.077,-0.191l-0.074,-0.191l-0.072,-0.193l-0.07,-0.194l-0.067,-0.196l-0.065,-0.196l-0.063,-0.197l-0.061,-0.198l-0.058,-0.2l-0.055,-0.2l-0.053,-0.201l-0.051,-0.203l-0.048,-0.203l-0.046,-0.204l-0.044,-0.205l-0.04,-0.206l-0.039,-0.207l-0.036,-0.207l-0.033,-0.209l-0.031,-0.209l-0.028,-0.21l-0.025,-0.211l-0.023,-0.212l-0.02,-0.212l-0.018,-0.213l-0.015,-0.213l-0.012,-0.215l-0.009,-0.215l-0.007,-0.215l-0.004,-0.216l-0.002,-0.217l0.002,-0.216l0.004,-0.216l0.007,-0.216l0.009,-0.215l0.012,-0.214l0.015,-0.214l0.018,-0.212l0.02,-0.213l0.023,-0.211l0.025,-0.211l0.028,-0.21l0.031,-0.209l0.033,-0.209l0.036,-0.208l0.039,-0.206l0.04,-0.206l0.044,-0.205l0.046,-0.205l0.048,-0.203l0.051,-0.202l0.053,-0.201l0.055,-0.201l0.058,-0.199l0.061,-0.198l0.063,-0.198l0.065,-0.196l0.067,-0.195l0.07,-0.194l0.072,-0.193l0.074,-0.192l0.077,-0.19l0.079,-0.19l0.081,-0.188l0.083,-0.187l0.085,-0.186l0.088,-0.185l0.09,-0.183l0.092,-0.182l0.094,-0.181l0.096,-0.179l0.098,-0.179l0.101,-0.176l0.102,-0.176l0.104,-0.174l0.107,-0.173l0.108,-0.171l0.111,-0.17l0.112,-0.168l0.114,-0.167l0.117,-0.166l0.118,-0.164l0.12,-0.163l0.122,-0.161l0.124,-0.159l0.125,-0.158l0.128,-0.157l0.129,-0.155l0.132,-0.153l0.133,-0.151l0.134,-0.151l0.137,-0.148l0.138,-0.147l0.14,-0.145l0.142,-0.143l0.143,-0.142l0.145,-0.14l0.147,-0.138l0.148,-0.137l0.151,-0.134l0.151,-0.133l0.153,-0.132l0.155,-0.129l0.157,-0.128l0.158,-0.125l0.159,-0.124l0.161,-0.122l0.163,-0.12l0.164,-0.118l0.166,-0.117l0.167,-0.114l0.168,-0.112l0.17,-0.111l0.171,-0.108l0.173,-0.107l0.174,-0.104l0.176,-0.102l0.176,-0.101l0.179,-0.098l0.179,-0.096l0.181,-0.094l0.182,-0.092l0.183,-0.09l0.185,-0.088l0.186,-0.085l0.187,-0.083l0.188,-0.081l0.19,-0.079l0.19,-0.077l0.192,-0.074l0.193,-0.072l0.194,-0.07l0.195,-0.067l0.196,-0.065l0.198,-0.063l0.198,-0.061l0.199,-0.058l0.201,-0.055l0.201,-0.053l0.202,-0.051l0.203,-0.048l0.205,-0.046l0.205,-0.044l0.206,-0.04l0.206,-0.039l0.208,-0.036l0.209,-0.033l0.209,-0.031l0.21,-0.028l0.211,-0.025l0.211,-0.023l0.212,-0.02l0.213,-0.018l0.214,-0.015l0.214,-0.012l0.215,-0.009l0.216,-0.007l0.216,-0.004l0.216,-0.002l0.217,0.002Zm-0.357,5.999l-0.14,0.003l-0.14,0.004l-0.139,0.007l-0.138,0.007l-0.138,0.01l-0.137,0.011l-0.137,0.013l-0.136,0.015l-0.136,0.017l-0.135,0.018l-0.134,0.019l-0.134,0.022l-0.133,0.023l-0.133,0.024l-0.132,0.026l-0.132,0.028l-0.131,0.03l-0.13,0.031l-0.13,0.032l-0.129,0.034l-0.128,0.036l-0.128,0.037l-0.127,0.039l-0.126,0.04l-0.126,0.042l-0.125,0.043l-0.125,0.045l-0.123,0.046l-0.123,0.047l-0.123,0.05l-0.121,0.05l-0.121,0.052l-0.12,0.054l-0.119,0.054l-0.119,0.057l-0.118,0.057l-0.117,0.059l-0.116,0.061l-0.115,0.062l-0.115,0.063l-0.113,0.064l-0.113,0.066l-0.112,0.067l-0.111,0.069l-0.111,0.07l-0.109,0.071l-0.109,0.072l-0.107,0.074l-0.107,0.075l-0.106,0.076l-0.105,0.077l-0.103,0.079l-0.103,0.08l-0.102,0.081l-0.101,0.082l-0.1,0.084l-0.099,0.085l-0.098,0.085l-0.097,0.087l-0.095,0.088l-0.095,0.09l-0.094,0.09l-0.092,0.092l-0.092,0.092l-0.09,0.094l-0.09,0.095l-0.088,0.095l-0.087,0.097l-0.085,0.098l-0.085,0.099l-0.084,0.1l-0.082,0.101l-0.081,0.102l-0.08,0.103l-0.079,0.103l-0.077,0.105l-0.076,0.106l-0.075,0.107l-0.074,0.107l-0.072,0.109l-0.071,0.109l-0.07,0.111l-0.069,0.111l-0.067,0.112l-0.066,0.113l-0.064,0.113l-0.063,0.115l-0.062,0.115l-0.061,0.116l-0.059,0.117l-0.057,0.118l-0.057,0.119l-0.054,0.119l-0.054,0.12l-0.052,0.121l-0.05,0.121l-0.05,0.123l-0.047,0.123l-0.046,0.123l-0.045,0.125l-0.043,0.125l-0.042,0.126l-0.04,0.126l-0.039,0.127l-0.037,0.128l-0.036,0.128l-0.034,0.129l-0.032,0.13l-0.031,0.13l-0.03,0.131l-0.028,0.132l-0.026,0.132l-0.024,0.133l-0.023,0.133l-0.022,0.134l-0.019,0.134l-0.018,0.135l-0.017,0.136l-0.015,0.136l-0.013,0.137l-0.011,0.137l-0.01,0.138l-0.007,0.138l-0.007,0.139l-0.004,0.14l-0.003,0.14l-0.001,0.14l0.001,0.141l0.003,0.14l0.004,0.139l0.007,0.139l0.007,0.139l0.01,0.137l0.011,0.138l0.013,0.136l0.015,0.137l0.017,0.135l0.018,0.135l0.019,0.135l0.022,0.134l0.023,0.133l0.024,0.133l0.026,0.132l0.028,0.131l0.03,0.131l0.031,0.131l0.032,0.129l0.034,0.129l0.036,0.129l0.037,0.127l0.039,0.128l0.04,0.126l0.042,0.126l0.043,0.125l0.045,0.124l0.046,0.124l0.047,0.123l0.05,0.122l0.05,0.122l0.052,0.121l0.054,0.12l0.054,0.119l0.057,0.118l0.057,0.118l0.059,0.117l0.061,0.116l0.062,0.116l0.063,0.114l0.064,0.114l0.066,0.113l0.067,0.112l0.069,0.111l0.07,0.11l0.071,0.11l0.072,0.108l0.074,0.108l0.075,0.107l0.076,0.105l0.077,0.105l0.079,0.104l0.08,0.103l0.081,0.102l0.082,0.101l0.084,0.1l0.085,0.099l0.085,0.097l0.087,0.097l0.088,0.096l0.09,0.095l0.09,0.094l0.092,0.092l0.092,0.092l0.094,0.09l0.095,0.089l0.095,0.088l0.097,0.087l0.098,0.086l0.099,0.085l0.1,0.083l0.101,0.083l0.102,0.081l0.103,0.08l0.103,0.078l0.105,0.078l0.106,0.076l0.107,0.075l0.107,0.073l0.109,0.073l0.109,0.071l0.111,0.07l0.111,0.068l0.112,0.067l0.113,0.066l0.113,0.065l0.115,0.063l0.115,0.062l0.116,0.06l0.117,0.059l0.118,0.058l0.119,0.056l0.119,0.055l0.12,0.053l0.121,0.052l0.121,0.051l0.123,0.049l0.123,0.048l0.123,0.046l0.125,0.045l0.125,0.043l0.126,0.042l0.126,0.04l0.127,0.039l0.128,0.037l0.128,0.035l0.129,0.035l0.13,0.032l0.13,0.031l0.131,0.029l0.132,0.028l0.132,0.026l0.133,0.025l0.133,0.023l0.134,0.021l0.134,0.02l0.135,0.018l0.136,0.016l0.136,0.015l0.137,0.013l0.137,0.012l0.138,0.009l0.138,0.008l0.139,0.006l0.14,0.005l0.14,0.002l0.14,0.001l0.141,-0.001l0.14,-0.002l0.139,-0.005l0.139,-0.006l0.139,-0.008l0.137,-0.009l0.138,-0.012l0.136,-0.013l0.137,-0.015l0.135,-0.016l0.135,-0.018l0.135,-0.02l0.134,-0.021l0.133,-0.023l0.133,-0.025l0.132,-0.026l0.131,-0.028l0.131,-0.029l0.131,-0.031l0.129,-0.032l0.129,-0.035l0.129,-0.035l0.127,-0.037l0.128,-0.039l0.126,-0.04l0.126,-0.042l0.125,-0.043l0.124,-0.045l0.124,-0.046l0.123,-0.048l0.122,-0.049l0.122,-0.051l0.121,-0.052l0.12,-0.053l0.119,-0.055l0.118,-0.056l0.118,-0.058l0.117,-0.059l0.116,-0.06l0.116,-0.062l0.114,-0.063l0.114,-0.065l0.113,-0.066l0.112,-0.067l0.111,-0.068l0.11,-0.07l0.11,-0.071l0.108,-0.073l0.108,-0.073l0.107,-0.075l0.105,-0.076l0.105,-0.078l0.104,-0.078l0.103,-0.08l0.102,-0.081l0.101,-0.083l0.1,-0.083l0.099,-0.085l0.097,-0.086l0.097,-0.087l0.096,-0.088l0.095,-0.089l0.094,-0.09l0.092,-0.092l0.092,-0.092l0.09,-0.094l0.089,-0.095l0.088,-0.096l0.087,-0.097l0.086,-0.097l0.085,-0.099l0.083,-0.1l0.083,-0.101l0.081,-0.102l0.08,-0.103l0.078,-0.104l0.078,-0.105l0.076,-0.105l0.075,-0.107l0.073,-0.108l0.073,-0.108l0.071,-0.11l0.07,-0.11l0.068,-0.111l0.067,-0.112l0.066,-0.113l0.065,-0.114l0.063,-0.114l0.062,-0.116l0.06,-0.116l0.059,-0.117l0.058,-0.118l0.056,-0.118l0.055,-0.119l0.053,-0.12l0.052,-0.121l0.051,-0.122l0.049,-0.122l0.048,-0.123l0.046,-0.124l0.045,-0.124l0.043,-0.125l0.042,-0.126l0.04,-0.126l0.039,-0.128l0.037,-0.127l0.035,-0.129l0.035,-0.129l0.032,-0.129l0.031,-0.131l0.029,-0.131l0.028,-0.131l0.026,-0.132l0.025,-0.133l0.023,-0.133l0.021,-0.134l0.02,-0.135l0.018,-0.135l0.017,-0.135l0.014,-0.137l0.013,-0.136l0.012,-0.138l0.009,-0.137l0.008,-0.139l0.006,-0.139l0.005,-0.139l0.002,-0.14l0.001,-0.141l-0.001,-0.14l-0.002,-0.14l-0.005,-0.14l-0.006,-0.139l-0.008,-0.138l-0.009,-0.138l-0.012,-0.137l-0.013,-0.137l-0.014,-0.136l-0.017,-0.136l-0.018,-0.135l-0.02,-0.134l-0.021,-0.134l-0.023,-0.133l-0.025,-0.133l-0.026,-0.132l-0.028,-0.132l-0.029,-0.131l-0.031,-0.13l-0.032,-0.13l-0.035,-0.129l-0.035,-0.128l-0.037,-0.128l-0.039,-0.127l-0.04,-0.126l-0.042,-0.126l-0.043,-0.125l-0.045,-0.125l-0.046,-0.123l-0.048,-0.123l-0.049,-0.123l-0.051,-0.121l-0.052,-0.121l-0.053,-0.12l-0.055,-0.119l-0.056,-0.119l-0.058,-0.118l-0.059,-0.117l-0.06,-0.116l-0.062,-0.115l-0.063,-0.115l-0.065,-0.113l-0.066,-0.113l-0.067,-0.112l-0.068,-0.111l-0.07,-0.111l-0.071,-0.109l-0.073,-0.109l-0.073,-0.107l-0.075,-0.107l-0.076,-0.106l-0.078,-0.105l-0.078,-0.103l-0.08,-0.103l-0.081,-0.102l-0.083,-0.101l-0.083,-0.1l-0.085,-0.099l-0.086,-0.098l-0.087,-0.097l-0.088,-0.095l-0.089,-0.095l-0.09,-0.094l-0.092,-0.092l-0.092,-0.092l-0.094,-0.09l-0.095,-0.09l-0.096,-0.088l-0.097,-0.087l-0.097,-0.085l-0.099,-0.085l-0.1,-0.084l-0.101,-0.082l-0.102,-0.081l-0.103,-0.08l-0.104,-0.079l-0.105,-0.077l-0.105,-0.076l-0.107,-0.075l-0.108,-0.074l-0.108,-0.072l-0.11,-0.071l-0.11,-0.07l-0.111,-0.069l-0.112,-0.067l-0.113,-0.066l-0.114,-0.064l-0.114,-0.063l-0.116,-0.062l-0.116,-0.061l-0.117,-0.059l-0.118,-0.057l-0.118,-0.057l-0.119,-0.054l-0.12,-0.054l-0.121,-0.052l-0.122,-0.05l-0.122,-0.05l-0.123,-0.047l-0.124,-0.046l-0.124,-0.045l-0.125,-0.043l-0.126,-0.042l-0.126,-0.04l-0.128,-0.039l-0.127,-0.037l-0.129,-0.036l-0.129,-0.034l-0.129,-0.032l-0.131,-0.031l-0.131,-0.03l-0.131,-0.028l-0.132,-0.026l-0.133,-0.024l-0.133,-0.023l-0.134,-0.022l-0.135,-0.019l-0.135,-0.018l-0.135,-0.017l-0.137,-0.015l-0.136,-0.013l-0.138,-0.011l-0.137,-0.01l-0.139,-0.007l-0.139,-0.007l-0.139,-0.004l-0.14,-0.003l-0.141,-0.001l-0.14,0.001Z" style="fill:#fff;"/></g><path d="M21.984,118.127c5.311,0 9.615,-4.307 9.615,-9.615c0,-5.312 -4.304,-9.615 -9.615,-9.615c-5.311,0 -9.616,4.303 -9.616,9.615c0,5.308 4.305,9.615 9.616,9.615" style="fill:#fff;fill-rule:nonzero;"/><g><circle cx="21.984" cy="108.512" r="9.615" style="fill:#fff;"/><path d="M22.147,95.898l0.161,0.003l0.162,0.005l0.161,0.008l0.16,0.009l0.161,0.011l0.159,0.013l0.159,0.015l0.159,0.017l0.158,0.02l0.157,0.021l0.157,0.023l0.157,0.025l0.155,0.026l0.156,0.029l0.154,0.031l0.154,0.032l0.153,0.035l0.153,0.036l0.151,0.038l0.151,0.04l0.151,0.042l0.149,0.043l0.149,0.045l0.148,0.047l0.147,0.049l0.147,0.051l0.145,0.052l0.145,0.054l0.144,0.056l0.143,0.057l0.142,0.06l0.141,0.06l0.14,0.063l0.14,0.064l0.138,0.066l0.138,0.067l0.136,0.069l0.136,0.071l0.134,0.072l0.134,0.073l0.133,0.076l0.131,0.076l0.131,0.079l0.129,0.079l0.129,0.082l0.127,0.082l0.126,0.085l0.126,0.085l0.124,0.088l0.123,0.088l0.122,0.09l0.12,0.092l0.12,0.093l0.118,0.094l0.118,0.095l0.116,0.097l0.115,0.099l0.113,0.099l0.113,0.101l0.111,0.103l0.11,0.103l0.109,0.105l0.107,0.106l0.106,0.108l0.105,0.109l0.104,0.11l0.102,0.111l0.101,0.112l0.1,0.114l0.098,0.115l0.097,0.116l0.096,0.117l0.094,0.119l0.093,0.119l0.091,0.121l0.09,0.122l0.089,0.123l0.087,0.124l0.086,0.125l0.084,0.126l0.083,0.128l0.081,0.128l0.08,0.13l0.078,0.13l0.077,0.132l0.075,0.133l0.074,0.133l0.072,0.135l0.071,0.135l0.069,0.137l0.067,0.137l0.066,0.139l0.064,0.139l0.062,0.141l0.061,0.141l0.059,0.142l0.058,0.143l0.055,0.144l0.054,0.145l0.053,0.145l0.05,0.147l0.049,0.147l0.047,0.148l0.046,0.148l0.043,0.15l0.042,0.15l0.04,0.151l0.038,0.152l0.036,0.153l0.034,0.153l0.033,0.154l0.03,0.154l0.029,0.155l0.027,0.156l0.025,0.156l0.023,0.157l0.021,0.158l0.019,0.158l0.017,0.158l0.015,0.159l0.014,0.16l0.011,0.16l0.009,0.161l0.007,0.161l0.005,0.161l0.003,0.162l0.001,0.162l-0.001,0.163l-0.003,0.161l-0.005,0.162l-0.007,0.161l-0.009,0.16l-0.011,0.161l-0.014,0.159l-0.015,0.159l-0.017,0.159l-0.019,0.158l-0.021,0.157l-0.023,0.157l-0.025,0.157l-0.027,0.155l-0.029,0.156l-0.03,0.154l-0.033,0.154l-0.034,0.153l-0.036,0.153l-0.038,0.151l-0.04,0.151l-0.042,0.151l-0.043,0.149l-0.046,0.149l-0.047,0.148l-0.049,0.147l-0.05,0.147l-0.053,0.145l-0.054,0.145l-0.055,0.144l-0.058,0.143l-0.059,0.142l-0.061,0.141l-0.062,0.14l-0.064,0.14l-0.066,0.138l-0.067,0.138l-0.069,0.136l-0.071,0.136l-0.072,0.134l-0.074,0.134l-0.075,0.133l-0.077,0.131l-0.078,0.131l-0.08,0.129l-0.081,0.129l-0.083,0.127l-0.084,0.126l-0.086,0.126l-0.087,0.124l-0.089,0.123l-0.09,0.122l-0.091,0.12l-0.093,0.12l-0.094,0.118l-0.096,0.118l-0.097,0.116l-0.098,0.115l-0.1,0.113l-0.101,0.113l-0.102,0.111l-0.104,0.11l-0.105,0.109l-0.106,0.107l-0.107,0.106l-0.109,0.105l-0.11,0.104l-0.111,0.102l-0.113,0.101l-0.113,0.1l-0.115,0.098l-0.116,0.097l-0.118,0.096l-0.118,0.094l-0.12,0.093l-0.12,0.091l-0.122,0.09l-0.123,0.089l-0.124,0.087l-0.126,0.086l-0.126,0.084l-0.127,0.083l-0.129,0.081l-0.129,0.08l-0.131,0.078l-0.131,0.077l-0.133,0.075l-0.134,0.074l-0.134,0.072l-0.136,0.071l-0.136,0.069l-0.138,0.067l-0.138,0.066l-0.14,0.064l-0.14,0.062l-0.141,0.061l-0.142,0.059l-0.143,0.058l-0.144,0.055l-0.145,0.054l-0.146,0.053l-0.146,0.05l-0.147,0.049l-0.148,0.047l-0.149,0.046l-0.149,0.043l-0.151,0.042l-0.151,0.04l-0.151,0.038l-0.153,0.036l-0.153,0.034l-0.154,0.033l-0.154,0.03l-0.155,0.029l-0.156,0.027l-0.157,0.025l-0.157,0.023l-0.157,0.021l-0.158,0.019l-0.159,0.017l-0.159,0.015l-0.159,0.014l-0.161,0.011l-0.16,0.009l-0.161,0.007l-0.162,0.005l-0.161,0.003l-0.163,0.001l-0.162,-0.001l-0.162,-0.003l-0.161,-0.005l-0.161,-0.007l-0.161,-0.009l-0.16,-0.011l-0.16,-0.014l-0.159,-0.015l-0.158,-0.017l-0.158,-0.019l-0.158,-0.021l-0.157,-0.023l-0.156,-0.025l-0.156,-0.027l-0.155,-0.029l-0.154,-0.03l-0.154,-0.033l-0.153,-0.034l-0.153,-0.036l-0.152,-0.038l-0.151,-0.04l-0.15,-0.042l-0.15,-0.043l-0.148,-0.046l-0.148,-0.047l-0.147,-0.049l-0.147,-0.05l-0.145,-0.053l-0.145,-0.054l-0.144,-0.055l-0.143,-0.058l-0.142,-0.059l-0.141,-0.061l-0.141,-0.062l-0.139,-0.064l-0.139,-0.066l-0.137,-0.067l-0.137,-0.069l-0.135,-0.071l-0.135,-0.072l-0.133,-0.074l-0.133,-0.075l-0.132,-0.077l-0.13,-0.078l-0.13,-0.08l-0.128,-0.081l-0.128,-0.083l-0.126,-0.084l-0.125,-0.086l-0.124,-0.087l-0.123,-0.089l-0.122,-0.09l-0.121,-0.091l-0.119,-0.093l-0.119,-0.094l-0.117,-0.096l-0.116,-0.097l-0.115,-0.098l-0.114,-0.1l-0.112,-0.101l-0.111,-0.102l-0.11,-0.104l-0.109,-0.105l-0.108,-0.106l-0.106,-0.107l-0.105,-0.109l-0.103,-0.11l-0.103,-0.111l-0.101,-0.113l-0.099,-0.113l-0.099,-0.115l-0.097,-0.116l-0.095,-0.118l-0.094,-0.118l-0.093,-0.12l-0.092,-0.12l-0.09,-0.122l-0.088,-0.123l-0.088,-0.124l-0.085,-0.126l-0.085,-0.126l-0.082,-0.127l-0.082,-0.129l-0.079,-0.129l-0.079,-0.131l-0.076,-0.131l-0.076,-0.133l-0.073,-0.134l-0.072,-0.134l-0.071,-0.136l-0.069,-0.136l-0.067,-0.138l-0.066,-0.138l-0.064,-0.14l-0.063,-0.14l-0.06,-0.141l-0.059,-0.142l-0.058,-0.143l-0.056,-0.144l-0.054,-0.145l-0.052,-0.145l-0.051,-0.147l-0.048,-0.147l-0.048,-0.148l-0.045,-0.149l-0.043,-0.149l-0.042,-0.151l-0.04,-0.151l-0.038,-0.151l-0.036,-0.153l-0.035,-0.153l-0.032,-0.154l-0.031,-0.154l-0.029,-0.156l-0.026,-0.155l-0.025,-0.157l-0.023,-0.157l-0.021,-0.157l-0.02,-0.158l-0.017,-0.159l-0.015,-0.159l-0.013,-0.159l-0.011,-0.161l-0.009,-0.16l-0.008,-0.161l-0.005,-0.162l-0.003,-0.161l-0.001,-0.163l0.001,-0.162l0.003,-0.162l0.005,-0.161l0.008,-0.161l0.009,-0.161l0.011,-0.16l0.013,-0.16l0.015,-0.159l0.017,-0.158l0.02,-0.158l0.021,-0.158l0.023,-0.157l0.025,-0.156l0.026,-0.156l0.029,-0.155l0.031,-0.154l0.032,-0.154l0.035,-0.153l0.036,-0.153l0.038,-0.152l0.04,-0.151l0.042,-0.15l0.043,-0.15l0.045,-0.148l0.048,-0.148l0.048,-0.147l0.051,-0.147l0.052,-0.145l0.054,-0.145l0.056,-0.144l0.058,-0.143l0.059,-0.142l0.06,-0.141l0.063,-0.141l0.064,-0.139l0.066,-0.139l0.067,-0.137l0.069,-0.137l0.071,-0.135l0.072,-0.135l0.073,-0.133l0.076,-0.133l0.076,-0.132l0.079,-0.13l0.079,-0.13l0.082,-0.128l0.082,-0.128l0.085,-0.126l0.085,-0.125l0.088,-0.124l0.088,-0.123l0.09,-0.122l0.092,-0.121l0.093,-0.119l0.094,-0.119l0.095,-0.117l0.097,-0.116l0.099,-0.115l0.099,-0.114l0.101,-0.112l0.103,-0.111l0.103,-0.11l0.105,-0.109l0.106,-0.108l0.108,-0.106l0.109,-0.105l0.11,-0.103l0.111,-0.103l0.112,-0.101l0.114,-0.099l0.115,-0.099l0.116,-0.097l0.117,-0.095l0.119,-0.094l0.119,-0.093l0.121,-0.092l0.122,-0.09l0.123,-0.088l0.124,-0.088l0.125,-0.085l0.126,-0.085l0.128,-0.082l0.128,-0.082l0.13,-0.079l0.13,-0.079l0.132,-0.076l0.133,-0.076l0.133,-0.073l0.135,-0.072l0.135,-0.071l0.137,-0.069l0.137,-0.067l0.139,-0.066l0.139,-0.064l0.141,-0.063l0.141,-0.06l0.142,-0.06l0.143,-0.057l0.144,-0.056l0.145,-0.054l0.145,-0.052l0.146,-0.051l0.148,-0.049l0.148,-0.047l0.148,-0.045l0.15,-0.043l0.15,-0.042l0.151,-0.04l0.152,-0.038l0.153,-0.036l0.153,-0.035l0.154,-0.032l0.154,-0.031l0.155,-0.029l0.156,-0.026l0.156,-0.025l0.157,-0.023l0.158,-0.021l0.158,-0.02l0.158,-0.017l0.159,-0.015l0.16,-0.013l0.16,-0.011l0.161,-0.009l0.161,-0.008l0.161,-0.005l0.162,-0.003l0.162,-0.001l0.163,0.001Zm-0.249,6l-0.086,0.002l-0.085,0.002l-0.085,0.004l-0.085,0.005l-0.084,0.006l-0.084,0.007l-0.084,0.008l-0.083,0.009l-0.083,0.01l-0.082,0.011l-0.082,0.012l-0.082,0.013l-0.082,0.014l-0.081,0.015l-0.08,0.016l-0.081,0.017l-0.08,0.018l-0.079,0.019l-0.079,0.019l-0.079,0.021l-0.078,0.022l-0.078,0.023l-0.078,0.023l-0.077,0.025l-0.077,0.025l-0.076,0.027l-0.076,0.027l-0.075,0.028l-0.076,0.029l-0.074,0.03l-0.074,0.031l-0.074,0.032l-0.074,0.033l-0.072,0.033l-0.073,0.034l-0.072,0.036l-0.071,0.036l-0.071,0.037l-0.071,0.037l-0.07,0.039l-0.069,0.039l-0.069,0.041l-0.069,0.041l-0.067,0.042l-0.068,0.042l-0.067,0.044l-0.066,0.044l-0.066,0.045l-0.065,0.046l-0.065,0.046l-0.064,0.048l-0.063,0.048l-0.063,0.049l-0.063,0.049l-0.062,0.051l-0.061,0.051l-0.06,0.052l-0.06,0.052l-0.059,0.053l-0.059,0.054l-0.058,0.055l-0.057,0.055l-0.057,0.056l-0.056,0.057l-0.055,0.057l-0.055,0.058l-0.054,0.059l-0.053,0.059l-0.052,0.06l-0.052,0.06l-0.051,0.062l-0.051,0.061l-0.049,0.063l-0.049,0.063l-0.048,0.063l-0.048,0.064l-0.046,0.065l-0.046,0.065l-0.045,0.066l-0.044,0.066l-0.044,0.067l-0.042,0.068l-0.042,0.067l-0.041,0.069l-0.041,0.069l-0.039,0.069l-0.039,0.07l-0.037,0.071l-0.037,0.071l-0.036,0.071l-0.036,0.072l-0.034,0.073l-0.033,0.073l-0.033,0.073l-0.032,0.074l-0.031,0.074l-0.03,0.074l-0.029,0.076l-0.028,0.075l-0.027,0.076l-0.027,0.076l-0.025,0.077l-0.025,0.077l-0.023,0.078l-0.023,0.078l-0.022,0.078l-0.021,0.079l-0.019,0.079l-0.019,0.079l-0.018,0.08l-0.017,0.081l-0.016,0.08l-0.015,0.081l-0.014,0.082l-0.013,0.082l-0.012,0.082l-0.011,0.082l-0.01,0.083l-0.009,0.083l-0.008,0.084l-0.007,0.084l-0.006,0.084l-0.005,0.085l-0.004,0.085l-0.002,0.085l-0.002,0.086l-0.001,0.086l0.001,0.086l0.002,0.086l0.002,0.086l0.004,0.085l0.005,0.084l0.006,0.085l0.007,0.084l0.008,0.083l0.009,0.084l0.01,0.082l0.011,0.083l0.012,0.082l0.013,0.082l0.014,0.081l0.015,0.081l0.016,0.081l0.017,0.08l0.018,0.08l0.019,0.08l0.02,0.079l0.02,0.079l0.022,0.078l0.023,0.078l0.023,0.077l0.025,0.078l0.025,0.076l0.027,0.077l0.027,0.076l0.028,0.075l0.029,0.075l0.03,0.075l0.031,0.074l0.032,0.074l0.033,0.073l0.033,0.073l0.034,0.072l0.036,0.072l0.036,0.072l0.037,0.071l0.037,0.07l0.039,0.07l0.039,0.07l0.041,0.069l0.041,0.068l0.042,0.068l0.042,0.067l0.044,0.067l0.044,0.067l0.045,0.066l0.046,0.065l0.046,0.064l0.048,0.065l0.048,0.063l0.049,0.063l0.049,0.062l0.051,0.062l0.051,0.061l0.052,0.061l0.052,0.06l0.053,0.059l0.054,0.059l0.055,0.057l0.055,0.058l0.056,0.056l0.057,0.056l0.057,0.056l0.058,0.054l0.059,0.054l0.059,0.054l0.06,0.052l0.06,0.052l0.062,0.051l0.061,0.05l0.063,0.05l0.063,0.049l0.063,0.048l0.064,0.047l0.065,0.047l0.065,0.046l0.066,0.045l0.066,0.044l0.067,0.043l0.068,0.043l0.068,0.042l0.068,0.041l0.069,0.04l0.069,0.04l0.07,0.038l0.071,0.038l0.071,0.037l0.071,0.036l0.072,0.035l0.073,0.035l0.073,0.033l0.073,0.033l0.074,0.031l0.074,0.031l0.074,0.03l0.076,0.029l0.075,0.029l0.076,0.027l0.076,0.026l0.077,0.026l0.077,0.024l0.078,0.024l0.078,0.023l0.078,0.021l0.079,0.021l0.079,0.02l0.079,0.019l0.08,0.018l0.081,0.017l0.08,0.016l0.081,0.015l0.082,0.014l0.082,0.013l0.082,0.012l0.082,0.011l0.083,0.01l0.083,0.009l0.084,0.008l0.084,0.007l0.084,0.006l0.085,0.005l0.085,0.003l0.085,0.003l0.086,0.002l0.086,0l0.086,0l0.086,-0.002l0.086,-0.003l0.085,-0.003l0.084,-0.005l0.085,-0.006l0.084,-0.007l0.083,-0.008l0.084,-0.009l0.082,-0.01l0.083,-0.011l0.082,-0.012l0.082,-0.013l0.081,-0.014l0.081,-0.015l0.081,-0.016l0.08,-0.017l0.08,-0.018l0.08,-0.019l0.079,-0.02l0.079,-0.021l0.078,-0.021l0.078,-0.023l0.077,-0.024l0.078,-0.024l0.076,-0.026l0.077,-0.026l0.076,-0.027l0.075,-0.029l0.075,-0.029l0.075,-0.03l0.074,-0.031l0.074,-0.031l0.073,-0.033l0.073,-0.033l0.072,-0.035l0.072,-0.035l0.072,-0.036l0.071,-0.037l0.07,-0.038l0.07,-0.038l0.07,-0.04l0.069,-0.04l0.068,-0.041l0.068,-0.042l0.068,-0.043l0.066,-0.043l0.067,-0.044l0.066,-0.045l0.065,-0.046l0.064,-0.047l0.065,-0.047l0.063,-0.048l0.063,-0.049l0.062,-0.05l0.062,-0.05l0.061,-0.051l0.061,-0.052l0.06,-0.053l0.059,-0.053l0.059,-0.054l0.058,-0.054l0.057,-0.056l0.056,-0.056l0.056,-0.056l0.056,-0.058l0.054,-0.057l0.054,-0.059l0.053,-0.059l0.053,-0.06l0.052,-0.061l0.051,-0.061l0.05,-0.062l0.05,-0.062l0.049,-0.063l0.048,-0.063l0.047,-0.065l0.047,-0.064l0.046,-0.065l0.045,-0.066l0.044,-0.067l0.043,-0.067l0.043,-0.067l0.042,-0.068l0.041,-0.068l0.04,-0.069l0.04,-0.07l0.038,-0.07l0.038,-0.07l0.037,-0.071l0.036,-0.072l0.035,-0.072l0.035,-0.072l0.033,-0.073l0.033,-0.073l0.031,-0.074l0.031,-0.074l0.03,-0.075l0.029,-0.075l0.029,-0.075l0.027,-0.076l0.026,-0.077l0.026,-0.076l0.024,-0.078l0.024,-0.077l0.023,-0.078l0.021,-0.078l0.021,-0.079l0.02,-0.079l0.019,-0.08l0.018,-0.08l0.017,-0.08l0.016,-0.081l0.015,-0.081l0.014,-0.081l0.013,-0.082l0.012,-0.082l0.011,-0.083l0.01,-0.082l0.009,-0.084l0.008,-0.083l0.007,-0.084l0.006,-0.085l0.005,-0.084l0.003,-0.085l0.003,-0.086l0.002,-0.086l0,-0.086l0,-0.086l-0.002,-0.086l-0.003,-0.085l-0.003,-0.085l-0.005,-0.085l-0.006,-0.084l-0.007,-0.084l-0.008,-0.084l-0.009,-0.083l-0.01,-0.083l-0.011,-0.082l-0.012,-0.082l-0.013,-0.082l-0.014,-0.082l-0.015,-0.081l-0.016,-0.08l-0.017,-0.081l-0.018,-0.08l-0.019,-0.079l-0.02,-0.079l-0.021,-0.079l-0.021,-0.078l-0.023,-0.078l-0.024,-0.078l-0.024,-0.077l-0.026,-0.077l-0.026,-0.076l-0.027,-0.076l-0.029,-0.075l-0.029,-0.076l-0.03,-0.074l-0.031,-0.074l-0.031,-0.074l-0.033,-0.073l-0.033,-0.073l-0.035,-0.073l-0.035,-0.072l-0.036,-0.071l-0.037,-0.071l-0.038,-0.071l-0.038,-0.07l-0.04,-0.069l-0.04,-0.069l-0.041,-0.069l-0.042,-0.067l-0.043,-0.068l-0.043,-0.067l-0.044,-0.066l-0.045,-0.066l-0.046,-0.065l-0.047,-0.065l-0.047,-0.064l-0.048,-0.063l-0.049,-0.063l-0.05,-0.063l-0.05,-0.061l-0.051,-0.062l-0.052,-0.06l-0.052,-0.06l-0.054,-0.059l-0.054,-0.059l-0.054,-0.058l-0.056,-0.057l-0.056,-0.057l-0.056,-0.056l-0.058,-0.055l-0.058,-0.055l-0.058,-0.054l-0.059,-0.053l-0.06,-0.052l-0.061,-0.052l-0.061,-0.051l-0.062,-0.051l-0.062,-0.049l-0.063,-0.049l-0.063,-0.048l-0.065,-0.048l-0.064,-0.046l-0.065,-0.046l-0.066,-0.045l-0.067,-0.044l-0.067,-0.044l-0.067,-0.042l-0.068,-0.042l-0.068,-0.041l-0.069,-0.041l-0.07,-0.039l-0.07,-0.039l-0.07,-0.037l-0.071,-0.037l-0.072,-0.036l-0.072,-0.036l-0.072,-0.034l-0.073,-0.033l-0.073,-0.033l-0.074,-0.032l-0.074,-0.031l-0.075,-0.03l-0.075,-0.029l-0.075,-0.028l-0.076,-0.027l-0.077,-0.027l-0.076,-0.025l-0.077,-0.025l-0.078,-0.023l-0.078,-0.023l-0.078,-0.022l-0.079,-0.021l-0.079,-0.019l-0.08,-0.019l-0.08,-0.018l-0.08,-0.017l-0.081,-0.016l-0.081,-0.015l-0.081,-0.014l-0.082,-0.013l-0.082,-0.012l-0.083,-0.011l-0.082,-0.01l-0.084,-0.009l-0.083,-0.008l-0.084,-0.007l-0.085,-0.006l-0.084,-0.005l-0.085,-0.004l-0.086,-0.002l-0.086,-0.002l-0.086,-0.001l-0.086,0.001Z" style="fill:#fff;"/></g><path d="M75.298,97.079c12.524,0 22.678,-10.151 22.678,-22.677c0,-12.523 -10.154,-22.677 -22.678,-22.677c-12.522,0 -22.676,10.154 -22.676,22.677c0,12.526 10.154,22.677 22.676,22.677" style="fill:none;"/><path d="M75.488,44.979l0.19,0.002l0.189,0.003l0.189,0.004l0.189,0.005l0.189,0.007l0.188,0.008l0.188,0.009l0.187,0.01l0.188,0.011l0.187,0.012l0.187,0.014l0.186,0.015l0.186,0.016l0.186,0.017l0.186,0.018l0.185,0.02l0.185,0.02l0.184,0.022l0.184,0.023l0.184,0.024l0.184,0.025l0.183,0.026l0.182,0.028l0.183,0.028l0.182,0.03l0.182,0.03l0.181,0.032l0.181,0.033l0.18,0.034l0.181,0.035l0.179,0.037l0.18,0.037l0.179,0.038l0.178,0.04l0.179,0.04l0.177,0.042l0.178,0.043l0.177,0.044l0.176,0.045l0.176,0.045l0.176,0.048l0.175,0.048l0.175,0.049l0.175,0.05l0.174,0.051l0.173,0.052l0.173,0.054l0.173,0.054l0.172,0.055l0.172,0.057l0.171,0.057l0.17,0.058l0.171,0.06l0.17,0.06l0.169,0.062l0.169,0.062l0.168,0.064l0.168,0.064l0.167,0.066l0.167,0.066l0.166,0.067l0.166,0.069l0.166,0.069l0.164,0.071l0.165,0.071l0.163,0.072l0.164,0.073l0.162,0.075l0.163,0.075l0.161,0.076l0.161,0.077l0.161,0.078l0.16,0.079l0.159,0.08l0.159,0.081l0.159,0.081l0.157,0.083l0.158,0.084l0.156,0.084l0.156,0.086l0.156,0.086l0.155,0.087l0.154,0.089l0.154,0.089l0.153,0.09l0.152,0.09l0.152,0.092l0.152,0.093l0.151,0.093l0.15,0.095l0.149,0.095l0.149,0.096l0.148,0.097l0.148,0.098l0.147,0.099l0.147,0.099l0.145,0.101l0.145,0.101l0.145,0.102l0.144,0.103l0.143,0.104l0.143,0.105l0.141,0.105l0.142,0.106l0.14,0.108l0.14,0.108l0.139,0.108l0.139,0.11l0.138,0.11l0.137,0.112l0.137,0.112l0.136,0.112l0.135,0.114l0.134,0.114l0.134,0.116l0.133,0.116l0.132,0.116l0.132,0.118l0.131,0.118l0.13,0.119l0.13,0.12l0.128,0.121l0.129,0.121l0.127,0.122l0.126,0.123l0.126,0.124l0.126,0.124l0.124,0.125l0.124,0.126l0.122,0.127l0.123,0.127l0.121,0.128l0.121,0.129l0.119,0.129l0.119,0.131l0.119,0.131l0.117,0.131l0.117,0.133l0.116,0.133l0.115,0.133l0.115,0.135l0.113,0.135l0.113,0.136l0.112,0.136l0.111,0.138l0.111,0.138l0.109,0.138l0.109,0.139l0.108,0.14l0.107,0.141l0.107,0.141l0.105,0.142l0.105,0.143l0.103,0.143l0.103,0.144l0.103,0.144l0.101,0.145l0.1,0.146l0.1,0.147l0.099,0.147l0.098,0.147l0.097,0.149l0.096,0.148l0.095,0.15l0.094,0.15l0.094,0.151l0.092,0.151l0.092,0.152l0.091,0.153l0.09,0.153l0.089,0.154l0.088,0.154l0.088,0.155l0.086,0.155l0.085,0.156l0.085,0.157l0.084,0.157l0.082,0.158l0.082,0.158l0.081,0.159l0.08,0.16l0.079,0.16l0.078,0.16l0.077,0.161l0.076,0.162l0.075,0.162l0.074,0.163l0.073,0.163l0.073,0.164l0.071,0.164l0.07,0.165l0.07,0.165l0.068,0.166l0.068,0.167l0.066,0.166l0.066,0.168l0.064,0.168l0.063,0.168l0.063,0.169l0.061,0.169l0.061,0.17l0.059,0.17l0.059,0.171l0.057,0.171l0.056,0.172l0.056,0.172l0.054,0.173l0.053,0.173l0.053,0.173l0.051,0.174l0.05,0.174l0.049,0.175l0.048,0.175l0.047,0.176l0.046,0.176l0.045,0.177l0.044,0.177l0.043,0.177l0.041,0.178l0.041,0.178l0.039,0.179l0.039,0.179l0.037,0.179l0.036,0.18l0.035,0.18l0.035,0.181l0.032,0.181l0.032,0.181l0.031,0.182l0.03,0.182l0.028,0.182l0.027,0.183l0.027,0.183l0.025,0.184l0.024,0.183l0.023,0.185l0.021,0.184l0.021,0.185l0.019,0.185l0.019,0.186l0.017,0.185l0.016,0.187l0.015,0.186l0.013,0.187l0.013,0.187l0.011,0.187l0.01,0.188l0.009,0.188l0.008,0.188l0.006,0.189l0.006,0.188l0.004,0.189l0.003,0.19l0.002,0.189l0,0.19l0,0.19l-0.002,0.19l-0.003,0.189l-0.004,0.189l-0.006,0.189l-0.006,0.189l-0.008,0.188l-0.009,0.188l-0.01,0.187l-0.011,0.188l-0.013,0.187l-0.013,0.187l-0.015,0.186l-0.016,0.186l-0.017,0.186l-0.019,0.186l-0.019,0.185l-0.021,0.185l-0.021,0.184l-0.023,0.184l-0.024,0.184l-0.025,0.184l-0.027,0.183l-0.027,0.183l-0.028,0.182l-0.03,0.182l-0.031,0.182l-0.032,0.181l-0.032,0.181l-0.035,0.18l-0.035,0.181l-0.036,0.179l-0.037,0.18l-0.039,0.179l-0.039,0.178l-0.041,0.179l-0.041,0.177l-0.043,0.178l-0.044,0.177l-0.045,0.176l-0.046,0.176l-0.047,0.176l-0.048,0.175l-0.049,0.175l-0.05,0.175l-0.051,0.174l-0.053,0.173l-0.053,0.173l-0.054,0.173l-0.056,0.172l-0.056,0.172l-0.057,0.171l-0.059,0.17l-0.059,0.171l-0.061,0.17l-0.061,0.169l-0.063,0.169l-0.063,0.168l-0.064,0.168l-0.066,0.167l-0.066,0.167l-0.068,0.166l-0.068,0.166l-0.07,0.165l-0.07,0.165l-0.071,0.165l-0.073,0.163l-0.073,0.164l-0.074,0.162l-0.075,0.163l-0.076,0.161l-0.077,0.161l-0.078,0.161l-0.079,0.16l-0.08,0.159l-0.081,0.159l-0.082,0.159l-0.082,0.157l-0.084,0.158l-0.085,0.156l-0.085,0.156l-0.086,0.156l-0.088,0.155l-0.088,0.154l-0.089,0.154l-0.09,0.153l-0.091,0.152l-0.092,0.152l-0.092,0.152l-0.094,0.15l-0.094,0.151l-0.095,0.149l-0.096,0.149l-0.097,0.148l-0.098,0.148l-0.099,0.147l-0.1,0.146l-0.1,0.146l-0.101,0.145l-0.103,0.145l-0.103,0.144l-0.103,0.143l-0.105,0.143l-0.105,0.141l-0.107,0.142l-0.107,0.14l-0.108,0.14l-0.109,0.139l-0.109,0.139l-0.111,0.138l-0.111,0.137l-0.112,0.137l-0.113,0.136l-0.113,0.135l-0.115,0.134l-0.115,0.134l-0.116,0.133l-0.117,0.132l-0.117,0.132l-0.119,0.131l-0.119,0.13l-0.119,0.13l-0.121,0.128l-0.121,0.129l-0.123,0.127l-0.123,0.127l-0.123,0.125l-0.124,0.125l-0.126,0.125l-0.126,0.124l-0.126,0.122l-0.127,0.123l-0.128,0.121l-0.129,0.121l-0.13,0.119l-0.13,0.119l-0.131,0.119l-0.132,0.117l-0.132,0.117l-0.133,0.116l-0.134,0.115l-0.134,0.115l-0.135,0.113l-0.136,0.113l-0.137,0.112l-0.137,0.111l-0.138,0.111l-0.139,0.109l-0.139,0.109l-0.14,0.108l-0.14,0.107l-0.142,0.106l-0.141,0.106l-0.143,0.105l-0.143,0.104l-0.144,0.102l-0.145,0.103l-0.145,0.101l-0.145,0.1l-0.147,0.1l-0.147,0.099l-0.148,0.098l-0.148,0.097l-0.149,0.096l-0.149,0.095l-0.15,0.094l-0.151,0.094l-0.152,0.092l-0.152,0.092l-0.152,0.091l-0.153,0.09l-0.154,0.089l-0.154,0.088l-0.155,0.088l-0.156,0.086l-0.156,0.085l-0.156,0.085l-0.158,0.083l-0.157,0.083l-0.159,0.082l-0.159,0.081l-0.159,0.08l-0.16,0.079l-0.161,0.078l-0.161,0.077l-0.161,0.076l-0.163,0.075l-0.162,0.074l-0.164,0.073l-0.163,0.073l-0.165,0.071l-0.164,0.07l-0.166,0.07l-0.166,0.068l-0.166,0.068l-0.167,0.066l-0.167,0.066l-0.168,0.064l-0.168,0.063l-0.169,0.063l-0.17,0.061l-0.169,0.061l-0.171,0.059l-0.17,0.059l-0.171,0.057l-0.172,0.056l-0.172,0.056l-0.173,0.054l-0.173,0.053l-0.173,0.053l-0.174,0.051l-0.175,0.05l-0.175,0.049l-0.175,0.048l-0.176,0.047l-0.176,0.046l-0.176,0.045l-0.177,0.044l-0.178,0.043l-0.177,0.041l-0.179,0.041l-0.178,0.039l-0.179,0.039l-0.18,0.037l-0.179,0.036l-0.181,0.035l-0.18,0.034l-0.181,0.033l-0.181,0.032l-0.182,0.031l-0.182,0.03l-0.183,0.028l-0.182,0.027l-0.183,0.027l-0.184,0.025l-0.184,0.024l-0.184,0.023l-0.184,0.021l-0.185,0.021l-0.185,0.019l-0.186,0.019l-0.186,0.017l-0.186,0.016l-0.186,0.015l-0.187,0.013l-0.187,0.013l-0.188,0.011l-0.187,0.01l-0.188,0.009l-0.188,0.008l-0.189,0.006l-0.189,0.006l-0.189,0.004l-0.189,0.003l-0.19,0.002l-0.19,0l-0.19,0l-0.189,-0.002l-0.19,-0.003l-0.189,-0.004l-0.188,-0.006l-0.189,-0.006l-0.188,-0.008l-0.188,-0.009l-0.188,-0.01l-0.187,-0.011l-0.187,-0.013l-0.187,-0.013l-0.186,-0.015l-0.187,-0.016l-0.185,-0.017l-0.186,-0.019l-0.185,-0.019l-0.185,-0.021l-0.184,-0.021l-0.185,-0.023l-0.183,-0.024l-0.184,-0.025l-0.183,-0.027l-0.183,-0.027l-0.182,-0.028l-0.182,-0.03l-0.182,-0.031l-0.181,-0.032l-0.181,-0.033l-0.181,-0.034l-0.18,-0.035l-0.18,-0.036l-0.179,-0.037l-0.179,-0.039l-0.179,-0.039l-0.178,-0.041l-0.178,-0.041l-0.177,-0.043l-0.177,-0.044l-0.177,-0.045l-0.176,-0.046l-0.176,-0.047l-0.175,-0.048l-0.175,-0.049l-0.174,-0.05l-0.174,-0.051l-0.173,-0.053l-0.173,-0.053l-0.173,-0.054l-0.172,-0.056l-0.172,-0.056l-0.171,-0.057l-0.171,-0.059l-0.17,-0.059l-0.17,-0.061l-0.169,-0.061l-0.169,-0.063l-0.168,-0.063l-0.168,-0.064l-0.168,-0.066l-0.166,-0.066l-0.167,-0.068l-0.166,-0.068l-0.165,-0.07l-0.165,-0.07l-0.164,-0.071l-0.164,-0.073l-0.163,-0.073l-0.163,-0.074l-0.162,-0.075l-0.162,-0.076l-0.161,-0.077l-0.16,-0.078l-0.16,-0.079l-0.16,-0.08l-0.159,-0.081l-0.158,-0.082l-0.158,-0.083l-0.157,-0.083l-0.157,-0.085l-0.156,-0.085l-0.155,-0.086l-0.155,-0.088l-0.154,-0.088l-0.154,-0.089l-0.153,-0.09l-0.153,-0.091l-0.152,-0.092l-0.151,-0.092l-0.151,-0.094l-0.15,-0.094l-0.15,-0.095l-0.148,-0.096l-0.149,-0.097l-0.147,-0.098l-0.147,-0.099l-0.147,-0.1l-0.146,-0.1l-0.145,-0.101l-0.144,-0.103l-0.144,-0.102l-0.143,-0.104l-0.143,-0.105l-0.142,-0.106l-0.141,-0.106l-0.141,-0.107l-0.14,-0.108l-0.139,-0.109l-0.138,-0.109l-0.138,-0.111l-0.138,-0.111l-0.136,-0.112l-0.136,-0.113l-0.135,-0.113l-0.135,-0.115l-0.133,-0.115l-0.133,-0.116l-0.133,-0.117l-0.131,-0.117l-0.131,-0.119l-0.131,-0.119l-0.129,-0.119l-0.129,-0.121l-0.128,-0.121l-0.127,-0.123l-0.127,-0.122l-0.126,-0.124l-0.125,-0.125l-0.124,-0.125l-0.124,-0.125l-0.123,-0.127l-0.122,-0.127l-0.121,-0.128l-0.121,-0.129l-0.12,-0.13l-0.119,-0.13l-0.118,-0.131l-0.118,-0.132l-0.116,-0.132l-0.116,-0.133l-0.116,-0.134l-0.114,-0.134l-0.114,-0.135l-0.112,-0.136l-0.112,-0.137l-0.112,-0.137l-0.11,-0.138l-0.11,-0.139l-0.108,-0.139l-0.108,-0.14l-0.108,-0.14l-0.106,-0.142l-0.105,-0.141l-0.105,-0.143l-0.104,-0.143l-0.103,-0.144l-0.102,-0.145l-0.101,-0.145l-0.101,-0.146l-0.099,-0.146l-0.099,-0.147l-0.098,-0.148l-0.097,-0.148l-0.096,-0.149l-0.095,-0.149l-0.095,-0.15l-0.093,-0.151l-0.093,-0.152l-0.092,-0.152l-0.09,-0.152l-0.09,-0.153l-0.089,-0.154l-0.089,-0.154l-0.087,-0.155l-0.086,-0.156l-0.086,-0.156l-0.084,-0.156l-0.084,-0.158l-0.083,-0.157l-0.081,-0.159l-0.081,-0.159l-0.08,-0.159l-0.079,-0.16l-0.078,-0.161l-0.077,-0.161l-0.076,-0.161l-0.075,-0.163l-0.075,-0.162l-0.073,-0.164l-0.072,-0.163l-0.071,-0.165l-0.071,-0.164l-0.069,-0.166l-0.069,-0.166l-0.067,-0.166l-0.066,-0.167l-0.066,-0.167l-0.064,-0.168l-0.064,-0.168l-0.062,-0.169l-0.062,-0.169l-0.06,-0.17l-0.06,-0.171l-0.058,-0.17l-0.057,-0.171l-0.057,-0.172l-0.055,-0.172l-0.054,-0.173l-0.054,-0.173l-0.052,-0.173l-0.051,-0.174l-0.05,-0.175l-0.049,-0.175l-0.049,-0.175l-0.047,-0.176l-0.045,-0.176l-0.045,-0.176l-0.044,-0.177l-0.043,-0.178l-0.042,-0.177l-0.04,-0.179l-0.04,-0.178l-0.038,-0.179l-0.037,-0.18l-0.037,-0.179l-0.035,-0.181l-0.034,-0.18l-0.033,-0.181l-0.032,-0.181l-0.03,-0.182l-0.03,-0.182l-0.028,-0.183l-0.028,-0.182l-0.026,-0.183l-0.025,-0.184l-0.024,-0.184l-0.023,-0.184l-0.022,-0.184l-0.02,-0.185l-0.02,-0.185l-0.018,-0.186l-0.017,-0.186l-0.016,-0.186l-0.015,-0.186l-0.014,-0.187l-0.012,-0.187l-0.011,-0.188l-0.01,-0.187l-0.009,-0.188l-0.008,-0.188l-0.007,-0.189l-0.005,-0.189l-0.004,-0.189l-0.003,-0.189l-0.002,-0.19l-0.001,-0.19l0.001,-0.19l0.002,-0.189l0.003,-0.19l0.004,-0.189l0.005,-0.188l0.007,-0.189l0.008,-0.188l0.009,-0.188l0.01,-0.188l0.011,-0.187l0.012,-0.187l0.014,-0.187l0.015,-0.186l0.016,-0.187l0.017,-0.185l0.018,-0.186l0.02,-0.185l0.02,-0.185l0.022,-0.184l0.023,-0.185l0.024,-0.183l0.025,-0.184l0.026,-0.183l0.028,-0.183l0.028,-0.182l0.03,-0.182l0.03,-0.182l0.032,-0.181l0.033,-0.181l0.034,-0.181l0.035,-0.18l0.037,-0.18l0.037,-0.179l0.038,-0.179l0.04,-0.179l0.04,-0.178l0.042,-0.178l0.043,-0.177l0.044,-0.177l0.045,-0.177l0.045,-0.176l0.047,-0.175l0.049,-0.176l0.049,-0.175l0.05,-0.174l0.051,-0.174l0.052,-0.173l0.054,-0.173l0.054,-0.173l0.055,-0.172l0.057,-0.172l0.057,-0.171l0.058,-0.171l0.06,-0.17l0.06,-0.17l0.062,-0.169l0.062,-0.169l0.064,-0.168l0.064,-0.168l0.066,-0.168l0.066,-0.166l0.067,-0.167l0.069,-0.166l0.069,-0.165l0.071,-0.165l0.071,-0.164l0.072,-0.164l0.073,-0.163l0.075,-0.163l0.075,-0.162l0.076,-0.162l0.077,-0.161l0.078,-0.16l0.079,-0.16l0.08,-0.16l0.081,-0.159l0.081,-0.158l0.083,-0.158l0.084,-0.157l0.084,-0.157l0.086,-0.156l0.086,-0.155l0.087,-0.155l0.089,-0.154l0.089,-0.154l0.09,-0.153l0.09,-0.153l0.092,-0.152l0.093,-0.151l0.093,-0.151l0.095,-0.15l0.095,-0.15l0.096,-0.148l0.097,-0.149l0.098,-0.147l0.099,-0.147l0.099,-0.147l0.101,-0.146l0.101,-0.145l0.102,-0.144l0.103,-0.144l0.104,-0.143l0.105,-0.143l0.105,-0.142l0.106,-0.141l0.108,-0.141l0.108,-0.14l0.108,-0.139l0.11,-0.138l0.11,-0.138l0.112,-0.138l0.112,-0.136l0.112,-0.136l0.114,-0.135l0.114,-0.135l0.116,-0.133l0.116,-0.133l0.116,-0.133l0.118,-0.131l0.118,-0.131l0.119,-0.131l0.12,-0.129l0.121,-0.129l0.121,-0.128l0.122,-0.127l0.123,-0.127l0.124,-0.126l0.124,-0.125l0.125,-0.124l0.126,-0.124l0.127,-0.123l0.127,-0.122l0.128,-0.121l0.129,-0.121l0.129,-0.12l0.131,-0.119l0.131,-0.118l0.131,-0.118l0.133,-0.116l0.133,-0.116l0.133,-0.116l0.135,-0.114l0.135,-0.114l0.136,-0.112l0.136,-0.112l0.138,-0.112l0.138,-0.11l0.138,-0.11l0.139,-0.108l0.14,-0.108l0.141,-0.108l0.141,-0.106l0.142,-0.105l0.143,-0.105l0.143,-0.104l0.144,-0.103l0.144,-0.102l0.145,-0.101l0.146,-0.101l0.147,-0.099l0.147,-0.099l0.147,-0.098l0.149,-0.097l0.148,-0.096l0.15,-0.095l0.15,-0.095l0.151,-0.093l0.151,-0.093l0.152,-0.092l0.153,-0.09l0.153,-0.09l0.154,-0.089l0.154,-0.089l0.155,-0.087l0.155,-0.086l0.156,-0.086l0.157,-0.084l0.157,-0.084l0.158,-0.083l0.158,-0.081l0.159,-0.081l0.16,-0.08l0.16,-0.079l0.16,-0.078l0.161,-0.077l0.162,-0.076l0.162,-0.075l0.163,-0.075l0.163,-0.073l0.164,-0.072l0.164,-0.071l0.165,-0.071l0.165,-0.069l0.166,-0.069l0.167,-0.067l0.166,-0.066l0.168,-0.066l0.168,-0.064l0.168,-0.064l0.169,-0.062l0.169,-0.062l0.17,-0.06l0.17,-0.06l0.171,-0.058l0.171,-0.057l0.172,-0.057l0.172,-0.055l0.173,-0.054l0.173,-0.054l0.173,-0.052l0.174,-0.051l0.174,-0.05l0.175,-0.049l0.175,-0.048l0.176,-0.048l0.176,-0.045l0.177,-0.045l0.177,-0.044l0.177,-0.043l0.178,-0.042l0.178,-0.04l0.179,-0.04l0.179,-0.038l0.179,-0.037l0.18,-0.037l0.18,-0.035l0.181,-0.034l0.181,-0.033l0.181,-0.032l0.182,-0.03l0.182,-0.03l0.182,-0.028l0.183,-0.028l0.183,-0.026l0.184,-0.025l0.183,-0.024l0.185,-0.023l0.184,-0.022l0.185,-0.02l0.185,-0.02l0.186,-0.018l0.185,-0.017l0.187,-0.016l0.186,-0.015l0.187,-0.014l0.187,-0.012l0.187,-0.011l0.188,-0.01l0.188,-0.009l0.188,-0.008l0.189,-0.007l0.188,-0.005l0.189,-0.004l0.19,-0.003l0.189,-0.002l0.19,-0.001l0.19,0.001Zm-0.35,4.7l-0.16,0.001l-0.159,0.003l-0.159,0.003l-0.159,0.005l-0.159,0.006l-0.159,0.006l-0.158,0.008l-0.158,0.008l-0.158,0.01l-0.157,0.01l-0.157,0.012l-0.157,0.012l-0.156,0.013l-0.157,0.015l-0.155,0.015l-0.156,0.016l-0.155,0.018l-0.155,0.018l-0.155,0.019l-0.155,0.02l-0.154,0.021l-0.154,0.023l-0.153,0.022l-0.153,0.024l-0.153,0.025l-0.153,0.026l-0.152,0.027l-0.152,0.027l-0.151,0.029l-0.152,0.03l-0.151,0.03l-0.15,0.031l-0.15,0.033l-0.15,0.033l-0.15,0.034l-0.149,0.035l-0.149,0.036l-0.148,0.036l-0.148,0.038l-0.148,0.039l-0.148,0.039l-0.147,0.04l-0.146,0.042l-0.147,0.042l-0.146,0.043l-0.145,0.043l-0.145,0.045l-0.145,0.046l-0.145,0.046l-0.144,0.047l-0.143,0.049l-0.144,0.049l-0.143,0.05l-0.142,0.05l-0.142,0.052l-0.142,0.052l-0.141,0.053l-0.141,0.055l-0.14,0.054l-0.14,0.056l-0.14,0.057l-0.139,0.057l-0.139,0.058l-0.138,0.06l-0.138,0.059l-0.138,0.061l-0.137,0.062l-0.136,0.062l-0.136,0.063l-0.136,0.064l-0.135,0.065l-0.135,0.065l-0.135,0.066l-0.134,0.068l-0.133,0.067l-0.133,0.069l-0.132,0.07l-0.133,0.07l-0.131,0.071l-0.131,0.072l-0.131,0.072l-0.13,0.073l-0.13,0.074l-0.129,0.075l-0.129,0.076l-0.128,0.076l-0.127,0.077l-0.128,0.078l-0.126,0.079l-0.126,0.079l-0.126,0.08l-0.125,0.081l-0.125,0.082l-0.124,0.082l-0.124,0.083l-0.123,0.084l-0.122,0.084l-0.122,0.085l-0.122,0.086l-0.121,0.087l-0.12,0.087l-0.12,0.088l-0.12,0.089l-0.118,0.089l-0.119,0.09l-0.117,0.091l-0.117,0.091l-0.117,0.093l-0.116,0.093l-0.115,0.093l-0.115,0.094l-0.114,0.095l-0.114,0.096l-0.113,0.096l-0.113,0.097l-0.112,0.097l-0.111,0.099l-0.111,0.099l-0.11,0.099l-0.11,0.1l-0.108,0.101l-0.109,0.102l-0.108,0.102l-0.107,0.103l-0.106,0.103l-0.106,0.104l-0.105,0.105l-0.105,0.105l-0.104,0.106l-0.103,0.106l-0.103,0.107l-0.102,0.108l-0.102,0.109l-0.101,0.108l-0.1,0.11l-0.099,0.11l-0.099,0.111l-0.099,0.111l-0.097,0.112l-0.097,0.113l-0.096,0.113l-0.096,0.114l-0.095,0.114l-0.094,0.115l-0.093,0.115l-0.093,0.116l-0.093,0.117l-0.091,0.117l-0.091,0.117l-0.09,0.119l-0.089,0.118l-0.089,0.12l-0.088,0.12l-0.087,0.12l-0.087,0.121l-0.086,0.122l-0.085,0.122l-0.084,0.122l-0.084,0.123l-0.083,0.124l-0.082,0.124l-0.082,0.125l-0.081,0.125l-0.08,0.126l-0.079,0.126l-0.079,0.126l-0.078,0.128l-0.077,0.127l-0.076,0.128l-0.076,0.129l-0.075,0.129l-0.074,0.13l-0.073,0.13l-0.072,0.131l-0.072,0.131l-0.071,0.132l-0.07,0.132l-0.07,0.132l-0.069,0.133l-0.067,0.134l-0.068,0.133l-0.066,0.135l-0.065,0.135l-0.065,0.135l-0.064,0.136l-0.063,0.136l-0.062,0.136l-0.062,0.137l-0.061,0.138l-0.059,0.138l-0.06,0.138l-0.058,0.139l-0.057,0.139l-0.057,0.14l-0.056,0.14l-0.054,0.14l-0.055,0.141l-0.053,0.141l-0.052,0.142l-0.052,0.142l-0.05,0.142l-0.05,0.143l-0.049,0.144l-0.049,0.143l-0.047,0.144l-0.046,0.145l-0.046,0.145l-0.045,0.145l-0.043,0.145l-0.043,0.146l-0.042,0.147l-0.042,0.146l-0.04,0.147l-0.039,0.148l-0.039,0.148l-0.038,0.148l-0.036,0.148l-0.036,0.149l-0.035,0.149l-0.034,0.15l-0.033,0.15l-0.033,0.15l-0.031,0.15l-0.03,0.151l-0.03,0.152l-0.029,0.151l-0.027,0.152l-0.027,0.152l-0.026,0.153l-0.025,0.153l-0.024,0.153l-0.022,0.153l-0.023,0.154l-0.021,0.154l-0.02,0.155l-0.019,0.154l-0.018,0.156l-0.018,0.155l-0.016,0.156l-0.015,0.155l-0.015,0.157l-0.013,0.156l-0.012,0.157l-0.012,0.157l-0.01,0.157l-0.01,0.158l-0.008,0.158l-0.008,0.158l-0.006,0.159l-0.006,0.159l-0.005,0.159l-0.003,0.159l-0.003,0.159l-0.001,0.16l-0.001,0.16l0.001,0.16l0.001,0.16l0.003,0.16l0.003,0.159l0.005,0.159l0.006,0.159l0.006,0.158l0.008,0.159l0.008,0.157l0.01,0.158l0.01,0.158l0.012,0.157l0.012,0.156l0.013,0.157l0.015,0.156l0.015,0.156l0.016,0.156l0.018,0.155l0.018,0.155l0.019,0.155l0.02,0.154l0.021,0.154l0.023,0.154l0.022,0.154l0.024,0.153l0.025,0.153l0.026,0.152l0.027,0.153l0.027,0.151l0.029,0.152l0.03,0.151l0.03,0.151l0.031,0.151l0.033,0.15l0.033,0.15l0.034,0.149l0.035,0.15l0.036,0.148l0.036,0.149l0.038,0.148l0.039,0.148l0.039,0.147l0.04,0.147l0.042,0.147l0.042,0.146l0.043,0.146l0.043,0.146l0.045,0.145l0.046,0.145l0.046,0.144l0.047,0.144l0.049,0.144l0.049,0.143l0.05,0.143l0.05,0.143l0.052,0.142l0.052,0.141l0.053,0.142l0.055,0.14l0.054,0.141l0.056,0.14l0.057,0.14l0.057,0.139l0.058,0.139l0.06,0.138l0.059,0.138l0.061,0.137l0.062,0.137l0.062,0.137l0.063,0.136l0.064,0.136l0.065,0.135l0.065,0.135l0.066,0.134l0.068,0.134l0.067,0.134l0.069,0.133l0.07,0.132l0.07,0.132l0.071,0.132l0.072,0.131l0.072,0.13l0.073,0.131l0.074,0.129l0.075,0.129l0.076,0.129l0.076,0.128l0.077,0.128l0.078,0.127l0.079,0.127l0.079,0.126l0.08,0.126l0.081,0.125l0.082,0.125l0.082,0.124l0.083,0.123l0.084,0.124l0.084,0.122l0.085,0.122l0.086,0.122l0.087,0.121l0.087,0.12l0.088,0.12l0.089,0.119l0.089,0.119l0.09,0.118l0.091,0.118l0.091,0.117l0.093,0.117l0.093,0.116l0.093,0.115l0.094,0.115l0.095,0.114l0.096,0.114l0.096,0.113l0.097,0.112l0.097,0.112l0.099,0.112l0.099,0.11l0.099,0.111l0.1,0.109l0.101,0.109l0.102,0.108l0.102,0.108l0.103,0.107l0.103,0.107l0.104,0.106l0.105,0.105l0.105,0.105l0.106,0.104l0.106,0.103l0.107,0.103l0.108,0.102l0.109,0.101l0.108,0.101l0.11,0.1l0.11,0.1l0.111,0.099l0.111,0.098l0.112,0.098l0.113,0.097l0.113,0.096l0.114,0.095l0.114,0.095l0.115,0.095l0.115,0.093l0.116,0.093l0.117,0.092l0.117,0.092l0.117,0.09l0.119,0.091l0.118,0.089l0.12,0.089l0.12,0.088l0.12,0.087l0.121,0.087l0.122,0.085l0.122,0.086l0.122,0.084l0.123,0.084l0.124,0.083l0.124,0.082l0.125,0.082l0.125,0.08l0.126,0.081l0.126,0.079l0.126,0.078l0.128,0.078l0.127,0.077l0.128,0.077l0.129,0.075l0.129,0.075l0.13,0.074l0.13,0.074l0.131,0.072l0.131,0.072l0.131,0.071l0.133,0.07l0.132,0.07l0.133,0.068l0.133,0.068l0.134,0.067l0.135,0.067l0.135,0.065l0.135,0.065l0.136,0.064l0.136,0.063l0.136,0.062l0.137,0.062l0.138,0.06l0.138,0.06l0.138,0.059l0.139,0.058l0.139,0.058l0.14,0.056l0.14,0.056l0.14,0.055l0.141,0.054l0.141,0.053l0.142,0.053l0.142,0.051l0.142,0.051l0.143,0.05l0.144,0.049l0.143,0.048l0.144,0.047l0.145,0.047l0.145,0.045l0.145,0.045l0.145,0.044l0.146,0.043l0.147,0.042l0.146,0.041l0.147,0.041l0.148,0.039l0.148,0.039l0.148,0.037l0.148,0.037l0.149,0.036l0.149,0.035l0.15,0.034l0.15,0.033l0.15,0.032l0.15,0.032l0.151,0.03l0.152,0.03l0.151,0.028l0.152,0.028l0.152,0.027l0.153,0.025l0.153,0.025l0.153,0.024l0.153,0.023l0.154,0.022l0.154,0.021l0.155,0.02l0.155,0.02l0.155,0.018l0.155,0.017l0.155,0.016l0.157,0.016l0.156,0.014l0.156,0.014l0.157,0.012l0.157,0.012l0.158,0.01l0.157,0.01l0.158,0.008l0.158,0.008l0.159,0.006l0.159,0.006l0.159,0.004l0.159,0.004l0.159,0.002l0.16,0.002l0.16,0l0.16,0l0.16,-0.002l0.16,-0.002l0.159,-0.004l0.159,-0.004l0.159,-0.006l0.158,-0.006l0.159,-0.008l0.157,-0.008l0.158,-0.01l0.158,-0.01l0.157,-0.012l0.156,-0.012l0.157,-0.014l0.156,-0.014l0.156,-0.016l0.156,-0.016l0.155,-0.017l0.155,-0.018l0.155,-0.02l0.154,-0.02l0.154,-0.021l0.154,-0.022l0.154,-0.023l0.153,-0.024l0.153,-0.025l0.152,-0.025l0.153,-0.027l0.151,-0.028l0.152,-0.028l0.151,-0.03l0.151,-0.03l0.151,-0.032l0.15,-0.032l0.15,-0.033l0.149,-0.034l0.15,-0.035l0.148,-0.036l0.149,-0.037l0.148,-0.037l0.148,-0.039l0.147,-0.039l0.147,-0.041l0.147,-0.041l0.146,-0.042l0.146,-0.043l0.146,-0.044l0.145,-0.045l0.145,-0.045l0.144,-0.047l0.144,-0.047l0.144,-0.048l0.143,-0.049l0.143,-0.05l0.143,-0.051l0.142,-0.051l0.141,-0.053l0.142,-0.053l0.14,-0.054l0.141,-0.055l0.14,-0.056l0.14,-0.056l0.139,-0.058l0.138,-0.058l0.139,-0.059l0.138,-0.06l0.137,-0.06l0.137,-0.062l0.137,-0.062l0.136,-0.063l0.136,-0.064l0.135,-0.065l0.135,-0.065l0.134,-0.067l0.134,-0.067l0.134,-0.068l0.133,-0.068l0.132,-0.07l0.132,-0.07l0.132,-0.071l0.131,-0.072l0.13,-0.072l0.131,-0.074l0.129,-0.074l0.129,-0.075l0.129,-0.075l0.128,-0.077l0.128,-0.077l0.127,-0.078l0.127,-0.078l0.126,-0.079l0.126,-0.081l0.125,-0.08l0.125,-0.082l0.124,-0.082l0.123,-0.083l0.123,-0.084l0.123,-0.084l0.122,-0.086l0.122,-0.085l0.121,-0.087l0.12,-0.087l0.12,-0.088l0.119,-0.089l0.119,-0.089l0.118,-0.091l0.118,-0.09l0.117,-0.092l0.117,-0.092l0.115,-0.093l0.116,-0.093l0.115,-0.095l0.114,-0.095l0.114,-0.095l0.113,-0.096l0.112,-0.097l0.112,-0.098l0.112,-0.098l0.11,-0.099l0.111,-0.1l0.109,-0.1l0.109,-0.101l0.108,-0.101l0.108,-0.102l0.107,-0.103l0.107,-0.103l0.106,-0.104l0.105,-0.105l0.105,-0.105l0.104,-0.106l0.103,-0.107l0.103,-0.107l0.102,-0.107l0.101,-0.109l0.101,-0.109l0.1,-0.109l0.1,-0.111l0.099,-0.11l0.098,-0.112l0.098,-0.112l0.097,-0.112l0.096,-0.113l0.095,-0.114l0.095,-0.114l0.095,-0.115l0.093,-0.115l0.093,-0.117l0.092,-0.116l0.092,-0.117l0.09,-0.118l0.091,-0.118l0.089,-0.119l0.089,-0.119l0.088,-0.12l0.087,-0.12l0.087,-0.121l0.085,-0.122l0.086,-0.122l0.084,-0.122l0.084,-0.124l0.083,-0.123l0.082,-0.124l0.082,-0.125l0.08,-0.125l0.081,-0.126l0.079,-0.126l0.078,-0.127l0.078,-0.127l0.077,-0.128l0.077,-0.128l0.075,-0.129l0.075,-0.129l0.074,-0.129l0.074,-0.131l0.072,-0.13l0.072,-0.131l0.071,-0.132l0.07,-0.132l0.07,-0.132l0.068,-0.133l0.068,-0.134l0.067,-0.134l0.066,-0.134l0.066,-0.135l0.065,-0.135l0.064,-0.136l0.063,-0.136l0.062,-0.137l0.062,-0.137l0.06,-0.137l0.06,-0.138l0.059,-0.138l0.058,-0.139l0.058,-0.139l0.056,-0.14l0.056,-0.14l0.055,-0.141l0.054,-0.14l0.053,-0.142l0.053,-0.141l0.051,-0.142l0.051,-0.143l0.05,-0.143l0.049,-0.143l0.048,-0.144l0.047,-0.144l0.047,-0.144l0.045,-0.145l0.045,-0.145l0.044,-0.146l0.043,-0.146l0.042,-0.146l0.041,-0.147l0.041,-0.147l0.039,-0.147l0.039,-0.148l0.037,-0.148l0.037,-0.149l0.036,-0.148l0.035,-0.15l0.034,-0.149l0.033,-0.15l0.032,-0.15l0.032,-0.151l0.03,-0.151l0.03,-0.151l0.028,-0.152l0.028,-0.151l0.027,-0.153l0.025,-0.152l0.025,-0.153l0.024,-0.153l0.023,-0.154l0.022,-0.154l0.021,-0.154l0.02,-0.154l0.02,-0.155l0.018,-0.155l0.017,-0.155l0.016,-0.156l0.016,-0.156l0.014,-0.156l0.014,-0.157l0.012,-0.156l0.012,-0.157l0.01,-0.158l0.01,-0.158l0.008,-0.157l0.008,-0.159l0.006,-0.158l0.006,-0.159l0.004,-0.159l0.004,-0.159l0.002,-0.16l0.002,-0.16l0,-0.16l0,-0.16l-0.002,-0.16l-0.002,-0.159l-0.004,-0.159l-0.004,-0.159l-0.006,-0.159l-0.006,-0.159l-0.008,-0.158l-0.008,-0.158l-0.01,-0.158l-0.01,-0.157l-0.012,-0.157l-0.012,-0.157l-0.014,-0.156l-0.014,-0.156l-0.016,-0.156l-0.016,-0.156l-0.017,-0.155l-0.018,-0.155l-0.02,-0.155l-0.02,-0.155l-0.021,-0.154l-0.022,-0.154l-0.023,-0.153l-0.024,-0.153l-0.025,-0.153l-0.025,-0.153l-0.027,-0.152l-0.028,-0.152l-0.028,-0.151l-0.03,-0.152l-0.03,-0.151l-0.032,-0.15l-0.032,-0.15l-0.033,-0.15l-0.034,-0.15l-0.035,-0.149l-0.036,-0.149l-0.037,-0.148l-0.037,-0.148l-0.039,-0.148l-0.039,-0.148l-0.041,-0.147l-0.041,-0.146l-0.042,-0.147l-0.043,-0.146l-0.044,-0.145l-0.045,-0.145l-0.045,-0.145l-0.047,-0.145l-0.047,-0.144l-0.048,-0.143l-0.049,-0.144l-0.05,-0.143l-0.051,-0.142l-0.051,-0.142l-0.053,-0.142l-0.053,-0.141l-0.054,-0.141l-0.055,-0.14l-0.056,-0.14l-0.056,-0.14l-0.058,-0.139l-0.058,-0.139l-0.059,-0.138l-0.06,-0.138l-0.06,-0.138l-0.062,-0.137l-0.062,-0.136l-0.063,-0.136l-0.064,-0.136l-0.065,-0.135l-0.066,-0.135l-0.066,-0.135l-0.067,-0.133l-0.068,-0.134l-0.068,-0.133l-0.07,-0.132l-0.07,-0.133l-0.071,-0.131l-0.072,-0.131l-0.072,-0.131l-0.074,-0.13l-0.074,-0.13l-0.075,-0.129l-0.075,-0.129l-0.077,-0.128l-0.077,-0.127l-0.078,-0.128l-0.078,-0.126l-0.079,-0.126l-0.081,-0.126l-0.08,-0.125l-0.082,-0.125l-0.082,-0.124l-0.083,-0.124l-0.084,-0.123l-0.084,-0.122l-0.086,-0.122l-0.085,-0.122l-0.087,-0.121l-0.087,-0.12l-0.088,-0.12l-0.089,-0.12l-0.089,-0.118l-0.091,-0.119l-0.09,-0.117l-0.092,-0.117l-0.092,-0.117l-0.093,-0.116l-0.093,-0.115l-0.095,-0.115l-0.095,-0.114l-0.095,-0.114l-0.096,-0.113l-0.097,-0.113l-0.098,-0.112l-0.098,-0.111l-0.099,-0.111l-0.1,-0.11l-0.1,-0.11l-0.101,-0.108l-0.101,-0.109l-0.102,-0.108l-0.103,-0.107l-0.103,-0.106l-0.104,-0.106l-0.105,-0.105l-0.105,-0.105l-0.106,-0.104l-0.107,-0.103l-0.107,-0.103l-0.108,-0.102l-0.108,-0.102l-0.109,-0.101l-0.109,-0.1l-0.111,-0.099l-0.11,-0.099l-0.112,-0.099l-0.112,-0.097l-0.112,-0.097l-0.113,-0.096l-0.114,-0.096l-0.114,-0.095l-0.115,-0.094l-0.115,-0.093l-0.116,-0.093l-0.117,-0.093l-0.117,-0.091l-0.118,-0.091l-0.118,-0.09l-0.119,-0.089l-0.119,-0.089l-0.12,-0.088l-0.12,-0.087l-0.121,-0.087l-0.122,-0.086l-0.122,-0.085l-0.123,-0.084l-0.123,-0.084l-0.123,-0.083l-0.124,-0.082l-0.125,-0.082l-0.125,-0.081l-0.126,-0.08l-0.126,-0.079l-0.127,-0.079l-0.127,-0.078l-0.128,-0.077l-0.128,-0.076l-0.129,-0.076l-0.129,-0.075l-0.129,-0.074l-0.131,-0.073l-0.13,-0.072l-0.131,-0.072l-0.132,-0.071l-0.132,-0.07l-0.132,-0.07l-0.133,-0.069l-0.134,-0.067l-0.134,-0.068l-0.134,-0.066l-0.135,-0.065l-0.135,-0.065l-0.136,-0.064l-0.136,-0.063l-0.137,-0.062l-0.137,-0.062l-0.137,-0.061l-0.138,-0.059l-0.138,-0.06l-0.139,-0.058l-0.139,-0.057l-0.14,-0.057l-0.14,-0.056l-0.141,-0.054l-0.14,-0.055l-0.142,-0.053l-0.141,-0.052l-0.142,-0.052l-0.143,-0.05l-0.143,-0.05l-0.143,-0.049l-0.144,-0.049l-0.144,-0.047l-0.144,-0.046l-0.145,-0.046l-0.145,-0.045l-0.146,-0.043l-0.146,-0.043l-0.146,-0.042l-0.147,-0.042l-0.147,-0.04l-0.147,-0.039l-0.148,-0.039l-0.148,-0.038l-0.149,-0.036l-0.148,-0.036l-0.15,-0.035l-0.149,-0.034l-0.15,-0.033l-0.15,-0.033l-0.151,-0.031l-0.151,-0.03l-0.151,-0.03l-0.152,-0.029l-0.151,-0.027l-0.153,-0.027l-0.152,-0.026l-0.153,-0.025l-0.153,-0.024l-0.154,-0.022l-0.154,-0.023l-0.154,-0.021l-0.154,-0.02l-0.155,-0.019l-0.155,-0.018l-0.155,-0.018l-0.156,-0.016l-0.156,-0.015l-0.156,-0.015l-0.157,-0.013l-0.156,-0.012l-0.157,-0.012l-0.158,-0.01l-0.158,-0.01l-0.157,-0.008l-0.159,-0.008l-0.158,-0.006l-0.159,-0.006l-0.159,-0.005l-0.159,-0.003l-0.16,-0.003l-0.16,-0.001l-0.16,-0.001l-0.16,0.001Z" style="fill:#fff;"/><path d="M120.179,155.058c10.664,0 19.308,-8.646 19.308,-19.309c0,-10.663 -8.644,-19.305 -19.308,-19.305c-10.664,0 -19.307,8.643 -19.307,19.305c0,10.662 8.643,19.309 19.307,19.309" style="fill:#fff;fill-rule:nonzero;"/><g><circle cx="120.179" cy="135.752" r="19.307" style="fill:#fff;"/><path d="M120.323,113.446l0.144,0.001l0.143,0.002l0.143,0.004l0.143,0.004l0.143,0.005l0.143,0.006l0.142,0.006l0.142,0.008l0.143,0.009l0.141,0.009l0.142,0.01l0.141,0.012l0.141,0.012l0.141,0.013l0.141,0.013l0.14,0.015l0.14,0.016l0.14,0.016l0.14,0.018l0.139,0.018l0.139,0.019l0.139,0.02l0.139,0.02l0.138,0.022l0.138,0.022l0.138,0.024l0.137,0.024l0.137,0.025l0.137,0.026l0.137,0.026l0.136,0.028l0.136,0.028l0.136,0.029l0.136,0.03l0.139,0.032l0.265,0.063l0.268,0.067l0.267,0.071l0.266,0.074l0.264,0.076l0.263,0.08l0.261,0.084l0.26,0.086l0.259,0.089l0.257,0.093l0.256,0.095l0.254,0.099l0.253,0.101l0.251,0.105l0.249,0.107l0.248,0.111l0.247,0.113l0.244,0.116l0.244,0.119l0.241,0.122l0.24,0.125l0.238,0.127l0.236,0.13l0.234,0.133l0.233,0.136l0.231,0.139l0.229,0.141l0.227,0.143l0.225,0.147l0.224,0.149l0.221,0.152l0.22,0.154l0.217,0.156l0.216,0.16l0.214,0.162l0.211,0.164l0.21,0.167l0.207,0.169l0.206,0.171l0.203,0.174l0.201,0.177l0.199,0.178l0.197,0.181l0.194,0.184l0.193,0.186l0.19,0.188l0.188,0.19l0.186,0.192l0.183,0.195l0.181,0.197l0.179,0.199l0.176,0.201l0.174,0.203l0.172,0.205l0.169,0.208l0.167,0.21l0.164,0.211l0.162,0.214l0.159,0.215l0.157,0.218l0.154,0.219l0.152,0.222l0.149,0.223l0.146,0.226l0.144,0.227l0.141,0.229l0.139,0.231l0.135,0.232l0.133,0.235l0.131,0.236l0.127,0.238l0.125,0.24l0.122,0.241l0.119,0.243l0.116,0.245l0.113,0.246l0.11,0.248l0.108,0.25l0.104,0.251l0.102,0.253l0.098,0.254l0.096,0.256l0.092,0.257l0.09,0.258l0.086,0.26l0.083,0.262l0.08,0.263l0.077,0.264l0.074,0.266l0.07,0.266l0.068,0.268l0.062,0.265l0.032,0.14l0.03,0.136l0.029,0.135l0.029,0.136l0.027,0.136l0.027,0.137l0.026,0.137l0.025,0.137l0.024,0.138l0.023,0.138l0.023,0.138l0.021,0.138l0.021,0.139l0.02,0.139l0.019,0.139l0.018,0.139l0.017,0.14l0.017,0.14l0.015,0.14l0.015,0.14l0.014,0.141l0.013,0.14l0.012,0.141l0.011,0.142l0.011,0.141l0.009,0.142l0.009,0.142l0.007,0.142l0.007,0.143l0.006,0.142l0.005,0.143l0.004,0.143l0.003,0.143l0.003,0.144l0.001,0.143l0,0.144l0,0.144l-0.001,0.144l-0.003,0.143l-0.003,0.143l-0.004,0.143l-0.005,0.143l-0.006,0.143l-0.007,0.142l-0.007,0.142l-0.009,0.142l-0.009,0.142l-0.011,0.142l-0.011,0.141l-0.012,0.141l-0.013,0.141l-0.014,0.141l-0.015,0.14l-0.015,0.14l-0.017,0.14l-0.017,0.14l-0.018,0.139l-0.019,0.139l-0.02,0.139l-0.021,0.139l-0.021,0.138l-0.023,0.138l-0.023,0.138l-0.024,0.137l-0.025,0.137l-0.026,0.137l-0.027,0.137l-0.027,0.136l-0.029,0.136l-0.029,0.136l-0.03,0.136l-0.032,0.139l-0.062,0.265l-0.068,0.268l-0.07,0.267l-0.074,0.266l-0.077,0.264l-0.08,0.263l-0.083,0.261l-0.086,0.26l-0.09,0.259l-0.092,0.257l-0.096,0.256l-0.098,0.254l-0.102,0.253l-0.104,0.251l-0.108,0.249l-0.11,0.248l-0.113,0.247l-0.116,0.244l-0.119,0.244l-0.122,0.241l-0.125,0.24l-0.127,0.238l-0.131,0.236l-0.133,0.234l-0.135,0.233l-0.139,0.231l-0.141,0.229l-0.144,0.227l-0.146,0.225l-0.149,0.224l-0.152,0.221l-0.154,0.22l-0.157,0.217l-0.159,0.216l-0.162,0.214l-0.164,0.211l-0.167,0.21l-0.169,0.207l-0.172,0.206l-0.174,0.203l-0.176,0.201l-0.179,0.199l-0.181,0.197l-0.183,0.194l-0.186,0.193l-0.188,0.19l-0.19,0.188l-0.193,0.186l-0.194,0.183l-0.197,0.181l-0.199,0.179l-0.201,0.176l-0.203,0.174l-0.206,0.172l-0.207,0.169l-0.21,0.167l-0.211,0.164l-0.214,0.162l-0.216,0.159l-0.217,0.157l-0.22,0.154l-0.221,0.152l-0.224,0.149l-0.225,0.146l-0.227,0.144l-0.229,0.141l-0.231,0.139l-0.233,0.135l-0.234,0.133l-0.236,0.13l-0.238,0.128l-0.24,0.125l-0.241,0.122l-0.244,0.119l-0.244,0.116l-0.247,0.113l-0.248,0.11l-0.249,0.108l-0.251,0.104l-0.253,0.102l-0.254,0.098l-0.256,0.096l-0.257,0.092l-0.259,0.09l-0.26,0.086l-0.261,0.083l-0.263,0.08l-0.264,0.077l-0.266,0.074l-0.267,0.07l-0.268,0.068l-0.265,0.062l-0.139,0.032l-0.136,0.03l-0.136,0.029l-0.136,0.029l-0.136,0.027l-0.137,0.027l-0.137,0.026l-0.137,0.025l-0.137,0.024l-0.138,0.023l-0.138,0.023l-0.138,0.021l-0.139,0.021l-0.139,0.02l-0.139,0.019l-0.139,0.018l-0.14,0.017l-0.14,0.017l-0.14,0.015l-0.14,0.015l-0.141,0.014l-0.141,0.013l-0.141,0.012l-0.141,0.011l-0.142,0.011l-0.142,0.009l-0.142,0.009l-0.142,0.007l-0.142,0.007l-0.143,0.006l-0.142,0.005l-0.144,0.004l-0.143,0.003l-0.143,0.003l-0.144,0.001l-0.144,0l-0.144,0l-0.143,-0.001l-0.143,-0.003l-0.144,-0.003l-0.143,-0.004l-0.143,-0.005l-0.142,-0.006l-0.143,-0.007l-0.142,-0.007l-0.142,-0.009l-0.142,-0.009l-0.141,-0.011l-0.142,-0.011l-0.141,-0.012l-0.14,-0.013l-0.141,-0.014l-0.14,-0.015l-0.14,-0.015l-0.141,-0.017l-0.139,-0.017l-0.139,-0.018l-0.139,-0.019l-0.139,-0.02l-0.139,-0.021l-0.138,-0.021l-0.138,-0.023l-0.138,-0.023l-0.138,-0.024l-0.137,-0.025l-0.137,-0.026l-0.136,-0.027l-0.137,-0.027l-0.136,-0.029l-0.135,-0.029l-0.136,-0.03l-0.14,-0.032l-0.265,-0.062l-0.268,-0.068l-0.266,-0.07l-0.266,-0.074l-0.264,-0.077l-0.263,-0.08l-0.261,-0.083l-0.261,-0.086l-0.258,-0.09l-0.257,-0.092l-0.256,-0.096l-0.254,-0.098l-0.253,-0.102l-0.251,-0.104l-0.25,-0.108l-0.248,-0.11l-0.246,-0.113l-0.245,-0.116l-0.243,-0.119l-0.241,-0.122l-0.24,-0.125l-0.238,-0.127l-0.236,-0.131l-0.235,-0.133l-0.232,-0.135l-0.231,-0.139l-0.229,-0.141l-0.227,-0.144l-0.226,-0.146l-0.223,-0.149l-0.222,-0.152l-0.219,-0.154l-0.218,-0.157l-0.215,-0.159l-0.214,-0.162l-0.212,-0.164l-0.209,-0.167l-0.208,-0.169l-0.205,-0.172l-0.203,-0.174l-0.201,-0.176l-0.199,-0.179l-0.197,-0.181l-0.195,-0.183l-0.192,-0.186l-0.19,-0.188l-0.188,-0.19l-0.186,-0.193l-0.184,-0.194l-0.181,-0.197l-0.178,-0.199l-0.177,-0.201l-0.174,-0.203l-0.171,-0.206l-0.169,-0.207l-0.167,-0.21l-0.164,-0.211l-0.162,-0.214l-0.16,-0.216l-0.156,-0.217l-0.154,-0.22l-0.152,-0.221l-0.149,-0.224l-0.147,-0.225l-0.143,-0.227l-0.141,-0.229l-0.139,-0.231l-0.136,-0.233l-0.133,-0.234l-0.13,-0.236l-0.127,-0.238l-0.125,-0.24l-0.122,-0.241l-0.119,-0.244l-0.116,-0.244l-0.113,-0.247l-0.111,-0.248l-0.107,-0.249l-0.105,-0.251l-0.101,-0.253l-0.099,-0.254l-0.095,-0.256l-0.093,-0.257l-0.089,-0.259l-0.086,-0.26l-0.084,-0.261l-0.08,-0.263l-0.076,-0.264l-0.074,-0.266l-0.071,-0.267l-0.067,-0.268l-0.063,-0.265l-0.032,-0.139l-0.03,-0.136l-0.029,-0.136l-0.028,-0.136l-0.028,-0.136l-0.026,-0.137l-0.026,-0.137l-0.025,-0.137l-0.024,-0.137l-0.024,-0.138l-0.022,-0.138l-0.022,-0.138l-0.02,-0.139l-0.02,-0.139l-0.019,-0.139l-0.018,-0.139l-0.018,-0.14l-0.016,-0.14l-0.016,-0.14l-0.015,-0.14l-0.013,-0.141l-0.013,-0.141l-0.012,-0.141l-0.012,-0.141l-0.01,-0.142l-0.009,-0.141l-0.009,-0.142l-0.008,-0.143l-0.006,-0.142l-0.006,-0.143l-0.005,-0.143l-0.004,-0.143l-0.004,-0.143l-0.002,-0.143l-0.001,-0.144l-0.001,-0.144l0.001,-0.143l0.001,-0.144l0.002,-0.144l0.004,-0.143l0.004,-0.143l0.005,-0.143l0.006,-0.142l0.006,-0.143l0.008,-0.142l0.009,-0.142l0.009,-0.142l0.01,-0.141l0.012,-0.142l0.012,-0.141l0.013,-0.14l0.013,-0.141l0.015,-0.14l0.016,-0.141l0.016,-0.139l0.018,-0.14l0.018,-0.139l0.019,-0.139l0.02,-0.139l0.02,-0.139l0.022,-0.138l0.022,-0.138l0.024,-0.138l0.024,-0.138l0.025,-0.137l0.026,-0.137l0.026,-0.136l0.028,-0.137l0.028,-0.136l0.029,-0.136l0.03,-0.135l0.032,-0.14l0.063,-0.265l0.067,-0.268l0.071,-0.266l0.074,-0.266l0.076,-0.264l0.08,-0.263l0.084,-0.262l0.086,-0.26l0.089,-0.258l0.093,-0.257l0.095,-0.256l0.099,-0.254l0.101,-0.253l0.105,-0.251l0.107,-0.25l0.111,-0.248l0.113,-0.246l0.116,-0.245l0.119,-0.243l0.122,-0.241l0.125,-0.24l0.127,-0.238l0.13,-0.236l0.133,-0.235l0.136,-0.232l0.139,-0.231l0.141,-0.229l0.143,-0.227l0.147,-0.226l0.149,-0.223l0.152,-0.222l0.154,-0.219l0.156,-0.218l0.16,-0.215l0.162,-0.214l0.164,-0.211l0.167,-0.21l0.169,-0.208l0.171,-0.205l0.174,-0.203l0.177,-0.201l0.178,-0.199l0.182,-0.197l0.183,-0.195l0.186,-0.192l0.188,-0.19l0.19,-0.188l0.192,-0.186l0.195,-0.183l0.197,-0.182l0.199,-0.178l0.201,-0.177l0.203,-0.174l0.205,-0.171l0.208,-0.169l0.209,-0.167l0.212,-0.164l0.214,-0.162l0.215,-0.16l0.218,-0.156l0.219,-0.154l0.222,-0.152l0.223,-0.149l0.226,-0.147l0.227,-0.143l0.229,-0.141l0.231,-0.139l0.232,-0.136l0.235,-0.133l0.236,-0.13l0.238,-0.127l0.24,-0.125l0.241,-0.122l0.243,-0.119l0.245,-0.116l0.246,-0.113l0.248,-0.111l0.25,-0.107l0.251,-0.105l0.253,-0.101l0.254,-0.099l0.256,-0.095l0.257,-0.093l0.258,-0.089l0.26,-0.086l0.262,-0.084l0.263,-0.08l0.264,-0.076l0.265,-0.074l0.267,-0.071l0.268,-0.067l0.265,-0.063l0.14,-0.032l0.136,-0.03l0.135,-0.029l0.136,-0.028l0.137,-0.028l0.136,-0.026l0.137,-0.026l0.137,-0.025l0.138,-0.024l0.138,-0.024l0.138,-0.022l0.138,-0.022l0.139,-0.02l0.138,-0.02l0.14,-0.019l0.139,-0.018l0.14,-0.018l0.139,-0.016l0.141,-0.016l0.14,-0.015l0.141,-0.013l0.14,-0.013l0.142,-0.012l0.141,-0.012l0.141,-0.01l0.142,-0.009l0.142,-0.009l0.142,-0.008l0.143,-0.006l0.142,-0.006l0.143,-0.005l0.143,-0.004l0.143,-0.004l0.144,-0.002l0.143,-0.001l0.144,-0.001l0.144,0.001Zm-0.249,6l-0.106,0.001l-0.105,0.001l-0.106,0.003l-0.105,0.003l-0.104,0.003l-0.105,0.005l-0.105,0.005l-0.104,0.005l-0.104,0.007l-0.104,0.006l-0.103,0.008l-0.104,0.008l-0.103,0.009l-0.103,0.01l-0.103,0.01l-0.103,0.01l-0.102,0.012l-0.102,0.012l-0.103,0.013l-0.101,0.013l-0.102,0.014l-0.101,0.014l-0.102,0.015l-0.101,0.016l-0.1,0.017l-0.101,0.017l-0.1,0.017l-0.101,0.019l-0.099,0.018l-0.1,0.02l-0.1,0.02l-0.099,0.02l-0.099,0.022l-0.099,0.022l-0.094,0.021l-0.201,0.048l-0.195,0.049l-0.195,0.051l-0.193,0.054l-0.193,0.056l-0.192,0.058l-0.19,0.061l-0.19,0.063l-0.188,0.065l-0.188,0.068l-0.186,0.069l-0.186,0.072l-0.184,0.074l-0.183,0.076l-0.183,0.079l-0.181,0.08l-0.179,0.083l-0.179,0.085l-0.178,0.087l-0.176,0.089l-0.175,0.091l-0.174,0.093l-0.172,0.095l-0.172,0.097l-0.17,0.099l-0.169,0.102l-0.167,0.103l-0.166,0.105l-0.165,0.107l-0.163,0.109l-0.162,0.111l-0.161,0.113l-0.159,0.115l-0.158,0.116l-0.157,0.119l-0.155,0.12l-0.153,0.122l-0.152,0.124l-0.15,0.126l-0.149,0.127l-0.148,0.129l-0.146,0.131l-0.144,0.133l-0.142,0.134l-0.141,0.137l-0.14,0.137l-0.137,0.14l-0.137,0.141l-0.134,0.142l-0.133,0.144l-0.131,0.146l-0.129,0.148l-0.127,0.149l-0.126,0.15l-0.124,0.152l-0.122,0.153l-0.12,0.155l-0.119,0.157l-0.116,0.158l-0.115,0.159l-0.113,0.16l-0.111,0.163l-0.109,0.163l-0.107,0.165l-0.105,0.166l-0.103,0.167l-0.102,0.169l-0.099,0.17l-0.097,0.172l-0.095,0.172l-0.093,0.174l-0.091,0.175l-0.089,0.176l-0.087,0.178l-0.085,0.179l-0.083,0.179l-0.08,0.181l-0.079,0.183l-0.076,0.183l-0.074,0.184l-0.072,0.185l-0.069,0.187l-0.068,0.188l-0.065,0.188l-0.063,0.19l-0.061,0.19l-0.058,0.192l-0.056,0.193l-0.054,0.193l-0.051,0.195l-0.049,0.195l-0.048,0.201l-0.021,0.094l-0.022,0.099l-0.022,0.099l-0.02,0.099l-0.02,0.1l-0.02,0.1l-0.019,0.099l-0.018,0.101l-0.017,0.1l-0.017,0.101l-0.017,0.1l-0.016,0.101l-0.015,0.102l-0.014,0.101l-0.014,0.102l-0.013,0.101l-0.013,0.102l-0.012,0.103l-0.012,0.102l-0.01,0.103l-0.01,0.103l-0.01,0.103l-0.009,0.103l-0.008,0.104l-0.008,0.103l-0.006,0.104l-0.007,0.104l-0.005,0.104l-0.005,0.105l-0.005,0.105l-0.003,0.104l-0.003,0.105l-0.003,0.106l-0.001,0.105l-0.001,0.105l-0.001,0.106l0.001,0.106l0.001,0.106l0.001,0.105l0.003,0.105l0.003,0.105l0.003,0.105l0.005,0.105l0.005,0.104l0.005,0.104l0.007,0.104l0.006,0.104l0.008,0.104l0.008,0.103l0.009,0.104l0.01,0.103l0.01,0.103l0.01,0.102l0.012,0.103l0.012,0.102l0.013,0.102l0.013,0.102l0.014,0.102l0.014,0.101l0.015,0.101l0.016,0.101l0.017,0.101l0.017,0.101l0.017,0.1l0.018,0.1l0.019,0.1l0.02,0.1l0.02,0.099l0.02,0.099l0.022,0.1l0.022,0.098l0.021,0.094l0.048,0.201l0.049,0.196l0.051,0.194l0.054,0.194l0.056,0.193l0.058,0.191l0.061,0.191l0.063,0.189l0.065,0.189l0.068,0.188l0.069,0.186l0.072,0.186l0.074,0.184l0.076,0.183l0.079,0.182l0.08,0.181l0.083,0.18l0.085,0.179l0.087,0.177l0.089,0.176l0.091,0.175l0.093,0.174l0.095,0.173l0.097,0.171l0.099,0.17l0.102,0.169l0.103,0.168l0.105,0.166l0.107,0.165l0.109,0.163l0.111,0.162l0.113,0.161l0.115,0.159l0.116,0.158l0.119,0.156l0.12,0.155l0.122,0.154l0.124,0.152l0.126,0.15l0.127,0.149l0.129,0.147l0.131,0.146l0.133,0.144l0.134,0.143l0.137,0.141l0.137,0.139l0.14,0.138l0.141,0.136l0.142,0.135l0.144,0.132l0.146,0.131l0.148,0.129l0.149,0.128l0.15,0.126l0.152,0.123l0.153,0.123l0.155,0.12l0.157,0.118l0.158,0.117l0.159,0.115l0.16,0.112l0.163,0.111l0.163,0.11l0.165,0.107l0.166,0.105l0.167,0.103l0.169,0.101l0.17,0.099l0.172,0.098l0.172,0.095l0.174,0.093l0.175,0.091l0.176,0.089l0.178,0.087l0.179,0.085l0.179,0.082l0.182,0.081l0.182,0.078l0.183,0.077l0.184,0.074l0.186,0.071l0.186,0.07l0.188,0.068l0.188,0.065l0.19,0.063l0.19,0.06l0.192,0.059l0.193,0.056l0.193,0.053l0.195,0.052l0.195,0.049l0.201,0.048l0.094,0.021l0.099,0.022l0.099,0.021l0.099,0.021l0.1,0.02l0.1,0.019l0.099,0.019l0.101,0.018l0.1,0.018l0.101,0.017l0.1,0.016l0.101,0.016l0.102,0.015l0.101,0.015l0.102,0.014l0.101,0.013l0.103,0.013l0.102,0.012l0.102,0.011l0.103,0.011l0.103,0.01l0.103,0.01l0.103,0.008l0.104,0.009l0.103,0.007l0.104,0.007l0.104,0.006l0.104,0.006l0.105,0.005l0.105,0.004l0.105,0.004l0.104,0.003l0.105,0.002l0.106,0.002l0.106,0.001l0.105,0l0.106,0l0.106,-0.001l0.105,-0.002l0.105,-0.002l0.105,-0.003l0.105,-0.004l0.105,-0.004l0.104,-0.005l0.104,-0.006l0.105,-0.006l0.103,-0.007l0.104,-0.007l0.103,-0.009l0.104,-0.008l0.103,-0.01l0.103,-0.01l0.102,-0.011l0.103,-0.011l0.102,-0.012l0.102,-0.013l0.102,-0.013l0.102,-0.014l0.101,-0.015l0.101,-0.015l0.101,-0.016l0.101,-0.016l0.101,-0.017l0.1,-0.018l0.1,-0.018l0.1,-0.019l0.1,-0.019l0.099,-0.02l0.1,-0.021l0.099,-0.021l0.098,-0.022l0.094,-0.021l0.201,-0.048l0.196,-0.049l0.194,-0.052l0.194,-0.053l0.193,-0.056l0.191,-0.059l0.191,-0.06l0.189,-0.063l0.189,-0.065l0.188,-0.068l0.186,-0.07l0.185,-0.071l0.185,-0.074l0.183,-0.077l0.182,-0.078l0.181,-0.081l0.18,-0.082l0.179,-0.085l0.177,-0.087l0.176,-0.089l0.176,-0.091l0.173,-0.093l0.173,-0.095l0.171,-0.098l0.17,-0.099l0.169,-0.101l0.168,-0.103l0.166,-0.105l0.165,-0.107l0.163,-0.11l0.162,-0.111l0.161,-0.112l0.159,-0.115l0.158,-0.117l0.156,-0.118l0.155,-0.12l0.154,-0.123l0.152,-0.123l0.15,-0.126l0.149,-0.128l0.147,-0.129l0.146,-0.131l0.144,-0.132l0.143,-0.135l0.141,-0.136l0.139,-0.138l0.138,-0.139l0.136,-0.141l0.135,-0.143l0.132,-0.144l0.131,-0.146l0.129,-0.147l0.128,-0.149l0.126,-0.15l0.123,-0.152l0.123,-0.154l0.12,-0.155l0.118,-0.156l0.117,-0.158l0.115,-0.159l0.112,-0.161l0.111,-0.162l0.11,-0.163l0.107,-0.165l0.105,-0.166l0.103,-0.168l0.101,-0.169l0.099,-0.17l0.098,-0.171l0.095,-0.173l0.093,-0.174l0.091,-0.175l0.089,-0.176l0.087,-0.177l0.085,-0.179l0.082,-0.18l0.081,-0.181l0.078,-0.182l0.077,-0.183l0.074,-0.185l0.071,-0.185l0.07,-0.186l0.067,-0.188l0.066,-0.188l0.063,-0.19l0.06,-0.191l0.059,-0.191l0.056,-0.193l0.053,-0.194l0.052,-0.194l0.049,-0.196l0.048,-0.201l0.021,-0.094l0.022,-0.098l0.021,-0.1l0.021,-0.099l0.02,-0.099l0.019,-0.1l0.019,-0.1l0.018,-0.1l0.018,-0.1l0.017,-0.101l0.016,-0.101l0.016,-0.101l0.015,-0.101l0.015,-0.101l0.014,-0.102l0.013,-0.102l0.013,-0.102l0.012,-0.102l0.011,-0.103l0.011,-0.102l0.01,-0.103l0.01,-0.103l0.008,-0.104l0.009,-0.103l0.007,-0.104l0.007,-0.103l0.006,-0.105l0.006,-0.104l0.005,-0.104l0.004,-0.105l0.004,-0.105l0.003,-0.105l0.002,-0.105l0.002,-0.105l0.001,-0.106l0,-0.106l0,-0.105l-0.001,-0.106l-0.002,-0.105l-0.002,-0.106l-0.003,-0.105l-0.004,-0.104l-0.004,-0.105l-0.005,-0.105l-0.006,-0.104l-0.006,-0.104l-0.007,-0.104l-0.007,-0.103l-0.009,-0.104l-0.008,-0.103l-0.01,-0.103l-0.01,-0.103l-0.011,-0.103l-0.011,-0.102l-0.012,-0.103l-0.013,-0.102l-0.013,-0.101l-0.014,-0.102l-0.015,-0.101l-0.015,-0.102l-0.016,-0.101l-0.016,-0.1l-0.017,-0.101l-0.018,-0.1l-0.018,-0.101l-0.019,-0.099l-0.019,-0.1l-0.02,-0.1l-0.021,-0.099l-0.021,-0.099l-0.022,-0.099l-0.021,-0.094l-0.048,-0.201l-0.049,-0.195l-0.052,-0.195l-0.053,-0.193l-0.056,-0.193l-0.059,-0.192l-0.06,-0.19l-0.063,-0.19l-0.066,-0.189l-0.067,-0.187l-0.07,-0.186l-0.071,-0.186l-0.074,-0.184l-0.077,-0.183l-0.078,-0.182l-0.081,-0.182l-0.082,-0.179l-0.085,-0.179l-0.087,-0.178l-0.089,-0.176l-0.091,-0.175l-0.093,-0.174l-0.095,-0.172l-0.098,-0.172l-0.099,-0.17l-0.101,-0.168l-0.103,-0.168l-0.105,-0.166l-0.107,-0.165l-0.11,-0.163l-0.111,-0.163l-0.112,-0.16l-0.115,-0.159l-0.117,-0.158l-0.118,-0.157l-0.12,-0.155l-0.123,-0.153l-0.123,-0.152l-0.126,-0.15l-0.128,-0.149l-0.129,-0.148l-0.131,-0.146l-0.132,-0.144l-0.135,-0.142l-0.136,-0.141l-0.138,-0.14l-0.139,-0.138l-0.141,-0.136l-0.143,-0.134l-0.144,-0.133l-0.146,-0.131l-0.147,-0.129l-0.149,-0.127l-0.15,-0.126l-0.152,-0.124l-0.154,-0.122l-0.155,-0.12l-0.156,-0.119l-0.158,-0.116l-0.159,-0.115l-0.161,-0.113l-0.162,-0.111l-0.163,-0.109l-0.165,-0.107l-0.166,-0.105l-0.168,-0.103l-0.169,-0.102l-0.17,-0.099l-0.171,-0.097l-0.173,-0.095l-0.173,-0.093l-0.176,-0.091l-0.176,-0.089l-0.177,-0.087l-0.179,-0.085l-0.18,-0.083l-0.181,-0.08l-0.182,-0.079l-0.183,-0.076l-0.184,-0.074l-0.186,-0.072l-0.186,-0.069l-0.188,-0.068l-0.189,-0.065l-0.189,-0.063l-0.191,-0.061l-0.191,-0.058l-0.193,-0.056l-0.194,-0.054l-0.194,-0.051l-0.196,-0.049l-0.201,-0.048l-0.094,-0.021l-0.098,-0.022l-0.099,-0.021l-0.1,-0.021l-0.099,-0.02l-0.1,-0.02l-0.1,-0.019l-0.1,-0.018l-0.1,-0.017l-0.101,-0.017l-0.101,-0.017l-0.101,-0.016l-0.101,-0.015l-0.101,-0.014l-0.102,-0.014l-0.102,-0.013l-0.102,-0.013l-0.102,-0.012l-0.103,-0.012l-0.102,-0.01l-0.103,-0.01l-0.103,-0.01l-0.104,-0.009l-0.103,-0.008l-0.104,-0.008l-0.104,-0.006l-0.104,-0.007l-0.104,-0.005l-0.104,-0.005l-0.105,-0.005l-0.105,-0.003l-0.105,-0.003l-0.105,-0.003l-0.105,-0.001l-0.106,-0.001l-0.106,-0.001l-0.105,0.001Z" style="fill:#fff;"/></g><path d="M66.328,53.092l-4.909,3.449l-21.146,-30.101l4.909,-3.449l21.146,30.101Z" style="fill:#fff;"/></g></svg>
