<?xml version="1.0" standalone="no"?>
<!DOCTYPE svg PUBLIC "-//W3C//DTD SVG 20010904//EN"
 "http://www.w3.org/TR/2001/REC-SVG-20010904/DTD/svg10.dtd">
<svg version="1.0" xmlns="http://www.w3.org/2000/svg"
 width="680.000000pt" height="680.000000pt" viewBox="0 0 680.000000 680.000000"
 preserveAspectRatio="xMidYMid meet">
<metadata>
Created by potrace 1.11, written by Peter Selinger 2001-2013
</metadata>
<g transform="translate(0.000000,680.000000) scale(0.100000,-0.100000)"
fill="#000000" stroke="none">
<path d="M4987 6789 c-104 -25 -252 -133 -399 -290 -181 -194 -325 -383 -368
-485 -11 -24 -23 -44 -28 -44 -25 0 -209 -136 -290 -214 -142 -138 -212 -245
-252 -387 -37 -136 -29 -202 68 -539 160 -553 246 -699 472 -808 146 -70 350
-135 708 -227 195 -51 294 -58 411 -29 88 22 210 83 298 150 116 89 262 255
314 357 11 20 26 37 35 37 41 0 238 126 402 258 265 212 414 394 429 522 7 64
-10 91 -85 128 -134 67 -265 85 -614 86 l-277 1 -40 82 c-110 227 -191 306
-428 420 -112 54 -114 56 -108 84 12 52 9 442 -4 541 -20 156 -68 295 -117
340 -25 21 -79 29 -127 17z"/>
<path d="M1612 6756 c-87 -100 -128 -347 -120 -722 l5 -223 -31 -11 c-17 -6
-74 -34 -126 -63 -168 -92 -267 -206 -356 -407 l-42 -95 -108 5 c-158 7 -397
2 -484 -10 -145 -21 -280 -70 -323 -118 -65 -72 3 -242 171 -425 155 -169 429
-395 555 -457 59 -29 70 -39 107 -101 85 -143 241 -312 364 -393 125 -82 271
-124 392 -112 128 13 663 175 831 252 179 81 254 154 334 323 67 140 192 551
254 835 65 294 -125 639 -475 865 -57 37 -68 49 -97 112 -86 186 -401 572
-559 685 -86 61 -160 94 -215 94 -41 0 -51 -4 -77 -34z"/>
<path d="M5150 3173 c-86 -15 -494 -135 -660 -195 -137 -49 -279 -126 -341
-185 -116 -110 -209 -345 -350 -888 -65 -249 -58 -389 28 -560 74 -146 246
-334 397 -432 74 -49 80 -56 117 -131 67 -138 328 -476 462 -598 157 -143 299
-205 365 -159 96 68 151 368 139 762 l-7 201 77 36 c169 80 263 153 334 258
40 59 139 253 139 272 0 8 72 10 241 7 264 -3 382 7 509 43 161 47 212 100
191 197 -25 116 -110 238 -284 405 -192 186 -432 368 -511 388 -14 3 -28 15
-31 26 -14 45 -127 201 -205 283 -133 140 -258 219 -407 258 -71 18 -144 22
-203 12z"/>
<path d="M1560 3048 c-91 -13 -189 -49 -284 -105 -109 -65 -291 -246 -366
-365 -30 -48 -61 -87 -68 -87 -43 -3 -230 -123 -393 -252 -334 -266 -500 -508
-419 -611 73 -94 366 -146 751 -134 l205 6 40 -83 c109 -228 215 -331 444
-433 52 -24 94 -47 93 -52 -7 -34 -10 -405 -3 -487 16 -189 57 -335 115 -402
30 -35 36 -38 86 -37 107 1 259 95 420 262 187 193 337 384 391 499 17 35 33
63 38 63 18 0 191 122 263 186 138 124 246 284 281 420 34 131 19 235 -84 578
-116 387 -190 552 -296 658 -109 108 -437 232 -924 347 -150 35 -204 41 -290
29z"/>
</g>
</svg>
