<svg xmlns="http://www.w3.org/2000/svg" viewBox="0 0 640 640"><!--! Font Awesome Free 7.3.0 by @fontawesome - https://fontawesome.com License - https://fontawesome.com/license/free (Icons: CC BY 4.0, Fonts: SIL OFL 1.1, Code: MIT License) Copyright 2026 Fonticons, Inc. --><path fill="currentColor" d="M320 64C434.9 64 528 157.1 528 272C528 366.2 454.6 467.3 373.6 500.6L397.7 554.9C399.2 558.3 400 561.9 400 565.6C400 580.2 388.2 592 373.6 592L266.4 592C251.8 592 240 580.2 240 565.6C240 561.9 240.8 558.3 242.3 554.9L266.4 500.6C185.4 467.3 112 366.2 112 272C112 157.1 205.1 64 320 64zM319.4 149.6C316.7 136.6 304.1 128.2 291.1 130.8C228.5 143.6 180.6 197 176.3 262.3C175.4 275.5 185.5 287 198.7 287.8C211.9 288.7 223.3 278.6 224.2 265.4C227.1 221.9 259 186.3 300.7 177.8C313.7 175.2 322.1 162.5 319.4 149.5z"/></svg>