<svg xmlns="http://www.w3.org/2000/svg" viewBox="0 0 640 640"><!--! Font Awesome Free 7.3.0 by @fontawesome - https://fontawesome.com License - https://fontawesome.com/license/free (Icons: CC BY 4.0, Fonts: SIL OFL 1.1, Code: MIT License) Copyright 2026 Fonticons, Inc. --><path fill="currentColor" d="M64 320C64 368.1 77.5 415.3 103.1 456L316.5 180.1C318 178.1 321.9 178.1 323.4 180.1L412.5 295.3L348.7 295.3L350.1 300.4L416.5 300.4L435.3 324.7L356.9 324.7L359.1 332.7L441.5 332.7L458.1 354.1L365.1 354.1L368 364.4L466 364.4L480.8 383.5L373.3 383.5L376.8 396.1L490.4 396.1L503.4 412.9L381.4 412.9L385.3 426.8L514.1 426.8L526.1 442.3L389.6 442.3L393.5 456.2L536.8 456.2C562.5 415.2 576 368 576 320C576 178.6 461.4 64 320 64C178.6 64 64 178.6 64 320zM397.9 471.5L401.8 485.4L515.4 485.4C519.1 481 522.9 476.2 526.4 471.5L397.9 471.5zM406.1 500.9L409.9 514.8L485.9 514.8C490.9 510.6 496.3 505.7 501.1 500.9L406.1 500.9zM414.3 530.3L418.2 544.1L443.9 544.1C451.5 539.7 458.5 535.3 466.1 530.3L414.3 530.3z"/></svg>