<svg xmlns="http://www.w3.org/2000/svg" viewBox="0 0 640 640"><!--! Font Awesome Free 7.3.0 by @fontawesome - https://fontawesome.com License - https://fontawesome.com/license/free (Icons: CC BY 4.0, Fonts: SIL OFL 1.1, Code: MIT License) Copyright 2026 Fonticons, Inc. --><path fill="currentColor" d="M480 96C515.3 96 544 124.7 544 160L544 480C544 515.3 515.3 544 480 544L160 544C124.7 544 96 515.3 96 480L96 160C96 124.7 124.7 96 160 96L480 96zM319.7 160C231.3 160 160 232.2 160 320.6C160 390 204.1 447.5 263.4 469C271.8 472.1 280 466.5 280 458.1L280 433.1C275.6 435 270 436.2 265 436.2C244.4 436.2 232.2 425 223.4 404C220 395.6 216.2 390.6 209 389.6C205.3 389.3 204 387.7 204 385.8C204 382.1 210.2 379.2 216.5 379.2C225.6 379.2 233.4 384.8 241.5 396.4C247.7 405.5 254.3 409.5 262.1 409.5C269.9 409.5 274.9 406.7 282.1 399.5C287.4 394.2 291.5 389.5 295.2 386.4C253.9 381.4 224.9 351.7 224.9 313.3C224.9 297.7 230.5 280.8 239.9 269.5C235.8 259.2 236.5 237.3 241.1 228.3C253.6 226.7 270.5 233.3 280.5 242.4C292.4 238.7 304.9 236.8 320.2 236.8C335.5 236.8 348 238.7 359.3 242.1C369 233.3 386.2 226.8 398.7 228.3C403.1 236.7 403.7 258.6 399.6 269.2C409.6 281.1 414.9 297 414.9 313.3C414.9 351.7 385.8 380.8 344 386.1C354.6 393 361.8 408 361.8 425.2L361.8 457.7C361.8 467.1 369.6 472.4 379 468.6C435.6 447 479.9 390.5 479.9 320.5C479.9 232.1 408 159.9 319.6 159.9z"/></svg>