<svg xmlns="http://www.w3.org/2000/svg" viewBox="0 0 640 640"><!--! Font Awesome Free 7.3.0 by @fontawesome - https://fontawesome.com License - https://fontawesome.com/license/free (Icons: CC BY 4.0, Fonts: SIL OFL 1.1, Code: MIT License) Copyright 2026 Fonticons, Inc. --><path fill="currentColor" d="M320.6 167.5C349.1 167.5 376.5 178.8 396.7 199C416.9 219.2 428.2 246.5 428.2 275.1L428.2 306.9L453.1 306.9C458.5 306.9 463.7 309.1 467.6 312.9C471.5 316.7 473.6 322 473.7 327.4L473.7 523.5C473.7 528.9 471.5 534.2 467.7 538C463.9 541.8 458.6 544 453.2 544L188.1 544C182.7 544 177.4 541.8 173.6 538C169.8 534.2 167.6 528.9 167.5 523.5L167.5 327.5C167.5 322.1 169.7 316.8 173.6 313C177.5 309.2 182.7 307 188.1 307L213 307L213 275.2C213 246.7 224.4 219.3 244.5 199.1C264.6 178.9 292.1 167.6 320.6 167.6zM320.6 384.5C314.6 384.5 308.7 386.5 303.9 390.2C299.1 393.9 295.7 399.1 294.2 404.9C292.7 410.7 293.1 416.9 295.4 422.5C297.7 428.1 301.9 432.7 307.1 435.6L307.1 462.2C307.1 465.8 308.5 469.2 311 471.7C313.5 474.2 316.9 475.6 320.5 475.6C324.1 475.6 327.5 474.2 330 471.7C332.5 469.2 333.9 465.8 333.9 462.2L333.9 435.6C339.1 432.6 343.3 428 345.6 422.5C347.9 417 348.4 410.8 346.9 404.9C345.4 399 342 393.9 337.2 390.2C332.4 386.5 326.5 384.5 320.5 384.5zM320.6 229.2C308.4 229.2 296.7 234 288.1 242.6C279.5 251.2 274.7 262.9 274.7 275.1L274.7 306.9L366.5 306.9L366.5 275.1C366.5 262.9 361.7 251.2 353.1 242.6C344.5 234 332.8 229.2 320.6 229.2zM161.2 240C165.9 240.4 170.4 242.5 173.6 246C176.8 249.5 178.6 254.1 178.6 258.8C178.6 263.5 176.8 268.1 173.6 271.6C170.4 275.1 165.9 277.2 161.2 277.6L97.2 277.6C92.5 277.2 88.1 275.1 84.8 271.6C81.5 268.1 79.8 263.5 79.8 258.8C79.8 254.1 81.6 249.5 84.8 246C88 242.5 92.4 240.4 97.2 240L161.2 240zM544 240C548.7 240.4 553.2 242.5 556.4 246C559.6 249.5 561.4 254.1 561.4 258.8C561.4 263.5 559.6 268.1 556.4 271.6C553.2 275.1 548.7 277.2 544 277.6L479.4 277.6C476.8 277.8 474.2 277.5 471.8 276.6C469.4 275.7 467.1 274.4 465.2 272.6C463.3 270.8 461.8 268.7 460.8 266.3C459.8 263.9 459.2 261.4 459.2 258.8C459.2 256.2 459.7 253.6 460.8 251.3C461.9 249 463.3 246.8 465.2 245C467.1 243.2 469.4 241.9 471.8 241C474.2 240.1 476.8 239.8 479.4 240L544 240zM154.2 98.8C158.9 98.2 163.7 99.3 167.6 102.1L218.2 143.7C221.2 146.2 223.4 149.5 224.4 153.2C225.4 156.9 225.3 160.9 224 164.5C222.7 168.1 220.3 171.3 217.1 173.5C213.9 175.7 210.2 176.9 206.3 176.9L206.3 177C201.9 177 197.7 175.5 194.3 172.7L143.7 131C140.3 127.7 138.2 123.3 137.9 118.5C137.6 113.7 139.1 109.1 142.2 105.4C145.3 101.7 149.5 99.4 154.2 98.7zM487.1 98.5C491.9 99.1 496.3 101.5 499.3 105.2C502.3 108.9 503.9 113.7 503.5 118.5C503.1 123.3 500.9 127.8 497.3 131.1L446.7 172.7C443.3 175.5 439.1 177 434.8 177C430.9 177 427.1 175.8 424 173.6C420.9 171.4 418.4 168.2 417.1 164.5C415.8 160.8 415.7 156.9 416.7 153.2C417.7 149.5 419.9 146.1 422.9 143.7L473.7 102C477.6 99.1 482.4 97.9 487.2 98.4zM320.6 32C325.3 32 329.9 33.8 333.4 37C336.9 40.2 339 44.7 339.4 49.4L339.4 113.9C339.4 118.9 337.4 123.6 333.9 127.1C330.4 130.6 325.6 132.6 320.6 132.6C315.6 132.6 310.8 130.6 307.3 127.1C303.8 123.6 301.8 118.8 301.8 113.8L301.8 49.4C302.2 44.7 304.3 40.2 307.8 37C311.3 33.8 315.9 32 320.6 32z"/></svg>