<svg xmlns="http://www.w3.org/2000/svg" viewBox="0 0 640 640"><!--! Font Awesome Free 7.3.0 by @fontawesome - https://fontawesome.com License - https://fontawesome.com/license/free (Icons: CC BY 4.0, Fonts: SIL OFL 1.1, Code: MIT License) Copyright 2026 Fonticons, Inc. --><path fill="currentColor" d="M125.6 91L92.7 91L92.7 549L125.6 549L125.6 560L80 560L80 80L125.6 80L125.6 91zM560 560L514.4 560L514.4 549L547.3 549L547.3 91L514.4 91L514.4 80L560 80L560 560zM388.1 231.6C397.1 231.6 405.5 232.7 413.3 234.9C421.1 237.1 427.6 240.6 433.1 245.5C438.6 250.4 442.9 256.7 446 264.5C449 272.3 450.6 281.8 450.6 292.8L450.6 407.3L403.6 407.3L403.6 310.3C403.6 304.6 403.4 299.1 403 294C402.6 288.9 401.3 284.5 399.4 280.8C397.4 277 394.5 274 390.7 271.8C386.9 269.6 381.6 268.5 375 268.5C368.4 268.5 363 269.8 358.9 272.3C354.8 274.9 351.6 278.1 349.3 282.3C347 286.4 345.4 291 344.7 296.2C344 301.4 343.5 306.6 343.5 311.9L343.5 407.2L296.5 407.2L296.5 311.2C296.5 306.1 296.4 301.1 296.1 296.2C295.9 291.2 294.9 286.7 293.2 282.4C291.5 278.3 288.8 274.8 284.9 272.3C281 269.8 275.4 268.5 267.8 268.5C265.6 268.5 262.6 269 259 270C255.4 271 251.8 272.9 248.4 275.6C245 278.3 242 282.3 239.6 287.5C237.2 292.7 236 299.5 236 307.9L236 407.2L189 407.2L189 235.9L233.3 235.9L233.3 259.1L234 259.1C240.2 250.2 247.7 243.4 256.3 238.6C265 233.7 275 231.3 286.3 231.3C297.1 231.3 307 233.4 315.9 237.6C324.8 241.8 331.6 249.2 336.3 259.8C341.4 252.3 348.3 245.7 357 240C365.7 234.3 376 231.4 387.9 231.4z"/></svg>