<svg xmlns="http://www.w3.org/2000/svg" viewBox="0 0 640 640"><!--! Font Awesome Free 7.3.0 by @fontawesome - https://fontawesome.com License - https://fontawesome.com/license/free (Icons: CC BY 4.0, Fonts: SIL OFL 1.1, Code: MIT License) Copyright 2026 Fonticons, Inc. --><path fill="currentColor" d="M326.9 64.1L291.9 105.5C227 117.2 171 161.5 149 226.5C116.3 323.1 171.2 429.1 271.6 463.1C372 497.1 480 446.2 512.7 349.5C534.6 284.7 517.2 215.8 473.2 167.2L470.5 112.9C558.8 177 599.3 293.3 562.5 402.1C517.1 536 371.8 607.7 238 562.4C104.2 517.1 32.3 371.8 77.6 237.9C114.5 129 217.6 61.1 326.9 64.1zM398.7 87.7C400.1 88.2 401.2 89.2 401.9 90.4C401.9 90.5 402 90.5 402.1 90.6C402.2 90.7 402.2 90.8 402.2 90.9C402.5 91.5 402.8 92.3 403 93.2C403.6 97.5 403.4 115.3 403.4 115.7L404.4 153.6L405.9 197.3L407.8 273.3C407.8 274 408.3 308.5 384.4 332C360.2 355.7 330.4 353.6 311.1 347C291.8 340.4 266.8 324.1 261.9 290.5C257 256.9 278.9 229.7 278.9 229.7L326.4 170.3L354.1 136.5L378 107C378.2 106.7 389 92.3 392 89.3C392.6 88.7 393.3 88.3 393.9 88C394 87.9 394.2 87.8 394.3 87.8L394.4 87.8C395.7 87.2 397.2 87.1 398.7 87.6z"/></svg>