<svg xmlns="http://www.w3.org/2000/svg" viewBox="0 0 640 640"><!--! Font Awesome Free 7.3.0 by @fontawesome - https://fontawesome.com License - https://fontawesome.com/license/free (Icons: CC BY 4.0, Fonts: SIL OFL 1.1, Code: MIT License) Copyright 2026 Fonticons, Inc. --><path fill="currentColor" d="M327.8 468.7C337.8 468.7 344.2 472.9 347.1 475.3C348.4 476.4 348.7 477.7 347.3 479.3L346.5 480.6C345.4 482.2 344.1 482.2 342.5 481.1C339.9 479.2 334.8 475.8 328 475.8C315.3 475.8 305.3 485.3 305.3 499.3C305.3 513 315.3 522.5 328 522.6C336.2 522.6 341.7 518.9 344.4 516.5C346 515.4 347.1 515.7 348.1 517.3L348.9 518.4C349.7 520 349.4 521 348.1 522.4C345.2 524.8 338 529.8 327.5 529.8C310.3 529.8 297.1 517.4 297.1 499.4C297.4 481.4 310.6 468.7 327.8 468.7zM163.6 468.7C179.2 468.7 187.9 479.8 187.9 496.5C187.9 498.1 186.6 499.4 185 499.4L143 499.4C143.3 514.2 153.6 522.6 165.5 522.7C172.9 522.7 178.2 519.5 180.8 517.4C182.4 516.3 183.7 516.6 184.5 518.2L185.3 519.5C186.1 520.8 185.8 522.1 184.5 523.2C181.3 525.6 174.5 529.5 165.2 529.5C148 529.5 134.8 517.1 134.8 499.1C135.1 480.1 147.8 468.7 163.6 468.7zM417.2 468.7C434.1 468.7 447.9 481.7 447.9 498.8C447.9 516.2 434.2 529.4 417.2 529.5C400.2 529.6 386.5 516.3 386.5 498.8C386.5 481.6 400.3 468.7 417.2 468.7zM465.5 470C467.3 470 468.4 471.1 468.4 472.9L468.4 504.9C468.4 513.9 474.5 522.1 485.6 522.1C497 522.1 502.8 513.9 502.8 504.9L502.8 472.9C502.8 471.1 503.9 470 505.7 470L507.8 470C509.6 470 510.7 471.1 510.4 472.9L510.4 507C510.4 522.1 499.3 529.5 485.6 529.5C471.9 529.5 460.8 522.1 460.8 507L460.8 472.9C460.8 471 461.6 470 463.5 470L465.6 470zM571.3 446.8C573.1 446.8 576 447.9 576 449.7L576 525C576 526.8 575.2 527.9 573.4 527.9L571.5 527.9C569.7 527.9 568.6 527.1 568.6 525.3L568.6 520.8C568.6 518.7 569.1 517.1 569.1 517.1L568.8 517.1C568.8 517.1 563.8 529.3 548.7 529.3C533.1 529.3 523.3 516.9 523.3 498.9C522.8 480.9 533.6 468.8 548.9 468.8C562.9 468.8 567.9 480.4 567.9 480.4L568.2 480.4C568.2 480.4 567.9 478.5 567.9 475.9L567.9 449.7C567.9 447.9 567.1 446.8 569 446.8L571.1 446.8zM365.9 447C367.7 447 370.6 448.1 370.6 449.9L370.6 513.1C370.6 520.5 374 521.3 376.7 521.5C378 521.5 379.1 522.3 379.1 524.2L379.1 526C379.1 527.8 378.3 528.9 376.2 528.9C371.4 528.9 363 527.3 363 514.6L363 449.9C363 448.5 362.4 447.6 362.9 447.2L363.8 447L365.9 447zM246.2 469.6C246.8 469.5 247.5 469.7 248.2 470.3L249.8 471.6C251.2 472.8 251.3 474.3 250.1 475.7L243.5 483.5L243.5 483.5L230.5 499C236.1 505.7 242.6 513.5 250.1 522.3C251.3 523.7 251.4 525 249.9 526.2L248.3 527.5C246.9 528.7 245.4 528.6 244.2 527.2L237.6 519.4L237.6 519.4L225.5 504.9C220.6 510.7 214.4 518.2 206.8 527.2C205.6 528.6 204.3 528.9 202.9 527.7L201.3 526.4C199.9 525.2 199.8 523.7 201 522.3L207.6 514.5L207.6 514.5L220.6 499L211.8 488.4L201.1 475.7C199.9 474.3 199.8 473 201.3 471.8L202.9 470.4C203.6 469.8 204.3 469.6 205 469.6C205.7 469.7 206.4 470 207 470.8C210.5 474.9 216.7 482.4 225.7 493.1C230.6 487.3 236.8 479.9 244.4 470.8C245 470.1 245.6 469.7 246.3 469.6zM271 453.9C272.9 453.9 273.7 455 273.7 456.8L273.7 470.6L285.6 470.6C287.4 470.6 288.5 471.7 288.5 473.5L288.5 474.3C288.5 476.1 287.4 477 285.6 477L273.7 477L273.7 506.1C273.7 519.6 281.9 521.2 286.4 521.4C288.8 521.7 289.6 522.2 289.6 524.3L289.6 525.9C289.6 527.7 288.8 528.5 286.4 528.5C273.7 528.5 266.1 520.8 266.1 507.1L266.1 456.9C266.1 455.1 267.2 454 269 454L271.1 454zM68.8 445.7C69.9 445.7 70.7 446.1 71.1 446.8C71.3 447 71.4 447.1 71.6 447.3L113.4 512.2L113.4 448.5C113.4 446.7 114.5 445.6 116.3 445.6L118.4 445.6C120.2 445.6 121 446.7 121 448.5L121 525.2C121 527 120.2 528.1 118.4 528.1L116.3 528.1C115.9 528.1 115.7 528 115.4 527.9C115.3 527.9 115.2 527.9 115.1 527.9C115 527.9 114.9 527.8 114.8 527.7C114.6 527.6 114.4 527.5 114.2 527.4C114.1 527.3 114.1 527.3 114 527.2C113.8 527 113.6 526.8 113.4 526.5L71.6 461.6L71.6 525.3C71.6 527.1 70.6 528.2 68.7 528.2L66.6 528.2C64.8 528.2 63.9 527.2 63.9 525.3L63.9 448.6C63.9 446.8 64.7 445.7 66.6 445.7L68.7 445.7zM417.2 475.8C404.8 475.8 394.5 485.8 394.5 498.8C394.8 512.3 404.8 522.6 417.2 522.6C429.6 522.6 439.7 512.6 439.7 498.8C439.7 485.6 429.6 475.8 417.2 475.8zM549.6 475.8C539.3 475.8 530.9 484.3 530.9 499C531.2 513.3 538.6 522.5 549.4 522.5C559.2 522.5 568.2 515.6 568.2 499C568.2 487.1 562.1 475.8 549.7 475.8zM163.4 475.3C153.6 475.3 145.2 481.7 143.3 493.5L179.8 493.5C179.3 481.3 171.9 475.3 163.4 475.3zM320.5 110.4C386.3 110.4 442.3 154.7 460.2 214.9C475.6 183.3 508 161.3 545.3 161.3C597.3 161.3 640 204 640 256C640 308 597.2 350.7 545.3 350.7C508 350.7 475.6 328.7 460.2 297.1C442.3 357.3 386.4 401.7 320.5 401.7C254.2 401.7 197.9 356.7 180.5 295.8C165.4 328.1 132.5 350.8 94.7 350.8C42.7 350.8 0 308 0 256.1C0 204.2 42.7 161.3 94.7 161.3C132.5 161.3 165.3 183.9 180.5 216.3C197.9 155.4 254.2 110.4 320.5 110.4zM320.5 166C270.7 166 230.4 206.3 230.4 256.1C230.4 305.9 270.7 346.2 320.5 346.2C370.3 346.2 410.6 305.9 410.6 256.1C410.6 206.3 370.3 166 320.5 166zM94.7 217C73.1 217 55.6 234.6 55.6 256.2C55.6 277.8 73.2 295.3 94.8 295.3C116.4 295.3 133.9 277.7 133.9 256.1C133.9 234.5 116.3 217 94.7 217zM545.2 217C523.6 217 506.1 234.5 506.1 256.2C506.1 277.8 523.6 295.3 545.2 295.3C566.8 295.3 584.4 277.8 584.4 256.2C584.4 234.5 566.8 217 545.2 217z"/></svg>