<svg xmlns="http://www.w3.org/2000/svg" viewBox="0 0 640 640"><!--! Font Awesome Free 7.3.0 by @fontawesome - https://fontawesome.com License - https://fontawesome.com/license/free (Icons: CC BY 4.0, Fonts: SIL OFL 1.1, Code: MIT License) Copyright 2026 Fonticons, Inc. --><path fill="currentColor" d="M480 96C515.3 96 544 124.7 544 160L544 480C544 515.3 515.3 544 480 544L160 544C124.7 544 96 515.3 96 480L96 160C96 124.7 124.7 96 160 96L480 96zM333.8 160.3C234.8 160.3 167.5 230.5 167.5 332.4C167.5 425.6 233.4 479.7 312 479.7C376.9 479.7 442.6 441.8 442.6 377C442.6 343.1 423.2 320.7 395.1 308C394.7 261.6 369.5 233.7 327.1 233.7C298.8 233.7 274.9 246.5 262.4 267L289.8 286C296.9 274.8 306.7 265.5 324.8 265.5C345.1 265.5 355.6 276.8 358.6 297.8C348.8 296.3 339 295.5 328.8 295.5C273.9 295.5 248.1 320.3 248 353.2C247.9 386.1 273.8 406.3 311.9 406.3C353.7 406.3 378.6 378.1 388.9 343.3C399.5 348.1 406.8 359.3 406.8 376.2C406.8 421.3 354.8 445.8 310.7 445.8C245.7 445.8 203.2 403.1 203.2 333.7C203.2 248.6 259.4 194.1 334.9 194.1C385.6 194.1 410.7 216.3 427.7 246.2L455.7 226.6C437.2 187.9 395.8 160.3 333.7 160.3zM331.8 327.5C340.8 327.5 349.6 328.1 357.5 329.8C351.9 355.4 335.3 372.6 310.8 372.6C296.5 372.6 283.9 365.8 283.9 353.3C283.9 333.6 308.1 327.6 331.9 327.6z"/></svg>