<svg xmlns="http://www.w3.org/2000/svg" viewBox="0 0 640 640"><!--! Font Awesome Free 7.3.0 by @fontawesome - https://fontawesome.com License - https://fontawesome.com/license/free (Icons: CC BY 4.0, Fonts: SIL OFL 1.1, Code: MIT License) Copyright 2026 Fonticons, Inc. --><path fill="currentColor" d="M373.1 113.8C374.1 113.8 464.6 115.9 554.6 157.6C531.4 192.4 485.4 209.6 485.4 209.6C482.3 178.9 460.7 171.4 392.1 171.4L320.1 576L247.6 171.4C179.5 171.4 157.9 179 154.7 209.6C153.8 209.2 108.4 192.1 85.5 157.6C176 115.7 267 113.8 267 113.8L320 178.4L373 113.8zM320.1 64C395.7 64.3 483.5 77 577.2 114.1C577.2 114.2 574.2 123.4 562.8 143.9C482.4 108.9 403.8 96.2 334 95.2L320.2 95.2C246.9 94.6 163.1 106.5 77.4 143.8C67.2 125.3 63 114.1 63 114.1C156.7 77 244.5 64.3 320.1 64z"/></svg>