<svg xmlns="http://www.w3.org/2000/svg" viewBox="0 0 640 640"><!--! Font Awesome Free 7.3.0 by @fontawesome - https://fontawesome.com License - https://fontawesome.com/license/free (Icons: CC BY 4.0, Fonts: SIL OFL 1.1, Code: MIT License) Copyright 2026 Fonticons, Inc. --><path fill="currentColor" d="M170.8 123.8L160 123.8C144.3 123.9 129.2 130.2 118.1 141.3C107 152.4 100.7 167.5 100.6 183.2L100.6 246.4C100.6 259.5 97.4 272.3 91.3 283.9C85.2 295.5 76.4 305.4 65.6 312.7C76.4 320 85.3 329.9 91.4 341.5C97.5 353.1 100.7 366 100.7 379L100.7 452.2C100.7 469 107.4 485 119.2 496.9C131 508.8 147.2 515.4 163.9 515.4L163.9 543.2C139.7 543.1 116.6 533.5 99.5 516.4C82.4 499.3 72.8 476 72.8 451.8L72.8 379C72.8 365.6 67.7 352.7 58.6 343C49.5 333.3 36.9 327.4 23.5 326.6L24.3 312.7L23.5 298.8C36.9 298 49.4 292.1 58.6 282.4C67.8 272.7 72.9 259.8 72.8 246.4L72.8 183.2C72.8 171.8 75.1 160.4 79.4 149.9C83.7 139.4 90.3 129.6 98.3 121.5C106.3 113.4 116.1 107 126.6 102.6C137.1 98.2 148.5 96 160 96L170.8 96L170.8 123.8zM480.7 96C503.8 96.1 525.8 105.3 542.1 121.6C558.4 137.9 567.5 160 567.4 183.1L567.4 246.3C567.4 259.7 572.5 272.6 581.6 282.3C590.7 292 603.3 297.9 616.7 298.7L615.9 312.6L616.7 326.5C603.3 327.3 590.8 333.2 581.6 342.9C572.4 352.6 567.3 365.5 567.4 378.9L567.4 451.7C567.4 475.9 557.9 499.1 540.8 516.2C523.7 533.3 500.6 543 476.4 543L476.4 515.2C493.2 515.2 509.3 508.5 521.1 496.7C532.9 484.9 539.6 468.8 539.6 452L539.6 378.8C539.6 365.7 542.8 352.8 548.9 341.3C555 329.8 563.9 319.9 574.7 312.5C563.9 305.1 555.1 295.2 549 283.7C542.9 272.2 539.7 259.3 539.7 246.2L539.7 183C539.7 175.2 538.2 167.5 535.3 160.3C532.4 153.1 528 146.6 522.6 141.1C517.2 135.6 510.6 131.2 503.4 128.2C496.2 125.2 488.5 123.6 480.7 123.6L469.9 123.6L469.9 95.8L480.7 95.8zM320.4 328.5C341.3 328.5 361.3 336.3 376.7 350.5L463.1 431.4L421.9 431.4L356.3 369.7C346.6 360.8 333.8 355.8 320.6 355.8C307.4 355.8 294.7 360.8 284.9 369.7L219 431.4L177.8 431.4L264.2 350.5C279.5 336.4 299.6 328.5 320.5 328.5zM284.5 268.7C294.2 277.6 307 282.6 320.2 282.6C333.4 282.6 346.1 277.7 355.9 268.7L421.4 207.8L462.6 207.8L376.6 288.4C361.2 302.4 341.1 310.1 320.3 310.1C299.5 310.1 279.4 302.4 264 288.4L178 207.8L219.2 207.8L284.4 268.7z"/></svg>