<svg xmlns="http://www.w3.org/2000/svg" viewBox="0 0 640 512"><!--! Font Awesome Free 7.3.0 by @fontawesome - https://fontawesome.com License - https://fontawesome.com/license/free (Icons: CC BY 4.0, Fonts: SIL OFL 1.1, Code: MIT License) Copyright 2026 Fonticons, Inc. --><path fill="currentColor" d="M131.2 61.9c5.3-.5 10.6 .6 15.3 3s8.6 6.2 11.3 10.8c17 29.5 34.2 58.9 51.2 88.4 3.5-1.4 7-2.7 10.5-3.9 31.3-10.9 64.2-16.6 97.4-16.9 1 0 2.1 0 3.2 0 38.1 0 76.2 7 111.6 21.1L483 75.7c1.8-3.2 4.3-6 7.2-8.2s6.2-3.9 9.8-4.8c3.1-.8 6.4-1.1 9.6-.8 4.2 .4 8.3 1.7 11.9 3.8 4 2.4 7.3 5.7 9.7 9.7 2 3.4 3.3 7.2 3.8 11.2s.1 8-1.2 11.7c-.6 1.9-1.4 3.7-2.4 5.5l-49.7 85.8c19.5 12.2 37.6 26.5 53.9 42.8 12.3 12.2 23.5 25.4 33.5 39.5 8.2 11.5 15.6 23.6 22.2 36.2 17.5 33.6 28.6 70.5 32.7 108.1l-608 0c4.1-37.7 15.2-74.5 32.7-108.1 14.5-27.9 33.4-53.5 55.7-75.7 16.5-16.4 34.7-30.9 54.5-43.1l-49.5-85.4c-3.7-6.4-4.7-14.1-2.8-21.2 1.9-7.1 6.4-13.1 12.7-16.8 3.6-2.2 7.7-3.5 11.9-3.8zm67.3 215.8c-12.2-8.1-30.1-2.5-40.1 12.5s-8.2 33.8 3.9 41.9 30.1 2.5 40.1-12.5 8.2-33.8-3.9-41.9zm283.6 12.5c-10-15-27.9-20.6-40.1-12.5s-13.9 26.9-3.9 41.9c10 15 27.9 20.6 40.1 12.5s13.9-26.9 3.9-41.9z"/></svg>