<svg xmlns="http://www.w3.org/2000/svg" viewBox="0 0 448 512"><!--! Font Awesome Free 7.3.0 by @fontawesome - https://fontawesome.com License - https://fontawesome.com/license/free (Icons: CC BY 4.0, Fonts: SIL OFL 1.1, Code: MIT License) Copyright 2026 Fonticons, Inc. --><path fill="currentColor" d="M450.8 512l-452.7 0 0-23.2 452.7 0 0 23.2zm-17-35.7l-417.8 0 0-32.2 417.8 0 0 32.2zM47.6 132.1c6.2 0 12.3 .7 18.4 1.9 1.5 .3 2.2 .6 2.3 2.4 1 20.6 2.3 41.3 2.9 61.9 .9 21.9 1.5 43.8 1.8 65.7 .3 15.5 .1 31.1-.1 46.6-.3 17.3-.7 34.5-1.4 51.8-.7 18.4-1.9 36.9-2.9 55.4-.2 3.5-.5 7-.8 10.5-6.8 1.8-13.6 2.8-20.3 2.9-6.7-.1-13.5-1.1-20.3-2.9-.3-3.4-.6-6.9-.8-10.5-1-18.4-2.1-36.9-2.9-55.4-.7-17.3-1.1-34.5-1.4-51.8-.2-15.5-.3-31.1-.1-46.6 .4-21.9 1-43.8 1.8-65.7 .7-20.6 2.1-41.3 3.1-61.9 .1-1.7 .9-2.1 2.3-2.4 6.1-1.3 12.3-1.9 18.4-1.9zm113.1 0c6.2 0 12.3 .7 18.4 1.9 1.5 .3 2.2 .6 2.3 2.4 1 20.6 2.4 41.3 2.9 61.9 .9 21.9 1.5 43.8 1.8 65.7 .3 15.5 .1 31.1-.1 46.6-.3 17.3-.6 34.5-1.4 51.8-.7 18.4-1.9 36.9-2.9 55.4-.2 3.5-.5 7-.8 10.5-6.8 1.8-13.6 2.8-20.3 2.9-6.7-.1-13.5-1.1-20.3-2.9-.3-3.4-.7-6.9-.9-10.5-1-18.4-2.1-36.9-2.9-55.4-.7-17.3-1.1-34.5-1.4-51.8-.2-15.5-.3-31.1-.1-46.6 .4-21.9 1-43.8 1.8-65.7 .7-20.6 2.2-41.3 3.1-61.9 .1-1.7 .8-2.1 2.3-2.4 6.1-1.3 12.3-1.9 18.4-1.9zm131.2 0c6.2 0 12.3 .7 18.4 1.9 1.5 .3 2.2 .6 2.3 2.4 1.1 20.6 2.3 41.3 2.9 61.9 .9 21.9 1.5 43.8 1.8 65.7 .3 15.5 .1 31.1-.1 46.6-.3 17.3-.7 34.5-1.4 51.8-.7 18.4-1.9 36.9-2.9 55.4-.2 3.5-.5 7-.8 10.5-6.8 1.8-13.6 2.8-20.3 2.9-6.7-.1-13.5-1.1-20.3-2.9-.3-3.4-.6-6.9-.8-10.5-1-18.4-2.1-36.9-2.9-55.4-.7-17.3-1.1-34.5-1.4-51.8-.2-15.5-.3-31.1-.1-46.6 .4-21.9 1-43.8 1.8-65.7 .7-20.6 2.1-41.3 3.1-61.9 .1-1.7 .9-2.1 2.3-2.4 6.1-1.3 12.3-1.9 18.4-1.9zm110.5 0c6.2 0 12.3 .7 18.4 1.9 1.5 .3 2.3 .6 2.4 2.4 1.1 20.6 2.3 41.3 2.9 61.9 .9 21.9 1.5 43.8 1.8 65.7 .3 15.5 .1 31.1-.1 46.6-.3 17.3-.7 34.5-1.4 51.8-.7 18.4-1.9 36.9-2.9 55.4-.2 3.5-.6 7-.9 10.5-6.8 1.8-13.6 2.8-20.3 2.9-6.7-.1-13.5-1.1-20.3-2.9-.3-3.4-.6-6.9-.8-10.5-1-18.4-2.2-36.9-2.9-55.4-.7-17.3-1.1-34.5-1.4-51.8-.2-15.5-.3-31.1-.1-46.6 .4-21.9 1-43.8 1.8-65.7 .7-20.6 2.1-41.3 3.1-61.9 .1-1.7 .9-2.1 2.3-2.4 6.1-1.3 12.3-1.9 18.4-1.9zm26.4-9.3l-415.5 0 0-44.6 415.5 0 0 44.6zm9.8-71.8L426.2 64.7 16 64.7 3.5 50.9 221.1 0 438.6 50.9z"/></svg>