<svg xmlns="http://www.w3.org/2000/svg" viewBox="0 0 640 512"><!--! Font Awesome Free 7.3.0 by @fontawesome - https://fontawesome.com License - https://fontawesome.com/license/free (Icons: CC BY 4.0, Fonts: SIL OFL 1.1, Code: MIT License) Copyright 2026 Fonticons, Inc. --><path fill="currentColor" d="M327.8 404.7c10 0 16.4 4.2 19.3 6.6 1.3 1.1 1.6 2.4 .2 4l-.8 1.3c-1.1 1.6-2.4 1.6-4 .5-2.6-1.9-7.7-5.3-14.5-5.3-12.7 0-22.7 9.5-22.7 23.5 0 13.7 10 23.2 22.7 23.3 8.2 0 13.7-3.7 16.4-6.1 1.6-1.1 2.7-.8 3.7 .8l.8 1.1c.8 1.6 .5 2.6-.8 4-2.9 2.4-10.1 7.4-20.6 7.4-17.2 0-30.4-12.4-30.4-30.4 .3-18 13.5-30.7 30.7-30.7zm-164.2 0c15.6 0 24.3 11.1 24.3 27.8 0 1.6-1.3 2.9-2.9 2.9l-42 0c.3 14.8 10.6 23.2 22.5 23.3 7.4 0 12.7-3.2 15.3-5.3 1.6-1.1 2.9-.8 3.7 .8l.8 1.3c.8 1.3 .5 2.6-.8 3.7-3.2 2.4-10 6.3-19.3 6.3-17.2 0-30.4-12.4-30.4-30.4 .3-19 13-30.4 28.8-30.4zm253.6 0c16.9 0 30.7 13 30.7 30.1 0 17.4-13.7 30.6-30.7 30.7s-30.7-13.2-30.7-30.7c0-17.2 13.8-30.1 30.7-30.1zm48.3 1.3c1.8 0 2.9 1.1 2.9 2.9l0 32c0 9 6.1 17.2 17.2 17.2 11.4 0 17.2-8.2 17.2-17.2l0-32c0-1.8 1.1-2.9 2.9-2.9l2.1 0c1.8 0 2.9 1.1 2.6 2.9l0 34.1c0 15.1-11.1 22.5-24.8 22.5s-24.8-7.4-24.8-22.5l0-34.1c0-1.9 .8-2.9 2.7-2.9l2.1 0zm105.8-23.2c1.8 0 4.7 1.1 4.7 2.9l0 75.3c0 1.8-.8 2.9-2.6 2.9l-1.9 0c-1.8 0-2.9-.8-2.9-2.6l0-4.5c0-2.1 .5-3.7 .5-3.7l-.3 0s-5 12.2-20.1 12.2c-15.6 0-25.4-12.4-25.4-30.4-.5-18 10.3-30.1 25.6-30.1 14 0 19 11.6 19 11.6l.3 0s-.3-1.9-.3-4.5l0-26.2c0-1.8-.8-2.9 1.1-2.9l2.1 0zM365.9 383c1.8 0 4.7 1.1 4.7 2.9l0 63.2c0 7.4 3.4 8.2 6.1 8.4 1.3 0 2.4 .8 2.4 2.7l0 1.8c0 1.8-.8 2.9-2.9 2.9-4.8 0-13.2-1.6-13.2-14.3l0-64.7c0-1.4-.6-2.3-.1-2.7l.9-.2 2.1 0zM246.2 405.6c.6-.1 1.3 .1 2 .7l1.6 1.3c1.4 1.2 1.5 2.7 .3 4.1l-6.6 7.8 0 0-13 15.5c5.6 6.7 12.1 14.5 19.6 23.3 1.2 1.4 1.3 2.7-.2 3.9l-1.6 1.3c-1.4 1.2-2.9 1.1-4.1-.3l-6.6-7.8 0 0-12.1-14.5c-4.9 5.8-11.1 13.3-18.7 22.3-1.2 1.4-2.5 1.7-3.9 .5l-1.6-1.3c-1.4-1.2-1.5-2.7-.3-4.1l6.6-7.8 0 0 13-15.5-8.8-10.6-10.7-12.7c-1.2-1.4-1.3-2.7 .2-3.9l1.6-1.4c.7-.6 1.4-.8 2.1-.8 .7 .1 1.4 .4 2 1.2 3.5 4.1 9.7 11.6 18.7 22.3 4.9-5.8 11.1-13.2 18.7-22.3 .6-.7 1.2-1.1 1.9-1.2zM271 389.9c1.9 0 2.7 1.1 2.7 2.9l0 13.8 11.9 0c1.8 0 2.9 1.1 2.9 2.9l0 .8c0 1.8-1.1 2.7-2.9 2.7l-11.9 0 0 29.1c0 13.5 8.2 15.1 12.7 15.3 2.4 .3 3.2 .8 3.2 2.9l0 1.6c0 1.8-.8 2.6-3.2 2.6-12.7 0-20.3-7.7-20.3-21.4l0-50.2c0-1.8 1.1-2.9 2.9-2.9l2.1 0zM68.8 381.7c1.1 0 1.9 .4 2.3 1.1 .2 .2 .3 .3 .5 .5l41.8 64.9 0-63.7c0-1.8 1.1-2.9 2.9-2.9l2.1 0c1.8 0 2.6 1.1 2.6 2.9l0 76.7c0 1.8-.8 2.9-2.6 2.9l-2.1 0c-.4 0-.6-.1-.9-.2-.1 0-.2 0-.3 0-.1 0-.2-.1-.3-.2-.2-.1-.4-.2-.6-.3-.1-.1-.1-.1-.2-.2-.2-.2-.4-.4-.6-.7l-41.8-64.9 0 63.7c0 1.8-1 2.9-2.9 2.9l-2.1 0c-1.8 0-2.7-1-2.7-2.9l0-76.7c0-1.8 .8-2.9 2.7-2.9l2.1 0zm348.4 30.1c-12.4 0-22.7 10-22.7 23 .3 13.5 10.3 23.8 22.7 23.8s22.5-10 22.5-23.8c0-13.2-10.1-23-22.5-23zm132.4 0c-10.3 0-18.7 8.5-18.7 23.2 .3 14.3 7.7 23.5 18.5 23.5 9.8 0 18.8-6.9 18.8-23.5 0-11.9-6.1-23.2-18.5-23.2zm-386.2-.5c-9.8 0-18.2 6.4-20.1 18.2l36.5 0c-.5-12.2-7.9-18.2-16.4-18.2zM320.5 46.4c65.8 0 121.8 44.3 139.7 104.5 15.4-31.6 47.8-53.6 85.1-53.6 52 0 94.7 42.7 94.7 94.7s-42.8 94.7-94.7 94.7c-37.3 0-69.7-22-85.1-53.6-17.9 60.2-73.8 104.6-139.7 104.6-66.3 0-122.6-45-140-105.9-15.1 32.3-48 55-85.8 55-52 0-94.7-42.8-94.7-94.7S42.7 97.3 94.7 97.3c37.8 0 70.6 22.6 85.8 55 17.4-60.9 73.7-105.9 140-105.9zm0 55.6a90.1 90.1 0 1 0 0 180.2 90.1 90.1 0 1 0 0-180.2zM94.7 153a39.1 39.1 0 1 0 .1 78.3 39.1 39.1 0 1 0 -.1-78.3zm450.5 0a39.1 39.1 0 1 0 0 78.3 39.1 39.1 0 1 0 0-78.3z"/></svg>