<svg xmlns="http://www.w3.org/2000/svg" viewBox="0 0 640 512"><!--! Font Awesome Free 7.3.0 by @fontawesome - https://fontawesome.com License - https://fontawesome.com/license/free (Icons: CC BY 4.0, Fonts: SIL OFL 1.1, Code: MIT License) Copyright 2026 Fonticons, Inc. --><path fill="currentColor" d="M261.4 484.1l-99.5 0 49.7-76.2 49.7 76.2zm208.1 0l-99.5 0 49.8-76.2 49.7 76.2zM312.6 121.4c19.5 0 37.5 3.1 53.9 9.2 16.5 6.1 30.7 14.9 42.7 26.3s21.4 25.2 28 41.4c.9 2.2 1.7 4.4 2.5 6.7l0-77.2 96.6 0c12.7 0 24.7 1.2 36.1 3.7s21.4 6.6 30 12.3c8.6 5.8 15.4 13.5 20.4 23.3s7.6 21.9 7.6 36.5c0 17.6-4.5 32.6-13.7 44.9-9.1 12.3-22.6 20.2-40.2 23.4l63.5 105.4-65.9 0-52.2-99.8-27.1 0 0 99.8-55 0 0-77.2c-.8 2.2-1.6 4.5-2.5 6.7-6.7 16.2-16.1 30-28 41.4-12 11.4-26.2 20.2-42.7 26.3-16.5 6.1-34.4 9.2-53.9 9.2s-37.5-3.1-53.9-9.2c-16.5-6.1-30.7-14.9-42.7-26.3-12-11.4-21.4-25.2-28.1-41.4s-10-34.3-10-54.3c0-2 0-3.9 .1-5.8-.4 .6-.8 1.2-1.2 1.8-9.1 12.3-22.5 20.2-40.2 23.4l63.4 105.4-65.9 0-52.2-99.8-27.1 0 0 99.8-55 0 0-249.5 96.5 0c12.7 0 24.7 1.2 36.1 3.7s21.4 6.6 30 12.3c8.6 5.8 15.4 13.5 20.4 23.3 3.8 7.4 6.2 16.2 7.2 26.3 6.5-14.1 15.1-26.3 25.8-36.5 12-11.4 26.2-20.2 42.7-26.3 16.5-6.1 34.4-9.2 53.9-9.2zm.1 50.8c-11.8 0-22.4 2-31.9 6-9.5 4-17.7 9.6-24.5 16.8-6.8 7.2-12 15.7-15.7 25.5s-5.5 20.6-5.5 32.1c0 11.8 1.8 22.5 5.5 32.3s8.9 18.2 15.7 25.4c6.8 7.2 15 12.8 24.5 16.8s20.1 6 31.9 6c11.7 0 22.4-2 31.9-6 9.5-4 17.7-9.6 24.5-16.8 6.8-7.2 12.1-15.6 15.7-25.4s5.4-20.5 5.4-32.3c0-11.5-1.8-22.2-5.4-32.1-3.6-9.8-8.9-18.4-15.7-25.5-6.8-7.2-15-12.8-24.5-16.8s-20.1-6-31.9-6zM55 174.3l0 56.7 32.4 0c5 0 10.2-.2 15.7-.5 5.5-.3 10.5-1.4 15-3.2s8.1-4.5 11.1-8.3 4.4-9.1 4.4-15.8c0-6.3-1.3-11.4-3.9-15.2s-5.9-6.6-9.9-8.7-8.6-3.4-13.7-4.1-10.3-1.1-15.2-1.1l-35.9 0zm439.7 0l0 56.7 32.4 0c5 0 10.2-.2 15.7-.5 5.5-.3 10.5-1.4 14.9-3.2s8.2-4.5 11.1-8.3 4.4-9.1 4.4-15.8c0-6.3-1.3-11.4-3.9-15.2s-5.9-6.6-9.9-8.7-8.6-3.4-13.8-4.1-10.2-1.1-15.2-1.1l-35.9 0zM211.7 104l-49.7-76.2 99.5 0-49.7 76.2zm208.1 0l-49.8-76.2 99.5 0-49.7 76.2z"/></svg>