<svg xmlns="http://www.w3.org/2000/svg" viewBox="0 0 448 512"><!--! Font Awesome Free 7.3.0 by @fontawesome - https://fontawesome.com License - https://fontawesome.com/license/free (Icons: CC BY 4.0, Fonts: SIL OFL 1.1, Code: MIT License) Copyright 2026 Fonticons, Inc. --><path fill="currentColor" d="M384 32c35.3 0 64 28.7 64 64l0 320c0 35.3-28.7 64-64 64L64 480c-35.3 0-64-28.7-64-64L0 96C0 60.7 28.7 32 64 32l320 0zM64 64C46.3 64 32 78.3 32 96l0 320c0 17.7 14.3 32 32 32l320 0c17.7 0 32-14.3 32-32l0-320c0-17.7-14.3-32-32-32L64 64zm160 64c57.4 0 104 46.6 104 104 0 47.1-36.7 97.6-77.2 114.3l12.1 27.2c.8 1.7 1.1 3.5 1.1 5.4 0 7.3-5.9 13.2-13.2 13.2l-53.6 0c-7.3 0-13.2-5.9-13.2-13.2 0-1.8 .4-3.7 1.1-5.4l12.1-27.2c-40.5-16.7-77.2-67.2-77.2-114.3 0-57.4 46.6-104 104-104zm-14.5 33.5c-31.3 6.4-55.2 33.1-57.4 65.8-.4 6.6 4.6 12.3 11.2 12.8s12.3-4.6 12.8-11.2c1.4-21.7 17.4-39.6 38.2-43.8 6.5-1.3 10.7-7.7 9.3-14.2s-7.7-10.7-14.2-9.3z"/></svg>