<svg xmlns="http://www.w3.org/2000/svg" viewBox="0 0 640 512"><!--! Font Awesome Free 7.3.0 by @fontawesome - https://fontawesome.com License - https://fontawesome.com/license/free (Icons: CC BY 4.0, Fonts: SIL OFL 1.1, Code: MIT License) Copyright 2026 Fonticons, Inc. --><path fill="currentColor" d="M170.8 59.8l-10.8 0c-15.7 .1-30.8 6.4-41.9 17.5s-17.4 26.2-17.5 41.9l0 63.2c0 13.1-3.2 25.9-9.3 37.5s-14.9 21.5-25.7 28.8c10.8 7.3 19.7 17.2 25.8 28.8s9.3 24.5 9.3 37.5l0 73.2c0 16.8 6.7 32.8 18.5 44.7s28 18.5 44.7 18.5l0 27.8c-24.2-.1-47.3-9.7-64.4-26.8S72.8 412 72.8 387.8l0-72.8c0-13.4-5.1-26.3-14.2-36s-21.7-15.6-35.1-16.4l.8-13.9-.8-13.9c13.4-.8 25.9-6.7 35.1-16.4s14.3-22.6 14.2-36l0-63.2c0-11.4 2.3-22.8 6.6-33.3S90.3 65.6 98.3 57.5 116.1 43 126.6 38.6 148.5 32 160 32l10.8 0 0 27.8zM480.7 32c23.1 .1 45.1 9.3 61.4 25.6s25.4 38.4 25.3 61.5l0 63.2c0 13.4 5.1 26.3 14.2 36s21.7 15.6 35.1 16.4l-.8 13.9 .8 13.9c-13.4 .8-25.9 6.7-35.1 16.4s-14.3 22.6-14.2 36l0 72.8c0 24.2-9.5 47.4-26.6 64.5s-40.2 26.8-64.4 26.8l0-27.8c16.8 0 32.9-6.7 44.7-18.5s18.5-27.9 18.5-44.7l0-73.2c0-13.1 3.2-26 9.3-37.5s15-21.4 25.8-28.8c-10.8-7.4-19.6-17.3-25.7-28.8s-9.3-24.4-9.3-37.5l0-63.2c0-7.8-1.5-15.5-4.4-22.7s-7.3-13.7-12.7-19.2-12-9.9-19.2-12.9-14.9-4.6-22.7-4.6l-10.8 0 0-27.8 10.8 0zM320.4 264.5c20.9 0 40.9 7.8 56.3 22l86.4 80.9-41.2 0-65.6-61.7c-9.7-8.9-22.5-13.9-35.7-13.9s-25.9 5-35.7 13.9l-65.9 61.7-41.2 0 86.4-80.9c15.3-14.1 35.4-22 56.3-22zm-35.9-59.8c9.7 8.9 22.5 13.9 35.7 13.9s25.9-4.9 35.7-13.9l65.5-60.9 41.2 0-86 80.6c-15.4 14-35.5 21.7-56.3 21.7s-40.9-7.7-56.3-21.7l-86-80.6 41.2 0 65.2 60.9z"/></svg>