<svg xmlns="http://www.w3.org/2000/svg" viewBox="0 0 448 512"><!--! Font Awesome Free 7.3.0 by @fontawesome - https://fontawesome.com License - https://fontawesome.com/license/free (Icons: CC BY 4.0, Fonts: SIL OFL 1.1, Code: MIT License) Copyright 2026 Fonticons, Inc. --><path fill="currentColor" d="M416.1 52.3c-25.4-47.8-85.2-66.1-133.5-41L70.9 122.5c-48.3 25.2-66.8 84.3-41.4 132.1 17.1 32.1 49.7 50.9 83.9 52.2L73.7 327.7C25.4 352.8 6.8 412 32.2 459.8s85.2 66.1 133.5 41L377.5 389.5c48.3-25.2 66.8-84.3 41.4-132.1-17.1-32.1-49.7-50.9-83.9-52.2l39.7-20.9C423 159.2 441.5 100 416.1 52.3zM296.5 256.3l-128.2 78.7 0-157.9 128.2 79.1z"/></svg>