<svg xmlns="http://www.w3.org/2000/svg" viewBox="0 0 640 640"><!--! Font Awesome Free 7.3.0 by @fontawesome - https://fontawesome.com License - https://fontawesome.com/license/free (Icons: CC BY 4.0, Fonts: SIL OFL 1.1, Code: MIT License) Copyright 2026 Fonticons, Inc. --><path fill="currentColor" d="M431.1 80C451.8 80 471.2 90 483.2 106.8L532.1 175.3C539.8 186.1 544 199.2 544 212.5L544 480C544 515.3 515.3 544 480 544L160 544L153.5 543.7C121.2 540.4 96 513.1 96 480L96 212.5C96 200.8 99.2 189.4 105.2 179.5L107.9 175.3L156.8 106.8C167.3 92.1 183.5 82.6 201.2 80.5L208.9 80L431 80zM344 192L465.3 192L431 144L343.9 144L343.9 192zM174.7 192L296 192L296 144L208.9 144L174.6 192z"/></svg>