<svg xmlns="http://www.w3.org/2000/svg" viewBox="0 0 640 640"><!--! Font Awesome Free 7.3.0 by @fontawesome - https://fontawesome.com License - https://fontawesome.com/license/free (Icons: CC BY 4.0, Fonts: SIL OFL 1.1, Code: MIT License) Copyright 2026 Fonticons, Inc. --><path fill="currentColor" d="M192 576C162.2 576 137.2 555.6 130.1 528L192 528L192 576zM296 576L240 576L240 528L296 528L296 576zM400 576L344 576L344 528L400 528L400 576zM509.9 528C502.8 555.6 477.8 576 448 576L448 528L509.9 528zM176 480L128 480L128 432L176 432L176 480zM512 480L464 480L464 432L512 432L512 480zM341.5 64C358.5 64 374.7 70.8 386.7 82.8L493.3 189.2C505.3 201.2 512 217.5 512 234.4L512 384L128 384L128 128C128 92.7 156.7 64 192 64L341.5 64zM336 216C336 229.3 346.7 240 360 240L453.5 240L336 122.5L336 216z"/></svg>